<svg width="4130" height="1454" viewBox="0 0 4130 1454" fill="none" xmlns="http://www.w3.org/2000/svg">
<g filter="url(#filter0_d_567_248)">
<g clip-path="url(#clip0_567_248)">
<g style="mix-blend-mode:overlay">
<rect x="65" y="42" width="4000" height="1324.76" fill="#1C1A1A"/>
<rect x="65" y="42" width="4000" height="1324.76" fill="url(#paint0_linear_567_248)" fill-opacity="0.2"/>
</g>
<path d="M3439.76 311.22C3439.76 352.435 3415.93 388.086 3381.3 405.152C3373.92 408.792 3369.27 416.341 3369.27 424.579V441.469H3300.93V424.573C3300.93 416.314 3296.24 408.776 3288.83 405.119C3254.23 388.042 3230.43 352.403 3230.43 311.214C3230.43 253.382 3277.33 206.503 3335.18 206.547C3393.15 206.591 3439.76 253.245 3439.76 311.214V311.22Z" fill="#FFEA20" stroke="#231F20" stroke-width="10.9325" stroke-miterlimit="10" stroke-linecap="round"/>
<path d="M3328.16 433.232C3328.16 433.232 3300.27 352.982 3319.42 360.766C3329.03 364.675 3333.29 373.53 3334.78 381.385C3335.4 384.599 3338.69 384.708 3339.67 381.538C3345.64 362.242 3352.63 333.473 3356.92 349.063C3364.03 374.896 3347.22 430.734 3347.22 430.734" stroke="#231F20" stroke-width="6.01286" stroke-miterlimit="10" stroke-linecap="round"/>
<path d="M3366.47 459.683H3303.73C3296.95 459.683 3291.45 465.178 3291.45 471.957C3291.45 478.736 3296.95 484.232 3303.73 484.232H3366.47C3373.25 484.232 3378.74 478.736 3378.74 471.957C3378.74 465.178 3373.25 459.683 3366.47 459.683Z" fill="#55476B" stroke="#231F20" stroke-width="10.9325" stroke-miterlimit="10" stroke-linecap="round"/>
<path d="M3366.47 485.538H3303.73C3296.95 485.538 3291.45 491.034 3291.45 497.812C3291.45 504.591 3296.95 510.087 3303.73 510.087H3366.47C3373.25 510.087 3378.74 504.591 3378.74 497.812C3378.74 491.034 3373.25 485.538 3366.47 485.538Z" fill="#55476B" stroke="#231F20" stroke-width="10.9325" stroke-miterlimit="10" stroke-linecap="round"/>
<path d="M3366.47 433.822H3303.73C3296.95 433.822 3291.45 439.318 3291.45 446.097C3291.45 452.876 3296.95 458.371 3303.73 458.371H3366.47C3373.25 458.371 3378.74 452.876 3378.74 446.097C3378.74 439.318 3373.25 433.822 3366.47 433.822Z" fill="#55476B" stroke="#231F20" stroke-width="10.9325" stroke-miterlimit="10" stroke-linecap="round"/>
<path d="M3412.82 317.047C3412.48 317.074 3412.67 317.025 3412.32 316.986C3409.32 316.669 3407.14 313.974 3407.46 310.974C3410.09 286.25 3384.27 267.561 3362.96 252.72C3346.52 241.268 3343.37 237.874 3343.23 237.753C3340.52 235.343 3340.23 232.342 3340.87 229.395C3341.51 226.449 3345.74 224.612 3348.69 225.252C3349.48 225.427 3367.04 229.581 3385.25 242.17C3409.94 259.236 3421.38 283.424 3418.33 312.127C3418.05 314.778 3415.37 316.828 3412.81 317.041L3412.82 317.047Z" fill="white"/>
<path d="M3570.93 926.046V597.673H3576.46C3608.83 597.673 3640.13 609.338 3664.6 630.514C3689.09 651.718 3705.07 681.022 3709.61 713.043C3711.96 729.617 3713.11 745.338 3713.12 761.097C3713.15 777.261 3711.99 793.381 3709.59 810.381C3705.06 842.467 3689.08 871.843 3664.61 893.096C3640.13 914.343 3608.81 926.041 3576.4 926.041H3570.93V926.046Z" fill="#8DF2FF"/>
<path d="M3576.46 603.139C3640.63 603.139 3695.2 650.268 3704.2 713.808C3706.32 728.829 3707.64 744.616 3707.66 761.107C3707.68 778.036 3706.35 794.233 3704.18 809.62C3695.19 873.275 3640.68 920.579 3576.4 920.579V603.139H3576.46ZM3576.46 592.206H3565.46V931.512H3576.4C3610.12 931.512 3642.72 919.333 3668.19 897.228C3693.66 875.111 3710.29 844.544 3715 811.151C3717.44 793.894 3718.61 777.522 3718.6 761.096C3718.57 745.299 3717.38 728.873 3715.03 712.283C3710.31 678.955 3693.67 648.454 3668.18 626.386C3642.72 604.347 3610.15 592.212 3576.46 592.212L3576.46 592.206Z" fill="#231F20"/>
<path d="M3641.02 645.792C3641.02 645.792 3674.51 660.354 3675.97 687.538Z" fill="#8DF2FF"/>
<path d="M3641.02 645.792C3641.02 645.792 3674.51 660.354 3675.97 687.538" stroke="white" stroke-width="13.6656" stroke-miterlimit="10" stroke-linecap="round"/>
<path d="M3686.56 711.661L3687.48 714.389" stroke="white" stroke-width="13.6656" stroke-miterlimit="10" stroke-linecap="round"/>
<path d="M3089.36 926.047C3056.95 926.047 3025.62 914.343 3001.15 893.102C2976.67 871.849 2960.69 842.473 2956.17 810.386C2953.77 793.386 2952.61 777.267 2952.63 761.103C2952.65 745.338 2953.8 729.623 2956.15 713.049C2960.68 681.028 2976.67 651.723 3001.16 630.52C3025.63 609.344 3056.93 597.679 3089.3 597.679H3094.83V926.052H3089.36V926.047Z" fill="#8DF2FF"/>
<path d="M3089.36 603.139V920.58C3025.08 920.58 2970.56 873.275 2961.58 809.621C2959.41 794.233 2958.08 778.037 2958.1 761.108C2958.12 744.622 2959.43 728.83 2961.56 713.809C2970.55 650.269 3025.13 603.139 3089.3 603.139H3089.36ZM3100.29 592.207H3089.3C3055.62 592.207 3023.04 604.342 2997.58 626.382C2972.09 648.449 2955.45 678.95 2950.74 712.278C2948.38 728.874 2947.19 745.294 2947.17 761.092C2947.14 777.518 2948.32 793.889 2950.76 811.146C2955.47 844.539 2972.1 875.106 2997.57 897.223C3023.04 919.334 3055.64 931.507 3089.36 931.507H3100.3V603.134V592.201L3100.29 592.207Z" fill="#231F20"/>
<path d="M3023.83 649.685C3023.83 649.685 2990.03 663.509 2987.98 690.654Z" fill="#8DF2FF"/>
<path d="M3023.83 649.685C3023.83 649.685 2990.03 663.509 2987.98 690.654" stroke="white" stroke-width="13.6656" stroke-miterlimit="10" stroke-linecap="round"/>
<path d="M2979.75 712.818L2978.64 715.475" stroke="white" stroke-width="13.6656" stroke-miterlimit="10" stroke-linecap="round"/>
<path d="M3571.98 506.546H3098.03C3078.23 506.546 3062.18 522.598 3062.18 542.399V1016.35C3062.18 1036.15 3078.23 1052.2 3098.03 1052.2H3571.98C3591.78 1052.2 3607.83 1036.15 3607.83 1016.35V542.399C3607.83 522.598 3591.78 506.546 3571.98 506.546Z" fill="#EEF6FF" stroke="#231F20" stroke-width="10.9325" stroke-miterlimit="10"/>
<path d="M3548.58 722.118V851.99C3548.58 866.525 3536.8 878.31 3522.26 878.31H3401.16L3384.65 857.21H3285.36L3268.85 878.31H3147.33C3132.79 878.31 3121.01 866.525 3121.01 851.99V722.118C3121.01 707.578 3132.79 695.798 3147.33 695.798H3292.13L3299.48 706.856H3370.52L3377.87 695.798H3522.26C3536.8 695.798 3548.58 707.578 3548.58 722.118H3548.58Z" fill="black" stroke="#8DF2FF" stroke-width="10.9325" stroke-miterlimit="10"/>
<path d="M3234.58 831.425C3260.23 831.425 3281.01 810.637 3281.01 784.995C3281.01 759.352 3260.23 738.564 3234.58 738.564C3208.94 738.564 3188.15 759.352 3188.15 784.995C3188.15 810.637 3208.94 831.425 3234.58 831.425Z" fill="#E51C42" stroke="black" stroke-width="10.9325" stroke-miterlimit="10" stroke-linecap="round"/>
<path d="M3212.39 763.217C3206.7 763.982 3203.57 756.816 3208.03 753.213C3220.14 743.44 3237.26 740.876 3252.23 748.048C3267.18 755.209 3275.91 770.115 3275.91 785.65C3275.91 791.362 3268.37 793.456 3265.41 788.569C3261.16 781.534 3254.33 773.597 3243.58 768.224C3232.11 762.49 3220.96 762.063 3212.39 763.217Z" fill="#F2EBEB"/>
<path d="M3435.28 831.425C3460.92 831.425 3481.71 810.637 3481.71 784.995C3481.71 759.352 3460.92 738.564 3435.28 738.564C3409.64 738.564 3388.85 759.352 3388.85 784.995C3388.85 810.637 3409.64 831.425 3435.28 831.425Z" fill="#E51C42" stroke="black" stroke-width="10.9325" stroke-miterlimit="10" stroke-linecap="round"/>
<path d="M3413.09 763.217C3407.4 763.982 3404.27 756.816 3408.73 753.213C3420.84 743.44 3437.97 740.876 3452.93 748.048C3467.88 755.209 3476.61 770.115 3476.62 785.65C3476.62 791.362 3469.07 793.456 3466.12 788.569C3461.86 781.534 3455.04 773.597 3444.28 768.224C3432.81 762.49 3421.66 762.063 3413.09 763.217Z" fill="#F2EBEB"/>
<path d="M3607.9 917.055V1050.35C3607.9 1067.62 3593.9 1081.63 3576.62 1081.63H3093.4C3076.12 1081.63 3062.12 1067.62 3062.12 1050.35V917.055H3171.37C3172.36 917.055 3173.15 917.858 3173.15 918.848C3173.15 918.853 3173.15 918.859 3173.15 918.864C3173.15 972.368 3245.35 1015.74 3334.4 1015.74C3423.45 1015.74 3495.64 972.368 3495.64 918.864C3495.64 918.859 3495.64 918.853 3495.64 918.848C3495.64 917.858 3496.44 917.055 3497.42 917.055H3607.89H3607.9Z" fill="#EEF6FF" stroke="#231F20" stroke-width="10.9325" stroke-miterlimit="10"/>
<g style="mix-blend-mode:screen">
<rect x="65" y="1277.17" width="112.5" height="112.5" fill="#E5BD19"/>
<rect x="908.75" y="1212.58" width="56.25" height="56.2497" fill="#E5BD19"/>
<rect x="402.5" y="1164.67" width="112.5" height="112.5" fill="#E5BD19"/>
<rect width="56.25" height="56.25" transform="matrix(-4.37114e-08 -1 -1 4.37114e-08 1581.67 1166.75)" fill="#E5BD19"/>
<rect width="56.2497" height="56.25" transform="matrix(-4.37117e-08 -1 -1 4.37111e-08 1937.92 1252.17)" fill="#E5BD19"/>
<rect x="2753.1" y="710.77" width="112.5" height="112.5" transform="rotate(-90 2753.1 710.77)" fill="#E5BD19"/>
<rect x="3714.52" y="710.77" width="112.5" height="112.5" transform="rotate(-90 3714.52 710.77)" fill="#E5BD19"/>
<rect width="112.5" height="112.5" transform="matrix(-4.37114e-08 -1 -1 4.37114e-08 1333.75 1389.67)" fill="#E5BD19"/>
<rect x="1133.75" y="1268.84" width="56.25" height="56.2497" fill="#E5BD19"/>
<rect width="89.5833" height="89.5833" transform="matrix(-4.37114e-08 -1 -1 4.37114e-08 1631.85 1282.38)" fill="#E5BD19"/>
<rect x="65" y="927.168" width="54.1667" height="54.1667" fill="#E5BD19"/>
<rect x="100.417" y="1023" width="54" height="54" fill="#E5BD19"/>
<rect width="54.1667" height="54.1667" transform="matrix(-4.37114e-08 -1 -1 4.37114e-08 1807.71 1282.38)" fill="#E5BD19"/>
<rect width="54.1667" height="54.1667" transform="matrix(-4.37114e-08 -1 -1 4.37114e-08 1842.08 1160.5)" fill="#E5BD19"/>
<rect width="54.1667" height="54.1667" transform="matrix(-4.37114e-08 -1 -1 4.37114e-08 1337.92 1008.42)" fill="#E5BD19"/>
<rect width="54.1667" height="54.1667" transform="matrix(-4.37114e-08 -1 -1 4.37114e-08 2355.63 1209.46)" fill="#E5BD19"/>
<rect width="54.1667" height="54.1667" transform="matrix(-4.37114e-08 -1 -1 4.37114e-08 1851.46 1057.38)" fill="#E5BD19"/>
<rect x="2956.67" y="1160.5" width="54.1667" height="54.1667" transform="rotate(-90 2956.67 1160.5)" fill="#E5BD19"/>
<rect x="2452.5" y="1008.42" width="54.1667" height="54.1667" transform="rotate(-90 2452.5 1008.42)" fill="#E5BD19"/>
<rect x="369.166" y="1020.92" width="54.1667" height="54.1667" fill="#E5BD19"/>
<rect width="54.1667" height="54.1667" transform="matrix(-4.37114e-08 -1 -1 4.37114e-08 1753.54 1228.21)" fill="#E5BD19"/>
<rect width="54.1667" height="54.1667" transform="matrix(-4.37114e-08 -1 -1 4.37114e-08 1249.38 1076.13)" fill="#E5BD19"/>
<rect width="54.1667" height="54.1667" transform="matrix(-4.37114e-08 -1 -1 4.37114e-08 2267.08 1277.17)" fill="#E5BD19"/>
<rect x="908.75" y="998.002" width="54.1667" height="54.1667" fill="#E5BD19"/>
<rect x="419.167" y="864.668" width="54.1667" height="54.1667" fill="#E5BD19"/>
<rect width="54.1667" height="54.1667" transform="matrix(-1 0 0 1 3890 998.002)" fill="#E5BD19"/>
<rect x="1077.5" y="1229.25" width="54.1667" height="54.1667" fill="#E5BD19"/>
<rect width="54.1667" height="54.1667" transform="matrix(-1 0 0 1 2765 998.002)" fill="#E5BD19"/>
<rect width="54.1667" height="54.1667" transform="matrix(-1 0 0 1 2260.83 845.919)" fill="#E5BD19"/>
<rect width="54.1667" height="54.1667" transform="matrix(-1 0 0 1 3092.08 1225.09)" fill="#E5BD19"/>
<rect x="962.916" y="943.836" width="54.1667" height="54.1667" fill="#E5BD19"/>
<rect width="54.1667" height="54.1667" transform="matrix(-1 0 0 1 3835.83 943.836)" fill="#E5BD19"/>
<rect x="1131.67" y="1175.09" width="54.1667" height="54.1667" fill="#E5BD19"/>
<rect x="627.5" y="1023" width="54.1667" height="54.1667" fill="#E5BD19"/>
<rect width="54.1667" height="54.1667" transform="matrix(-1 0 0 1 2710.83 943.836)" fill="#E5BD19"/>
<rect width="54.1667" height="54.1667" transform="matrix(-1 0 0 1 2206.67 791.752)" fill="#E5BD19"/>
<rect x="962.916" y="1052.17" width="54.1667" height="54.1667" fill="#E5BD19"/>
<rect x="473.333" y="918.834" width="54.1667" height="54.1667" fill="#E5BD19"/>
<rect width="54.1667" height="54.1667" transform="matrix(-1 0 0 1 3835.83 1052.17)" fill="#E5BD19"/>
<rect width="54.1667" height="54.1667" transform="matrix(-1 0 0 1 3685.08 353.897)" fill="#E5BD19"/>
<rect width="54.1667" height="54.1667" transform="matrix(-1 0 0 1 3744.17 1160.5)" fill="#E5BD19"/>
<rect width="54.1667" height="54.1667" transform="matrix(-1 0 0 1 3241.35 1183.48)" fill="#E5BD19"/>
<rect width="54.1667" height="54.1667" transform="matrix(-1 0 0 1 3502.5 1079.25)" fill="#E5BD19"/>
<rect width="54.1667" height="54.1667" transform="matrix(-1 0 0 1 2998.33 927.168)" fill="#E5BD19"/>
<rect x="1131.67" y="1283.42" width="54.1667" height="54.1667" fill="#E5BD19"/>
<rect width="54.1667" height="54.1667" transform="matrix(-1 0 0 1 2710.83 1052.17)" fill="#E5BD19"/>
<rect width="54.1667" height="54.1667" transform="matrix(-1 0 0 1 2206.67 900.085)" fill="#E5BD19"/>
<rect x="290" y="1277.17" width="112.5" height="112.5" fill="#E5BD19"/>
<rect x="740" y="1277.17" width="112.5" height="112.5" fill="#E5BD19"/>
<rect x="569.823" y="1257.43" width="112.5" height="112.5" fill="#E5BD19"/>
<rect width="112.5" height="112.5" transform="matrix(-1 0 0 1 3890 1164.67)" fill="#E5BD19"/>
<rect width="112.5" height="112.5" transform="matrix(-1 0 0 1 2765 1164.67)" fill="#E5BD19"/>
<rect width="112.5" height="112.5" transform="matrix(-1 0 0 1 4002.5 1052.17)" fill="#E5BD19"/>
<rect width="112.5" height="112.5" transform="matrix(-1 0 0 1 2877.5 1052.17)" fill="#E5BD19"/>
<rect x="965" y="1277.17" width="112.5" height="112.5" fill="#E5BD19"/>
<rect x="1415" y="1277.17" width="112.5" height="112.5" fill="#E5BD19"/>
<rect x="1640" y="1268.84" width="56.25" height="56.2497" fill="#E5BD19"/>
<rect x="1865" y="1277.17" width="112.5" height="112.5" fill="#E5BD19"/>
<rect x="2090" y="1277.17" width="112.5" height="112.5" fill="#E5BD19"/>
<rect x="2202.5" y="1277.17" width="112.5" height="112.5" fill="#E5BD19"/>
<rect x="2315" y="1277.17" width="112.5" height="112.5" fill="#E5BD19"/>
<rect x="2540" y="1277.17" width="112.5" height="112.5" fill="#E5BD19"/>
<rect x="2765" y="1277.17" width="112.5" height="112.5" fill="#E5BD19"/>
<rect x="2877.5" y="1277.17" width="112.5" height="112.5" fill="#E5BD19"/>
<rect x="2990" y="1277.17" width="112.5" height="112.5" fill="#E5BD19"/>
<rect x="3102.5" y="1277.17" width="112.5" height="112.5" fill="#E5BD19"/>
<rect x="3215" y="1277.17" width="112.5" height="112.5" fill="#E5BD19"/>
<rect x="2454.07" y="1212.42" width="56.25" height="56.2497" fill="#E5BD19"/>
<rect x="3440" y="1277.17" width="112.5" height="112.5" fill="#E5BD19"/>
<rect x="3594.69" y="1319.36" width="28.125" height="28.125" fill="#E5BD19"/>
<rect x="3665" y="1277.17" width="112.5" height="112.5" fill="#E5BD19"/>
<rect x="3952.5" y="1277.17" width="112.5" height="112.5" fill="#E5BD19"/>
</g>
</g>
<rect x="66.6077" y="43.6077" width="3996.78" height="1321.54" rx="62.701" stroke="#E5BD19" stroke-width="3.21543" shape-rendering="crispEdges"/>
</g>
<defs>
<filter id="filter0_d_567_248" x="0.691319" y="0.199356" width="4128.62" height="1453.38" filterUnits="userSpaceOnUse" color-interpolation-filters="sRGB">
<feFlood flood-opacity="0" result="BackgroundImageFix"/>
<feColorMatrix in="SourceAlpha" type="matrix" values="0 0 0 0 0 0 0 0 0 0 0 0 0 0 0 0 0 0 127 0" result="hardAlpha"/>
<feMorphology radius="16.0772" operator="dilate" in="SourceAlpha" result="effect1_dropShadow_567_248"/>
<feOffset dy="22.508"/>
<feGaussianBlur stdDeviation="24.1158"/>
<feComposite in2="hardAlpha" operator="out"/>
<feColorMatrix type="matrix" values="0 0 0 0 0.898039 0 0 0 0 0.741176 0 0 0 0 0.0980392 0 0 0 0.4 0"/>
<feBlend mode="normal" in2="BackgroundImageFix" result="effect1_dropShadow_567_248"/>
<feBlend mode="normal" in="SourceGraphic" in2="effect1_dropShadow_567_248" result="shape"/>
</filter>
<linearGradient id="paint0_linear_567_248" x1="2065" y1="1366.76" x2="2065" y2="42" gradientUnits="userSpaceOnUse">
<stop stop-color="#C7A725" stop-opacity="0.5"/>
<stop offset="1" stop-opacity="0.5"/>
</linearGradient>
<clipPath id="clip0_567_248">
<rect x="65" y="42" width="4000" height="1324.76" rx="64.3087" fill="white"/>
</clipPath>
</defs>
</svg>
