<svg width="1004" height="660" viewBox="0 0 1004 660" fill="none" xmlns="http://www.w3.org/2000/svg">
<g filter="url(#filter0_f_125_7647)">
<g clip-path="url(#clip0_125_7647)">
<path d="M790.508 148.71C782.777 148.71 775.634 151.005 769.855 154.891C766.041 157.456 761.057 157.456 757.241 154.891C751.462 151.005 744.319 148.71 736.588 148.71C717.358 148.71 701.766 162.917 701.766 180.444C701.766 197.971 717.358 212.178 736.588 212.178C741.832 212.178 746.806 211.122 751.264 209.232C752.695 208.624 754.283 209.672 754.283 211.226V273.4H772.818V211.229C772.818 209.674 774.403 208.624 775.837 209.232C780.295 211.122 785.267 212.178 790.508 212.178C809.741 212.178 825.332 197.971 825.332 180.444C825.332 162.917 809.741 148.71 790.508 148.71ZM735.71 199.551C725.32 199.551 716.896 191.127 716.896 180.735C716.896 170.342 725.32 161.921 735.71 161.921C746.1 161.921 754.527 170.345 754.527 180.735C754.527 191.125 746.103 199.551 735.71 199.551ZM791.944 199.547C781.554 199.547 773.132 191.125 773.132 180.735C773.132 170.345 781.554 161.923 791.944 161.923C802.334 161.923 810.756 170.347 810.756 180.735C810.756 191.123 802.334 199.547 791.944 199.547Z" fill="#686868" stroke="#231F20" stroke-width="4.4475" stroke-miterlimit="10" stroke-linecap="round"/>
<path d="M928.895 205.573L921.834 204.797L880.65 303.503L907.729 319.724L928.895 205.573Z" fill="#AFAFAF" stroke="#231F20" stroke-width="3.33562" stroke-miterlimit="10" stroke-linecap="round"/>
<path d="M909.459 339.903C928.221 341.966 941.758 358.85 939.695 377.612C937.631 396.374 920.748 409.911 901.986 407.848L909.459 339.903Z" fill="#E52E66" stroke="#231F20" stroke-width="3.33562" stroke-miterlimit="10" stroke-linecap="round"/>
<path d="M926.446 375.185C929.633 374.494 931.401 370.168 930.394 365.521C929.387 360.875 925.986 357.668 922.798 358.359C919.611 359.05 917.843 363.377 918.85 368.024C919.857 372.67 923.258 375.876 926.446 375.185Z" fill="white"/>
<path d="M896.466 431.981L864.076 443.41L879.795 300.477L908.929 318.671C911.472 320.258 912.89 323.787 912.48 327.509L901.856 424.127C901.447 427.852 899.298 430.985 896.468 431.983L896.466 431.981Z" fill="#55476B" stroke="#231F20" stroke-width="4.4475" stroke-miterlimit="10" stroke-linecap="round"/>
<path d="M895.029 321.437L903.044 326.974C905.06 328.365 906.148 330.753 905.881 333.188L901.731 370.925C901.328 374.585 898.034 377.226 894.376 376.824L890.593 376.407C888.835 376.213 887.561 374.637 887.741 372.877L892.93 322.405C893.035 321.39 894.189 320.857 895.029 321.437Z" fill="white"/>
<path d="M923.391 229.47C934.297 229.47 943.138 220.629 943.138 209.724C943.138 198.818 934.297 189.977 923.391 189.977C912.486 189.977 903.645 198.818 903.645 209.724C903.645 220.629 912.486 229.47 923.391 229.47Z" fill="#E52E66" stroke="#231F20" stroke-width="3.33562" stroke-miterlimit="10" stroke-linecap="round"/>
<path d="M935.396 211.86C938.262 210.301 938.743 205.652 936.472 201.476C934.2 197.299 930.036 195.177 927.17 196.735C924.305 198.294 923.823 202.943 926.095 207.119C928.366 211.296 932.531 213.418 935.396 211.86Z" fill="white"/>
<path d="M598.851 205.538L605.915 204.776L646.881 303.572L619.767 319.733L598.851 205.538Z" fill="#AFAFAF" stroke="#231F20" stroke-width="3.33562" stroke-miterlimit="10" stroke-linecap="round"/>
<path d="M617.992 339.908C599.225 341.929 585.65 358.783 587.673 377.55C589.694 396.317 606.549 409.892 625.315 407.869L617.994 339.908H617.992Z" fill="#E52E66" stroke="#231F20" stroke-width="3.33562" stroke-miterlimit="10" stroke-linecap="round"/>
<path d="M608.53 367.986C609.547 363.342 607.789 359.011 604.603 358.313C601.417 357.615 598.009 360.813 596.991 365.457C595.973 370.101 597.731 374.432 600.918 375.131C604.104 375.829 607.512 372.63 608.53 367.986Z" fill="white"/>
<path d="M630.784 432.014L663.149 443.514L647.745 300.545L618.572 318.676C616.023 320.259 614.599 323.782 615.001 327.506L625.412 424.146C625.815 427.871 627.956 431.011 630.781 432.014H630.784Z" fill="#55476B" stroke="#231F20" stroke-width="4.4475" stroke-miterlimit="10" stroke-linecap="round"/>
<path d="M632.461 321.482L624.433 327.002C622.414 328.391 621.319 330.774 621.581 333.209L625.649 370.953C626.044 374.614 629.331 377.262 632.991 376.866L636.777 376.459C638.535 376.27 639.813 374.697 639.636 372.936L634.558 322.454C634.456 321.439 633.301 320.905 632.461 321.482Z" fill="white"/>
<path d="M604.346 229.444C615.251 229.444 624.092 220.604 624.092 209.698C624.092 198.792 615.251 189.952 604.346 189.952C593.44 189.952 584.599 198.792 584.599 209.698C584.599 220.604 593.44 229.444 604.346 229.444Z" fill="#E52E66" stroke="#231F20" stroke-width="3.33562" stroke-miterlimit="10" stroke-linecap="round"/>
<path d="M601.643 207.092C603.924 202.92 603.452 198.27 600.59 196.705C597.727 195.141 593.559 197.255 591.278 201.426C588.998 205.598 589.47 210.248 592.332 211.813C595.194 213.377 599.363 211.264 601.643 207.092Z" fill="white"/>
<path d="M866.093 267.986H660.927C652.356 267.986 645.407 274.934 645.407 283.506V488.672C645.407 497.243 652.356 504.192 660.927 504.192H866.093C874.664 504.192 881.613 497.243 881.613 488.672V283.506C881.613 274.934 874.664 267.986 866.093 267.986Z" fill="#EEF6FF" stroke="#231F20" stroke-width="4.4475" stroke-miterlimit="10"/>
<path d="M855.963 361.304V417.523C855.963 423.815 850.864 428.917 844.569 428.917H792.147L784.999 419.783H742.018L734.87 428.917H682.266C675.974 428.917 670.872 423.815 670.872 417.523V361.304C670.872 355.009 675.974 349.91 682.266 349.91H744.948L748.131 354.697H778.882L782.065 349.91H844.567C850.861 349.91 855.961 355.009 855.961 361.304H855.963Z" fill="black" stroke="#8DF2FF" stroke-width="4.4475" stroke-miterlimit="10"/>
<path d="M739.719 397.462L730.795 406.385L720.479 396.068L710.162 406.385L701.236 397.462L711.555 387.143L701.236 376.826L710.159 367.903L720.479 378.222L730.795 367.903L739.719 376.828L729.402 387.145L739.719 397.462Z" fill="#E51C42" stroke="black" stroke-width="3.33562" stroke-miterlimit="10" stroke-linecap="round"/>
<path d="M826.655 397.462L817.731 406.385L807.415 396.068L797.098 406.385L788.172 397.462L798.491 387.143L788.172 376.826L797.095 367.903L807.412 378.222L817.731 367.903L826.655 376.828L816.338 387.145L826.655 397.462Z" fill="#E51C42" stroke="black" stroke-width="3.33562" stroke-miterlimit="10" stroke-linecap="round"/>
<path d="M712.61 462.118L728.706 441.313H797.696L813.789 462.118" stroke="#231F20" stroke-width="4.4475" stroke-miterlimit="10"/>
<path d="M710.646 477.174C717.906 477.174 723.791 471.289 723.791 464.03C723.791 456.77 717.906 450.885 710.646 450.885C703.387 450.885 697.502 456.77 697.502 464.03C697.502 471.289 703.387 477.174 710.646 477.174Z" fill="#E51C42" stroke="#231F20" stroke-width="3.33562" stroke-miterlimit="10" stroke-linecap="round"/>
<path d="M816.077 477.174C823.337 477.174 829.222 471.289 829.222 464.03C829.222 456.77 823.337 450.885 816.077 450.885C808.818 450.885 802.933 456.77 802.933 464.03C802.933 471.289 808.818 477.174 816.077 477.174Z" fill="#E51C42" stroke="#231F20" stroke-width="3.33562" stroke-miterlimit="10" stroke-linecap="round"/>
</g>
</g>
<g filter="url(#filter1_f_125_7647)">
<g clip-path="url(#clip1_125_7647)">
<path d="M285.182 183.433C285.182 201.274 274.868 216.707 259.877 224.094C256.681 225.67 254.667 228.938 254.667 232.504V239.816H225.084V232.502C225.084 228.926 223.054 225.663 219.848 224.08C204.872 216.688 194.569 201.26 194.569 183.43C194.569 158.395 214.871 138.102 239.913 138.121C265.007 138.14 285.182 158.336 285.182 183.43V183.433Z" fill="#FFEA20" stroke="#231F20" stroke-width="4.4475" stroke-miterlimit="10" stroke-linecap="round"/>
<path d="M236.873 236.25C236.873 236.25 224.8 201.511 233.089 204.88C237.251 206.572 239.095 210.405 239.741 213.806C240.006 215.197 241.432 215.244 241.856 213.872C244.44 205.519 247.464 193.066 249.322 199.814C252.4 210.997 245.124 235.168 245.124 235.168" stroke="#231F20" stroke-width="2.44613" stroke-miterlimit="10" stroke-linecap="round"/>
<path d="M253.455 247.7H226.298C223.363 247.7 220.983 250.079 220.983 253.013C220.983 255.948 223.363 258.327 226.298 258.327H253.455C256.391 258.327 258.77 255.948 258.77 253.013C258.77 250.079 256.391 247.7 253.455 247.7Z" fill="#55476B" stroke="#231F20" stroke-width="4.4475" stroke-miterlimit="10" stroke-linecap="round"/>
<path d="M253.455 258.892H226.298C223.363 258.892 220.983 261.271 220.983 264.206C220.983 267.14 223.363 269.519 226.298 269.519H253.455C256.391 269.519 258.77 267.14 258.77 264.206C258.77 261.271 256.391 258.892 253.455 258.892Z" fill="#55476B" stroke="#231F20" stroke-width="4.4475" stroke-miterlimit="10" stroke-linecap="round"/>
<path d="M253.455 236.505H226.298C223.363 236.505 220.983 238.884 220.983 241.819C220.983 244.753 223.363 247.132 226.298 247.132H253.455C256.391 247.132 258.77 244.753 258.77 241.819C258.77 238.884 256.391 236.505 253.455 236.505Z" fill="#55476B" stroke="#231F20" stroke-width="4.4475" stroke-miterlimit="10" stroke-linecap="round"/>
<path d="M273.519 185.955C273.372 185.967 273.457 185.946 273.304 185.929C272.005 185.792 271.063 184.625 271.2 183.326C272.338 172.624 261.162 164.533 251.936 158.109C244.819 153.152 243.456 151.682 243.397 151.63C242.223 150.587 242.097 149.288 242.374 148.012C242.651 146.737 244.485 145.942 245.76 146.219C246.104 146.294 253.702 148.093 261.586 153.542C272.274 160.93 277.227 171.4 275.904 183.825C275.783 184.973 274.624 185.86 273.517 185.953L273.519 185.955Z" fill="white"/>
<path d="M341.965 449.581V307.433H344.358C358.37 307.433 371.92 312.483 382.511 321.65C393.114 330.828 400.033 343.514 401.997 357.375C403.012 364.55 403.511 371.355 403.518 378.177C403.528 385.174 403.026 392.152 401.988 399.511C400.026 413.401 393.112 426.117 382.516 435.317C371.922 444.515 358.361 449.579 344.331 449.579H341.965V449.581Z" fill="#8DF2FF"/>
<path d="M344.357 309.8C372.137 309.8 395.759 330.201 399.654 357.707C400.575 364.209 401.145 371.043 401.152 378.182C401.161 385.51 400.584 392.521 399.645 399.182C395.754 426.737 372.158 447.215 344.331 447.215V309.8H344.357ZM344.357 305.067H339.599V451.947H344.331C358.931 451.947 373.043 446.675 384.068 437.106C395.094 427.532 402.29 414.3 404.332 399.845C405.388 392.375 405.894 385.288 405.887 378.177C405.877 371.339 405.359 364.228 404.342 357.047C402.3 342.619 395.097 329.416 384.063 319.863C373.041 310.323 358.943 305.069 344.36 305.069L344.357 305.067Z" fill="#231F20"/>
<path d="M372.305 328.263C372.305 328.263 386.803 334.567 387.433 346.334L372.305 328.263Z" fill="#8DF2FF"/>
<path d="M372.305 328.263C372.305 328.263 386.803 334.567 387.433 346.334" stroke="white" stroke-width="5.55937" stroke-miterlimit="10" stroke-linecap="round"/>
<path d="M392.021 356.777L392.416 357.957" stroke="white" stroke-width="5.55937" stroke-miterlimit="10" stroke-linecap="round"/>
<path d="M133.499 449.581C119.47 449.581 105.909 444.515 95.3149 435.32C84.7189 426.12 77.8023 413.403 75.8431 399.513C74.8043 392.154 74.3026 385.176 74.3121 378.179C74.3216 371.355 74.8185 364.552 75.8336 357.378C77.7952 343.516 84.7165 330.831 95.3197 321.652C105.911 312.485 119.46 307.436 133.473 307.436H135.865V449.583H133.499V449.581Z" fill="#8DF2FF"/>
<path d="M133.499 309.799V447.215C105.672 447.215 82.0735 426.737 78.1857 399.182C77.2463 392.521 76.669 385.51 76.6784 378.182C76.6879 371.045 77.2558 364.209 78.1763 357.707C82.0688 330.201 105.693 309.799 133.473 309.799H133.499ZM138.232 305.067H133.473C118.892 305.067 104.792 310.32 93.7699 319.861C82.7337 329.413 75.5332 342.617 73.4911 357.044C72.4736 364.228 71.9554 371.336 71.9459 378.175C71.9365 385.285 72.4452 392.372 73.5006 399.842C75.5403 414.298 82.7384 427.53 93.7651 437.104C104.789 446.675 118.902 451.945 133.502 451.945H138.234V309.797V305.065L138.232 305.067Z" fill="#231F20"/>
<path d="M105.132 329.948C105.132 329.948 90.4992 335.932 89.6119 347.683L105.132 329.948Z" fill="#8DF2FF"/>
<path d="M105.132 329.948C105.132 329.948 90.4992 335.932 89.6119 347.683" stroke="white" stroke-width="5.55937" stroke-miterlimit="10" stroke-linecap="round"/>
<path d="M86.0507 357.278L85.5703 358.428" stroke="white" stroke-width="5.55937" stroke-miterlimit="10" stroke-linecap="round"/>
<path d="M342.42 267.986H137.254C128.682 267.986 121.734 274.934 121.734 283.506V488.672C121.734 497.243 128.682 504.192 137.254 504.192H342.42C350.991 504.192 357.94 497.243 357.94 488.672V283.506C357.94 274.934 350.991 267.986 342.42 267.986Z" fill="#EEF6FF" stroke="#231F20" stroke-width="4.4475" stroke-miterlimit="10"/>
<path d="M332.29 361.304V417.523C332.29 423.815 327.19 428.917 320.896 428.917H268.474L261.326 419.783H218.345L211.197 428.917H158.593C152.301 428.917 147.199 423.815 147.199 417.523V361.304C147.199 355.009 152.301 349.91 158.593 349.91H221.275L224.457 354.697H255.209L258.392 349.91H320.894C327.188 349.91 332.287 355.009 332.287 361.304H332.29Z" fill="black" stroke="#8DF2FF" stroke-width="4.4475" stroke-miterlimit="10"/>
<path d="M196.365 408.621C207.465 408.621 216.463 399.623 216.463 388.522C216.463 377.422 207.465 368.424 196.365 368.424C185.264 368.424 176.266 377.422 176.266 388.522C176.266 399.623 185.264 408.621 196.365 408.621Z" fill="#E51C42" stroke="black" stroke-width="4.4475" stroke-miterlimit="10" stroke-linecap="round"/>
<path d="M186.755 379.095C184.294 379.427 182.939 376.324 184.869 374.765C190.113 370.534 197.524 369.424 204.003 372.529C210.475 375.629 214.254 382.082 214.256 388.806C214.256 391.279 210.99 392.185 209.71 390.07C207.869 387.025 204.914 383.589 200.26 381.263C195.293 378.781 190.468 378.596 186.755 379.095Z" fill="#F2EBEB"/>
<path d="M283.244 408.621C294.344 408.621 303.343 399.623 303.343 388.522C303.343 377.422 294.344 368.424 283.244 368.424C272.144 368.424 263.145 377.422 263.145 388.522C263.145 399.623 272.144 408.621 283.244 408.621Z" fill="#E51C42" stroke="black" stroke-width="4.4475" stroke-miterlimit="10" stroke-linecap="round"/>
<path d="M273.637 379.095C271.176 379.427 269.82 376.324 271.751 374.765C276.995 370.534 284.406 369.425 290.885 372.529C297.356 375.629 301.135 382.082 301.138 388.806C301.138 391.279 297.872 392.185 296.592 390.07C294.751 387.025 291.796 383.589 287.141 381.263C282.174 378.781 277.35 378.596 273.637 379.095Z" fill="#F2EBEB"/>
<path d="M357.968 445.689V503.39C357.968 510.867 351.908 516.929 344.429 516.929H135.247C127.768 516.929 121.708 510.867 121.708 503.39V445.689H169.002C169.43 445.689 169.771 446.037 169.771 446.465C169.771 446.467 169.771 446.47 169.771 446.472C169.771 469.633 201.024 488.407 239.573 488.407C278.122 488.407 309.375 469.633 309.375 446.472C309.375 446.47 309.375 446.467 309.375 446.465C309.375 446.037 309.718 445.689 310.144 445.689H357.966H357.968Z" fill="#EEF6FF" stroke="#231F20" stroke-width="4.4475" stroke-miterlimit="10"/>
</g>
</g>
<g clip-path="url(#clip2_125_7647)">
<path d="M503.678 122.003V203.802" stroke="#231F20" stroke-width="10.3668" stroke-miterlimit="10" stroke-linecap="round"/>
<path d="M503.678 122.003C525.546 122.003 543.274 104.275 543.274 82.4073C543.274 60.5393 525.546 42.8117 503.678 42.8117C481.81 42.8117 464.082 60.5393 464.082 82.4073C464.082 104.275 481.81 122.003 503.678 122.003Z" fill="#E53C6D" stroke="#231F20" stroke-width="6.22009" stroke-miterlimit="10" stroke-linecap="round"/>
<path d="M528.904 68.278C530.849 62.7685 526.545 56.227 519.292 53.667C512.039 51.107 504.582 53.498 502.638 59.0074C500.693 64.5169 504.997 71.0584 512.25 73.6184C519.504 76.1784 526.96 73.7874 528.904 68.278Z" fill="white"/>
<path d="M503.678 249.245C533.818 249.245 558.251 233.5 558.251 214.078C558.251 194.655 533.818 178.911 503.678 178.911C473.538 178.911 449.105 194.655 449.105 214.078C449.105 233.5 473.538 249.245 503.678 249.245Z" fill="#686868" stroke="#231F20" stroke-width="8.29345" stroke-miterlimit="10" stroke-linecap="round"/>
<path d="M736.694 401.072C751.411 401.072 763.341 389.142 763.341 374.426C763.341 359.71 751.411 347.78 736.694 347.78C721.978 347.78 710.048 359.71 710.048 374.426C710.048 389.142 721.978 401.072 736.694 401.072Z" fill="#FFEA20" stroke="#231F20" stroke-width="6.22009" stroke-miterlimit="10" stroke-linecap="round"/>
<path d="M698.59 301.912C721.839 304.483 740.711 306.317 733.221 374.044C725.869 440.516 706.911 439.436 683.662 436.865L698.59 301.912Z" fill="#E51C42" stroke="#231F20" stroke-width="6.22009" stroke-miterlimit="10" stroke-linecap="round"/>
<path d="M667.15 257.871C692.667 260.693 713.397 262.58 701.458 370.531C689.74 476.477 668.879 475.792 643.362 472.97L667.154 257.875L667.15 257.871Z" fill="#E51C42" stroke="#231F20" stroke-width="6.22009" stroke-miterlimit="10" stroke-linecap="round"/>
<path d="M684.621 331.416C689.823 331.416 694.041 319.368 694.041 304.506C694.041 289.645 689.823 277.597 684.621 277.597C679.418 277.597 675.201 289.645 675.201 304.506C675.201 319.368 679.418 331.416 684.621 331.416Z" fill="white"/>
<path d="M718.306 352.027C721.661 352.027 724.38 344.258 724.38 334.675C724.38 325.092 721.661 317.324 718.306 317.324C714.951 317.324 712.231 325.092 712.231 334.675C712.231 344.258 714.951 352.027 718.306 352.027Z" fill="white"/>
<path d="M750.838 371.03C753.286 370.385 754.481 366.866 753.507 363.17C752.533 359.474 749.76 357 747.312 357.645C744.864 358.29 743.669 361.809 744.643 365.505C745.617 369.201 748.391 371.675 750.838 371.03Z" fill="white"/>
<path d="M682.029 258.194L741.34 62.0104" stroke="#231F20" stroke-width="10.3668" stroke-miterlimit="10" stroke-linecap="round"/>
<path d="M735.542 108.076C750.259 108.076 762.189 96.1458 762.189 81.4295C762.189 66.7132 750.259 54.7833 735.542 54.7833C720.826 54.7833 708.896 66.7132 708.896 81.4295C708.896 96.1458 720.826 108.076 735.542 108.076Z" fill="#FFEA20" stroke="#231F20" stroke-width="6.22009" stroke-miterlimit="10" stroke-linecap="round"/>
<path d="M750.586 80.6588C753.033 80.0139 754.228 76.4948 753.255 72.7987C752.281 69.1025 749.507 66.629 747.059 67.2739C744.612 67.9188 743.417 71.4378 744.391 75.134C745.364 78.8301 748.138 81.3037 750.586 80.6588Z" fill="white"/>
<path d="M271.484 401.207C286.2 401.207 298.13 389.277 298.13 374.561C298.13 359.845 286.2 347.915 271.484 347.915C256.767 347.915 244.837 359.845 244.837 374.561C244.837 389.277 256.767 401.207 271.484 401.207Z" fill="#FFEA20" stroke="#231F20" stroke-width="6.22009" stroke-miterlimit="10" stroke-linecap="round"/>
<path d="M308.959 301.718C285.734 304.49 266.878 306.488 274.954 374.149C282.882 440.556 301.831 439.311 325.056 436.539L308.962 301.721L308.959 301.718Z" fill="#E51C42" stroke="#231F20" stroke-width="6.22009" stroke-miterlimit="10" stroke-linecap="round"/>
<path d="M340.014 257.407C314.523 260.449 293.81 262.517 306.684 370.36C319.32 476.2 340.175 475.334 365.665 472.292L340.01 257.41L340.014 257.407Z" fill="#E51C42" stroke="#231F20" stroke-width="6.22009" stroke-miterlimit="10" stroke-linecap="round"/>
<path d="M323.164 331.102C328.367 331.059 332.485 318.977 332.363 304.116C332.241 289.255 327.925 277.242 322.723 277.284C317.521 277.327 313.402 289.409 313.524 304.27C313.646 319.132 317.962 331.145 323.164 331.102Z" fill="white"/>
<path d="M289.665 352.006C293.02 351.978 295.675 344.188 295.597 334.605C295.518 325.023 292.735 317.277 289.38 317.304C286.025 317.332 283.369 325.122 283.448 334.705C283.527 344.288 286.31 352.034 289.665 352.006Z" fill="white"/>
<path d="M263.473 365.754C264.415 362.049 263.189 358.541 260.736 357.917C258.283 357.294 255.531 359.792 254.589 363.496C253.648 367.201 254.873 370.709 257.327 371.333C259.78 371.956 262.532 369.458 263.473 365.754Z" fill="white"/>
<path d="M325.138 257.858L264.131 62.198" stroke="#231F20" stroke-width="10.3668" stroke-miterlimit="10" stroke-linecap="round"/>
<path d="M270.094 108.211C284.81 108.211 296.74 96.2808 296.74 81.5645C296.74 66.8482 284.81 54.9183 270.094 54.9183C255.378 54.9183 243.448 66.8482 243.448 81.5645C243.448 96.2808 255.378 108.211 270.094 108.211Z" fill="#FFEA20" stroke="#231F20" stroke-width="6.22009" stroke-miterlimit="10" stroke-linecap="round"/>
<path d="M261.187 75.3858C262.129 71.6813 260.903 68.1728 258.45 67.5493C255.997 66.9258 253.245 69.4234 252.303 73.1279C251.362 76.8324 252.587 80.341 255.041 80.9644C257.494 81.5879 260.246 79.0903 261.187 75.3858Z" fill="white"/>
<path d="M633.455 537.78H373.796C364.396 537.78 356.497 530.668 355.45 521.261L323.638 235.383C322.67 226.681 327.865 218.48 336.11 215.691L503.625 211.822L671.141 215.691C679.386 218.476 684.581 226.681 683.613 235.383L651.801 521.261C650.754 530.668 642.855 537.78 633.455 537.78Z" fill="#E4F9F0" stroke="#231F20" stroke-width="8.29345" stroke-miterlimit="10"/>
<path d="M376.43 433.273C374.033 433.273 371.761 432.291 370.036 430.513C368.288 428.709 367.326 426.296 367.326 423.718V331.837C367.326 326.569 371.406 322.282 376.42 322.282C377.059 322.282 377.704 322.355 378.34 322.496C419.446 331.692 461.597 336.358 503.623 336.358C545.648 336.358 587.799 331.696 628.905 322.496C629.538 322.355 630.183 322.282 630.825 322.282C635.839 322.282 639.919 326.569 639.919 331.837V423.718C639.919 428.986 635.836 433.273 630.815 433.273C629.989 433.273 629.156 433.154 628.346 432.917C587.999 421.136 546.323 415.124 504.469 415.042H503.619C461.479 415.042 419.516 421.054 378.893 432.917C378.083 433.154 377.253 433.273 376.427 433.273H376.43Z" fill="black"/>
<path d="M630.825 323.105C635.283 323.105 639.096 326.921 639.096 331.837V423.718C639.096 428.67 635.247 432.449 630.815 432.449C630.081 432.449 629.33 432.344 628.579 432.127C597.261 422.983 554.883 414.318 504.475 414.219C504.195 414.219 503.905 414.219 503.626 414.219C452.799 414.219 410.112 422.944 378.669 432.127C377.918 432.347 377.167 432.449 376.433 432.449C372.001 432.449 368.152 428.67 368.152 423.718V331.837C368.152 326.921 371.965 323.105 376.423 323.105C376.996 323.105 377.576 323.168 378.162 323.3C412.022 330.876 454.534 337.181 503.626 337.181C552.717 337.181 595.23 330.876 629.09 323.3C629.676 323.168 630.258 323.105 630.828 323.105M630.828 321.459C630.127 321.459 629.422 321.538 628.731 321.693C587.683 330.876 545.592 335.535 503.626 335.535C461.659 335.535 419.571 330.879 378.52 321.693C377.829 321.538 377.121 321.459 376.423 321.459C370.954 321.459 366.506 326.115 366.506 331.837V423.718C366.506 429.44 370.958 434.096 376.433 434.096C377.338 434.096 378.247 433.964 379.13 433.707C419.68 421.867 461.567 415.865 503.626 415.865H504.472C546.247 415.947 587.848 421.95 628.118 433.707C629.004 433.964 629.913 434.096 630.818 434.096C636.29 434.096 640.745 429.44 640.745 423.718V331.837C640.745 326.115 636.297 321.459 630.828 321.459Z" fill="black"/>
<path d="M376.416 435.696C373.967 435.696 371.573 434.856 369.558 433.246C366.703 430.964 365.067 427.491 365.067 423.718V331.837C365.067 328.206 366.605 324.814 369.288 322.529C371.965 320.248 375.432 319.372 378.803 320.126C419.759 329.289 461.754 333.935 503.625 333.935C545.496 333.935 587.492 329.289 628.447 320.126C631.815 319.372 635.282 320.248 637.962 322.529C640.646 324.814 642.184 328.206 642.184 331.837V423.718C642.184 427.491 640.547 430.964 637.693 433.246C634.838 435.531 631.216 436.262 627.759 435.251C587.604 423.527 546.125 417.544 504.471 417.462C504.195 417.462 503.908 417.462 503.628 417.462C461.685 417.462 419.93 423.444 379.495 435.251C378.477 435.548 377.443 435.696 376.419 435.696H376.416ZM376.433 326.352C375.254 326.352 374.105 326.773 373.17 327.573C371.942 328.62 371.237 330.174 371.237 331.84V423.721C371.237 425.45 371.988 427.04 373.295 428.087C374.602 429.134 376.261 429.47 377.848 429.005C419.094 416.965 461.705 410.91 504.485 410.979C546.691 411.061 588.723 417.123 629.409 429.002C630.996 429.466 632.655 429.131 633.962 428.084C635.269 427.037 636.02 425.446 636.02 423.718V331.837C636.02 330.174 635.315 328.617 634.087 327.57C632.862 326.526 631.275 326.125 629.735 326.47C588.358 335.729 545.931 340.421 503.632 340.421C461.333 340.421 418.906 335.726 377.529 326.47C377.167 326.388 376.801 326.349 376.443 326.349L376.433 326.352Z" fill="#E72929" stroke="#231F20" stroke-width="2.07336" stroke-miterlimit="10" stroke-linecap="round"/>
<path d="M551.394 402.708C539.152 402.708 529.136 393.002 525.399 388.83C524.909 388.284 524.751 387.517 524.975 386.776C525.274 385.791 526.196 384.942 527.273 384.665L613.954 362.286C614.221 362.217 614.488 362.181 614.741 362.181C615.683 362.181 616.473 362.652 616.855 363.439C617.267 364.288 617.099 365.319 616.404 366.191C607.972 376.829 588.899 395.659 555.878 402.264C554.406 402.557 552.895 402.708 551.387 402.708H551.394Z" fill="#E51C42"/>
<path d="M614.745 363.83C615.449 363.83 615.683 364.463 615.12 365.174C609.806 371.877 591.421 393.483 555.562 400.654C554.15 400.937 552.757 401.065 551.394 401.065C539.304 401.065 529.476 390.915 526.628 387.734C526.269 387.332 526.891 386.466 527.688 386.262L614.369 363.883C614.508 363.847 614.633 363.83 614.745 363.83ZM614.745 360.538C614.35 360.538 613.948 360.591 613.546 360.693L526.865 383.072C525.225 383.493 523.865 384.761 523.401 386.302C523.009 387.596 523.299 388.952 524.175 389.93C528.06 394.266 538.49 404.355 551.394 404.355C553.01 404.355 554.63 404.193 556.207 403.88C571.992 400.726 586.301 394.507 598.74 385.393C605.941 380.118 612.318 374.004 617.698 367.215C618.791 365.836 619.032 364.156 618.34 362.724C617.688 361.374 616.309 360.538 614.745 360.538Z" fill="black"/>
<path d="M561.011 391.089C567.185 391.089 572.189 389.759 572.189 388.119C572.189 386.479 567.185 385.149 561.011 385.149C554.838 385.149 549.833 386.479 549.833 388.119C549.833 389.759 554.838 391.089 561.011 391.089Z" fill="white"/>
<path d="M453.218 403.696C452.118 403.696 451.022 403.61 449.958 403.446C417.913 398.438 401.239 380.23 394.157 369.823C393.571 368.963 393.482 367.959 393.92 367.133C394.338 366.339 395.161 365.865 396.116 365.865C396.33 365.865 396.554 365.888 396.775 365.938L479.983 384.165C481.023 384.392 481.886 385.169 482.185 386.144C482.429 386.944 482.248 387.767 481.695 388.346C477.296 392.959 465.72 403.693 453.225 403.693L453.218 403.696Z" fill="#E51C42"/>
<path d="M396.116 367.511C396.212 367.511 396.314 367.521 396.423 367.548L479.631 385.775C480.394 385.943 480.908 386.789 480.503 387.214C477.191 390.691 465.624 402.05 453.221 402.05C452.224 402.05 451.22 401.977 450.215 401.819C415.536 396.4 399.965 375.423 395.52 368.894C395.036 368.183 395.379 367.511 396.12 367.511M396.12 364.219C394.566 364.219 393.166 365.039 392.468 366.362C391.741 367.735 391.866 369.375 392.801 370.748C397.344 377.422 402.971 383.355 409.53 388.386C420.836 397.058 434.355 402.672 449.712 405.072C450.857 405.25 452.039 405.342 453.225 405.342C466.359 405.342 478.347 394.253 482.89 389.486C483.858 388.468 484.184 387.043 483.763 385.666C483.292 384.132 481.949 382.914 480.338 382.561L397.13 364.334C396.795 364.262 396.455 364.222 396.12 364.222V364.219Z" fill="black"/>
<path d="M444.522 391.089C450.696 391.089 455.7 389.759 455.7 388.119C455.7 386.479 450.696 385.149 444.522 385.149C438.349 385.149 433.344 386.479 433.344 388.119C433.344 389.759 438.349 391.089 444.522 391.089Z" fill="white"/>
<path d="M432.8 480.961L455.196 452.013H551.192L573.584 480.961" stroke="#231F20" stroke-width="8.29345" stroke-miterlimit="10"/>
<path d="M430.067 501.911C440.169 501.911 448.357 493.723 448.357 483.621C448.357 473.52 440.169 465.332 430.067 465.332C419.966 465.332 411.778 473.52 411.778 483.621C411.778 493.723 419.966 501.911 430.067 501.911Z" fill="#E51C42" stroke="#231F20" stroke-width="6.22009" stroke-miterlimit="10" stroke-linecap="round"/>
<path d="M576.768 501.911C586.869 501.911 595.058 493.723 595.058 483.621C595.058 473.52 586.869 465.332 576.768 465.332C566.667 465.332 558.478 473.52 558.478 483.621C558.478 493.723 566.667 501.911 576.768 501.911Z" fill="#E51C42" stroke="#231F20" stroke-width="6.22009" stroke-miterlimit="10" stroke-linecap="round"/>
</g>
<defs>
<filter id="filter0_f_125_7647" x="523.924" y="114" width="479.25" height="479.25" filterUnits="userSpaceOnUse" color-interpolation-filters="sRGB">
<feFlood flood-opacity="0" result="BackgroundImageFix"/>
<feBlend mode="normal" in="SourceGraphic" in2="BackgroundImageFix" result="shape"/>
<feGaussianBlur stdDeviation="1.5" result="effect1_foregroundBlur_125_7647"/>
</filter>
<filter id="filter1_f_125_7647" x="0.250977" y="114" width="479.25" height="479.25" filterUnits="userSpaceOnUse" color-interpolation-filters="sRGB">
<feFlood flood-opacity="0" result="BackgroundImageFix"/>
<feBlend mode="normal" in="SourceGraphic" in2="BackgroundImageFix" result="shape"/>
<feGaussianBlur stdDeviation="1.5" result="effect1_foregroundBlur_125_7647"/>
</filter>
<clipPath id="clip0_125_7647">
<rect width="473.25" height="473.25" fill="white" transform="translate(526.924 117)"/>
</clipPath>
<clipPath id="clip1_125_7647">
<rect width="473.25" height="473.25" fill="white" transform="translate(3.25098 117)"/>
</clipPath>
<clipPath id="clip2_125_7647">
<rect width="658.5" height="658.5" fill="white" transform="translate(174.428 0.75)"/>
</clipPath>
</defs>
</svg>
