<svg width="819" height="818" viewBox="0 0 819 818" fill="none" xmlns="http://www.w3.org/2000/svg">
<g style="mix-blend-mode:darken" opacity="0.5" filter="url(#filter0_f_288_1374)">
<ellipse cx="408.014" cy="705.5" rx="240" ry="14.5" fill="black"/>
</g>
<path d="M487.366 114.827C487.366 145.665 469.537 172.34 443.627 185.109C438.102 187.833 434.621 193.482 434.621 199.645V212.283H383.488V199.641C383.488 193.461 379.979 187.821 374.437 185.085C348.551 172.308 330.743 145.641 330.743 114.823C330.743 71.5505 365.835 36.4746 409.12 36.5073C452.494 36.5401 487.366 71.4482 487.366 114.823V114.827Z" fill="#FFEA20" stroke="#231F20" stroke-width="8.18" stroke-miterlimit="10" stroke-linecap="round"/>
<path d="M403.864 206.12C403.864 206.12 382.997 146.074 397.324 151.899C404.519 154.823 407.705 161.449 408.821 167.326C409.279 169.731 411.746 169.813 412.478 167.441C416.944 153.003 422.171 131.477 425.382 143.142C430.703 162.471 418.126 204.251 418.126 204.251" stroke="#231F20" stroke-width="4.499" stroke-miterlimit="10" stroke-linecap="round"/>
<path d="M432.527 225.911H385.587C380.513 225.911 376.4 230.023 376.4 235.095C376.4 240.167 380.513 244.279 385.587 244.279H432.527C437.601 244.279 441.714 240.167 441.714 235.095C441.714 230.023 437.601 225.911 432.527 225.911Z" fill="#55476B" stroke="#231F20" stroke-width="8.18" stroke-miterlimit="10" stroke-linecap="round"/>
<path d="M432.527 245.257H385.587C380.513 245.257 376.4 249.369 376.4 254.441C376.4 259.513 380.513 263.625 385.587 263.625H432.527C437.601 263.625 441.714 259.513 441.714 254.441C441.714 249.369 437.601 245.257 432.527 245.257Z" fill="#55476B" stroke="#231F20" stroke-width="8.18" stroke-miterlimit="10" stroke-linecap="round"/>
<path d="M432.527 206.562H385.587C380.513 206.562 376.4 210.673 376.4 215.746C376.4 220.818 380.513 224.93 385.587 224.93H432.527C437.601 224.93 441.714 220.818 441.714 215.746C441.714 210.673 437.601 206.562 432.527 206.562Z" fill="#55476B" stroke="#231F20" stroke-width="8.18" stroke-miterlimit="10" stroke-linecap="round"/>
<path d="M467.206 119.187C466.953 119.207 467.1 119.17 466.834 119.142C464.589 118.904 462.961 116.888 463.198 114.643C465.165 96.1435 445.848 82.1598 429.901 71.0555C417.599 62.4869 415.243 59.947 415.14 59.8571C413.112 58.0534 412.895 55.808 413.374 53.6034C413.852 51.3989 417.022 50.0247 419.226 50.5032C419.819 50.6341 432.952 53.7425 446.58 63.1618C465.055 75.9308 473.615 94.029 471.329 115.506C471.12 117.489 469.116 119.023 467.202 119.183L467.206 119.187Z" fill="white"/>
<path d="M585.515 574.857V329.158H589.65C613.871 329.158 637.29 337.886 655.597 353.731C673.924 369.596 685.883 391.523 689.278 415.482C691.033 427.883 691.896 439.645 691.908 451.437C691.924 463.531 691.057 475.592 689.262 488.312C685.871 512.321 673.92 534.3 655.605 550.202C637.294 566.1 613.854 574.853 589.605 574.853H585.515V574.857Z" fill="#8DF2FF"/>
<path d="M589.649 333.248C637.666 333.248 678.496 368.512 685.229 416.055C686.82 427.294 687.805 439.106 687.817 451.445C687.834 464.112 686.836 476.231 685.212 487.744C678.488 535.372 637.703 570.767 589.604 570.767V333.248H589.649ZM589.649 325.068H581.424V578.947H589.604C614.84 578.947 639.232 569.834 658.288 553.294C677.347 536.746 689.785 513.875 693.314 488.889C695.139 475.977 696.014 463.728 696.002 451.437C695.985 439.617 695.09 427.327 693.331 414.913C689.801 389.977 677.351 367.154 658.28 350.643C639.228 334.152 614.86 325.072 589.653 325.072L589.649 325.068Z" fill="#231F20"/>
<path d="M637.957 365.163C637.957 365.163 663.016 376.059 664.104 396.398L637.957 365.163Z" fill="#8DF2FF"/>
<path d="M637.957 365.163C637.957 365.163 663.016 376.059 664.104 396.398" stroke="white" stroke-width="10.225" stroke-miterlimit="10" stroke-linecap="round"/>
<path d="M672.034 414.447L672.717 416.488" stroke="white" stroke-width="10.225" stroke-miterlimit="10" stroke-linecap="round"/>
<path d="M225.187 574.858C200.938 574.858 177.498 566.101 159.187 550.207C140.872 534.305 128.917 512.326 125.53 488.317C123.735 475.597 122.868 463.536 122.884 451.442C122.9 439.646 123.759 427.888 125.514 415.487C128.904 391.527 140.868 369.601 159.195 353.736C177.502 337.891 200.921 329.163 225.142 329.163H229.277V574.862H225.187V574.858Z" fill="#8DF2FF"/>
<path d="M225.187 333.249V570.767C177.088 570.767 136.299 535.372 129.579 487.744C127.955 476.231 126.957 464.112 126.974 451.445C126.99 439.11 127.972 427.294 129.563 416.055C136.291 368.513 177.125 333.249 225.142 333.249H225.187ZM233.367 325.069H225.142C199.939 325.069 175.567 334.148 156.516 350.639C137.44 367.151 124.994 389.973 121.464 414.909C119.706 427.327 118.81 439.613 118.794 451.433C118.777 463.724 119.657 475.973 121.481 488.885C125.006 513.871 137.448 536.742 156.508 553.291C175.563 569.835 199.956 578.943 225.191 578.943H233.371V333.244V325.064L233.367 325.069Z" fill="#231F20"/>
<path d="M176.155 368.074C176.155 368.074 150.863 378.418 149.329 398.729L176.155 368.074Z" fill="#8DF2FF"/>
<path d="M176.155 368.074C176.155 368.074 150.863 378.418 149.329 398.729" stroke="white" stroke-width="10.225" stroke-miterlimit="10" stroke-linecap="round"/>
<path d="M143.174 415.313L142.343 417.301" stroke="white" stroke-width="10.225" stroke-miterlimit="10" stroke-linecap="round"/>
<path d="M586.3 260.975H231.676C216.861 260.975 204.85 272.985 204.85 287.801V642.424C204.85 657.24 216.861 669.251 231.676 669.251H586.3C601.116 669.251 613.126 657.24 613.126 642.424V287.801C613.126 272.985 601.116 260.975 586.3 260.975Z" fill="#EEF6FF" stroke="#231F20" stroke-width="8.18" stroke-miterlimit="10"/>
<path d="M568.791 422.272V519.447C568.791 530.322 559.977 539.14 549.097 539.14H458.487L446.131 523.353H371.841L359.485 539.14H268.56C257.685 539.14 248.867 530.322 248.867 519.447V422.272C248.867 411.393 257.685 402.579 268.56 402.579H376.904L382.405 410.853H435.559L441.06 402.579H549.093C559.973 402.579 568.786 411.393 568.786 422.272H568.791Z" fill="black" stroke="#8DF2FF" stroke-width="8.18" stroke-miterlimit="10"/>
<path d="M333.848 504.059C353.035 504.059 368.589 488.505 368.589 469.319C368.589 450.132 353.035 434.578 333.848 434.578C314.662 434.578 299.108 450.132 299.108 469.319C299.108 488.505 314.662 504.059 333.848 504.059Z" fill="#E51C42" stroke="black" stroke-width="8.18" stroke-miterlimit="10" stroke-linecap="round"/>
<path d="M317.239 453.024C312.986 453.596 310.642 448.234 313.98 445.539C323.043 438.226 335.853 436.308 347.051 441.674C358.238 447.032 364.769 458.185 364.773 469.809C364.773 474.083 359.129 475.65 356.916 471.993C353.734 466.729 348.626 460.791 340.581 456.77C331.996 452.48 323.657 452.161 317.239 453.024Z" fill="#F2EBEB"/>
<path d="M484.017 504.059C503.204 504.059 518.758 488.505 518.758 469.319C518.758 450.132 503.204 434.578 484.017 434.578C464.831 434.578 449.277 450.132 449.277 469.319C449.277 488.505 464.831 504.059 484.017 504.059Z" fill="#E51C42" stroke="black" stroke-width="8.18" stroke-miterlimit="10" stroke-linecap="round"/>
<path d="M467.412 453.024C463.158 453.596 460.815 448.234 464.152 445.539C473.215 438.226 486.025 436.308 497.224 441.674C508.41 447.032 514.942 458.185 514.946 469.809C514.946 474.083 509.301 475.65 507.089 471.993C503.907 466.729 498.798 460.791 490.753 456.77C482.168 452.48 473.829 452.161 467.412 453.024Z" fill="#F2EBEB"/>
<path d="M613.175 568.13V667.865C613.175 680.789 602.701 691.268 589.772 691.268H228.208C215.28 691.268 204.805 680.789 204.805 667.865V568.13H286.552C287.292 568.13 287.881 568.731 287.881 569.471C287.881 569.476 287.881 569.48 287.881 569.484C287.881 609.517 341.902 641.967 408.532 641.967C475.162 641.967 529.183 609.517 529.183 569.484C529.183 569.48 529.183 569.476 529.183 569.471C529.183 568.731 529.776 568.13 530.512 568.13H613.171H613.175Z" fill="#EEF6FF" stroke="#231F20" stroke-width="8.18" stroke-miterlimit="10"/>
<defs>
<filter id="filter0_f_288_1374" x="143.014" y="666" width="530" height="79" filterUnits="userSpaceOnUse" color-interpolation-filters="sRGB">
<feFlood flood-opacity="0" result="BackgroundImageFix"/>
<feBlend mode="normal" in="SourceGraphic" in2="BackgroundImageFix" result="shape"/>
<feGaussianBlur stdDeviation="12.5" result="effect1_foregroundBlur_288_1374"/>
</filter>
</defs>
</svg>
