<svg width="1920" height="1080" viewBox="0 0 1920 1080" fill="none" xmlns="http://www.w3.org/2000/svg">
<rect width="1920" height="1080" fill="#181818"/>
<rect y="1020" width="60" height="60" fill="#E5BD19"/>
<rect y="966" width="54" height="54" fill="#E5BD19"/>
<rect y="912" width="54" height="54" fill="#E5BD19"/>
<rect x="162" y="912" width="54" height="54" fill="#E5BD19"/>
<rect width="54" height="54" transform="matrix(-4.37114e-08 -1 -1 4.37114e-08 741.5 926.5)" fill="#E5BD19"/>
<rect width="54" height="54" transform="matrix(-4.37114e-08 -1 -1 4.37114e-08 988 950)" fill="#E5BD19"/>
<rect x="1540" y="925" width="54" height="54" transform="rotate(-90 1540 925)" fill="#E5BD19"/>
<rect width="54" height="54" transform="matrix(-4.37114e-08 -1 -1 4.37114e-08 594 917)" fill="#E5BD19"/>
<rect x="1647" y="833" width="54" height="54" transform="rotate(-90 1647 833)" fill="#E5BD19"/>
<rect width="54" height="54" transform="matrix(-4.37114e-08 -1 -1 4.37114e-08 609 1020)" fill="#E5BD19"/>
<rect x="216" y="966" width="54" height="54" fill="#E5BD19"/>
<rect y="869" width="43" height="43" fill="#E5BD19"/>
<rect width="43" height="43" transform="matrix(-4.37114e-08 -1 -1 4.37114e-08 784.5 968.5)" fill="#E5BD19"/>
<rect y="798" width="26" height="26" fill="#E5BD19"/>
<rect x="17" y="844" width="25.92" height="25.92" fill="#E5BD19"/>
<rect width="26" height="26" transform="matrix(-4.37114e-08 -1 -1 4.37114e-08 836.5 968.5)" fill="#E5BD19"/>
<rect width="26" height="26" transform="matrix(-4.37114e-08 -1 -1 4.37114e-08 853 910)" fill="#E5BD19"/>
<rect width="26" height="26" transform="matrix(-4.37114e-08 -1 -1 4.37114e-08 611 837)" fill="#E5BD19"/>
<rect width="26" height="26" transform="matrix(-4.37114e-08 -1 -1 4.37114e-08 1099.5 933.5)" fill="#E5BD19"/>
<rect width="26" height="26" transform="matrix(-4.37114e-08 -1 -1 4.37114e-08 857.5 860.5)" fill="#E5BD19"/>
<rect x="1388" y="910" width="26" height="26" transform="rotate(-90 1388 910)" fill="#E5BD19"/>
<rect x="1146" y="837" width="26" height="26" transform="rotate(-90 1146 837)" fill="#E5BD19"/>
<rect x="146" y="843" width="26" height="26" fill="#E5BD19"/>
<rect width="26" height="26" transform="matrix(-4.37114e-08 -1 -1 4.37114e-08 810.5 942.5)" fill="#E5BD19"/>
<rect width="26" height="26" transform="matrix(-4.37114e-08 -1 -1 4.37114e-08 568.5 869.5)" fill="#E5BD19"/>
<rect width="26" height="26" transform="matrix(-4.37114e-08 -1 -1 4.37114e-08 1057 966)" fill="#E5BD19"/>
<rect x="405" y="832" width="26" height="26" fill="#E5BD19"/>
<rect x="170" y="768" width="26" height="26" fill="#E5BD19"/>
<rect width="26" height="26" transform="matrix(-1 0 0 1 1836 832)" fill="#E5BD19"/>
<rect x="486" y="943" width="26" height="26" fill="#E5BD19"/>
<rect width="26" height="26" transform="matrix(-1 0 0 1 1296 832)" fill="#E5BD19"/>
<rect width="26" height="26" transform="matrix(-1 0 0 1 1054 759)" fill="#E5BD19"/>
<rect width="26" height="26" transform="matrix(-1 0 0 1 1453 941)" fill="#E5BD19"/>
<rect x="431" y="806" width="26" height="26" fill="#E5BD19"/>
<rect x="196" y="742" width="26" height="26" fill="#E5BD19"/>
<rect width="26" height="26" transform="matrix(-1 0 0 1 1810 806)" fill="#E5BD19"/>
<rect x="512" y="917" width="26" height="26" fill="#E5BD19"/>
<rect x="270" y="844" width="26" height="26" fill="#E5BD19"/>
<rect width="26" height="26" transform="matrix(-1 0 0 1 1270 806)" fill="#E5BD19"/>
<rect width="26" height="26" transform="matrix(-1 0 0 1 1028 733)" fill="#E5BD19"/>
<rect x="431" y="858" width="26" height="26" fill="#E5BD19"/>
<rect x="196" y="794" width="26" height="26" fill="#E5BD19"/>
<rect width="26" height="26" transform="matrix(-1 0 0 1 1810 858)" fill="#E5BD19"/>
<rect width="26" height="26" transform="matrix(-1 0 0 1 1568 785)" fill="#E5BD19"/>
<rect width="26" height="26" transform="matrix(-1 0 0 1 1766 910)" fill="#E5BD19"/>
<rect width="26" height="26" transform="matrix(-1 0 0 1 1524 837)" fill="#E5BD19"/>
<rect width="26" height="26" transform="matrix(-1 0 0 1 1650 871)" fill="#E5BD19"/>
<rect width="26" height="26" transform="matrix(-1 0 0 1 1408 798)" fill="#E5BD19"/>
<rect x="512" y="969" width="26" height="26" fill="#E5BD19"/>
<rect width="26" height="26" transform="matrix(-1 0 0 1 1270 858)" fill="#E5BD19"/>
<rect width="26" height="26" transform="matrix(-1 0 0 1 1028 785)" fill="#E5BD19"/>
<rect x="108" y="966" width="54" height="54" fill="#E5BD19"/>
<rect x="324" y="966" width="54" height="54" fill="#E5BD19"/>
<rect x="378" y="966" width="54" height="54" fill="#E5BD19"/>
<rect x="405" y="912" width="54" height="54" fill="#E5BD19"/>
<rect width="54" height="54" transform="matrix(-1 0 0 1 1836 912)" fill="#E5BD19"/>
<rect width="54" height="54" transform="matrix(-1 0 0 1 1296 912)" fill="#E5BD19"/>
<rect x="351" y="858" width="54" height="54" fill="#E5BD19"/>
<rect width="54" height="54" transform="matrix(-1 0 0 1 1890 858)" fill="#E5BD19"/>
<rect width="54" height="54" transform="matrix(-1 0 0 1 1350 858)" fill="#E5BD19"/>
<rect x="432" y="966" width="54" height="54" fill="#E5BD19"/>
<rect x="648" y="966" width="54" height="54" fill="#E5BD19"/>
<rect x="702" y="966" width="54" height="54" fill="#E5BD19"/>
<rect x="756" y="966" width="54" height="54" fill="#E5BD19"/>
<rect x="864" y="966" width="54" height="54" fill="#E5BD19"/>
<rect x="972" y="966" width="54" height="54" fill="#E5BD19"/>
<rect x="1026" y="966" width="54" height="54" fill="#E5BD19"/>
<rect x="1080" y="966" width="54" height="54" fill="#E5BD19"/>
<rect x="1134" y="966" width="54" height="54" fill="#E5BD19"/>
<rect x="1188" y="966" width="54" height="54" fill="#E5BD19"/>
<rect x="1296" y="966" width="54" height="54" fill="#E5BD19"/>
<rect x="1350" y="966" width="54" height="54" fill="#E5BD19"/>
<rect x="1404" y="966" width="54" height="54" fill="#E5BD19"/>
<rect x="1458" y="966" width="54" height="54" fill="#E5BD19"/>
<rect x="1512" y="966" width="54" height="54" fill="#E5BD19"/>
<rect x="1566" y="966" width="54" height="54" fill="#E5BD19"/>
<rect x="1620" y="966" width="54" height="54" fill="#E5BD19"/>
<rect x="1674" y="966" width="54" height="54" fill="#E5BD19"/>
<rect x="1728" y="966" width="54" height="54" fill="#E5BD19"/>
<rect x="1866" y="966" width="54" height="54" fill="#E5BD19"/>
<rect x="60" y="1020" width="60" height="60" fill="#E5BD19"/>
<rect x="120" y="1020" width="60" height="60" fill="#E5BD19"/>
<rect x="300" y="1020" width="60" height="60" fill="#E5BD19"/>
<rect x="360" y="1020" width="60" height="60" fill="#E5BD19"/>
<rect x="480" y="1020" width="60" height="60" fill="#E5BD19"/>
<rect x="600" y="1020" width="60" height="60" fill="#E5BD19"/>
<rect x="660" y="1020" width="60" height="60" fill="#E5BD19"/>
<rect x="720" y="1020" width="60" height="60" fill="#E5BD19"/>
<rect x="780" y="1020" width="60" height="60" fill="#E5BD19"/>
<rect x="840" y="1020" width="60" height="60" fill="#E5BD19"/>
<rect x="900" y="1020" width="60" height="60" fill="#E5BD19"/>
<rect x="960" y="1020" width="60" height="60" fill="#E5BD19"/>
<rect x="1020" y="1020" width="60" height="60" fill="#E5BD19"/>
<rect x="1080" y="1020" width="60" height="60" fill="#E5BD19"/>
<rect x="1140" y="1020" width="60" height="60" fill="#E5BD19"/>
<rect x="1200" y="1020" width="60" height="60" fill="#E5BD19"/>
<rect x="1260" y="1020" width="60" height="60" fill="#E5BD19"/>
<rect x="1320" y="1020" width="60" height="60" fill="#E5BD19"/>
<rect x="1380" y="1020" width="60" height="60" fill="#E5BD19"/>
<rect x="1440" y="1020" width="60" height="60" fill="#E5BD19"/>
<rect x="1500" y="1020" width="60" height="60" fill="#E5BD19"/>
<rect x="1560" y="1020" width="60" height="60" fill="#E5BD19"/>
<rect x="1620" y="1020" width="60" height="60" fill="#E5BD19"/>
<rect x="1680" y="1020" width="60" height="60" fill="#E5BD19"/>
<rect x="1740" y="1020" width="60" height="60" fill="#E5BD19"/>
<rect x="1800" y="1020" width="60" height="60" fill="#E5BD19"/>
<rect x="1860" y="1020" width="60" height="60" fill="#E5BD19"/>
</svg>
