<svg width="990" height="337" viewBox="0 0 990 337" fill="none" xmlns="http://www.w3.org/2000/svg">
<path fill-rule="evenodd" clip-rule="evenodd" d="M184.971 0.608398L175.171 17.5611C174.952 17.9409 174.732 18.3204 174.513 18.7005L0 320.608H369.941L184.971 0.608398ZM123.502 152.317L39.4782 297.679C83.1804 296.634 122.482 291.55 151.822 276.777C161.178 272.066 169.442 266.406 176.497 259.608C157.835 246.868 144.393 232.206 135.643 215.81C125.148 196.146 121.847 174.823 123.459 152.892C123.473 152.7 123.487 152.509 123.502 152.317ZM160.319 297.904H330.296C307.145 259.935 282.053 226.745 253.877 206.965C245.246 200.906 236.428 196.181 227.37 192.956C225.82 216.912 219.881 236.974 209.996 253.585C198.358 273.145 181.71 287.147 162.033 297.055C161.464 297.342 160.893 297.625 160.319 297.904ZM267.547 188.835L185.102 46.2044C163.975 84.8908 148.523 121.746 146.112 154.542C145.524 162.54 145.719 170.23 146.781 177.61C167.036 168.163 186.497 164.326 205.181 165.442C227.826 166.795 248.365 175.366 266.929 188.398C267.135 188.543 267.341 188.689 267.547 188.835ZM155.687 205.124C154.748 203.364 153.879 201.581 153.08 199.776C171.69 190.485 188.509 187.18 203.837 188.096C204.19 188.117 204.543 188.14 204.895 188.166C203.889 210.655 198.685 228.098 190.62 241.748C173.765 230.504 162.629 218.132 155.687 205.124Z" fill="#1F267B"/>
<path d="M796.057 79.6457C790.063 79.6457 785.037 77.6157 780.977 73.5557C776.917 69.4957 774.887 64.469 774.887 58.4757C774.887 52.4823 776.917 47.4557 780.977 43.3957C785.037 39.3357 790.063 37.3057 796.057 37.3057C801.857 37.3057 806.787 39.3357 810.847 43.3957C814.907 47.4557 816.937 52.4823 816.937 58.4757C816.937 64.469 814.907 69.4957 810.847 73.5557C806.787 77.6157 801.857 79.6457 796.057 79.6457ZM812.297 100.816V260.606H779.237V100.816H812.297Z" fill="#1F267B"/>
<path d="M621.554 124.306C627.161 116.959 634.797 110.773 644.464 105.746C654.131 100.719 665.054 98.2061 677.234 98.2061C691.154 98.2061 703.817 101.686 715.224 108.646C726.824 115.413 735.911 124.983 742.484 137.356C749.057 149.729 752.344 163.939 752.344 179.986C752.344 196.033 749.057 210.436 742.484 223.196C735.911 235.763 726.824 245.623 715.224 252.776C703.817 259.736 691.154 263.216 677.234 263.216C665.054 263.216 654.227 260.799 644.754 255.966C635.281 250.939 627.547 244.753 621.554 237.406V336.586H588.494V100.816H621.554V124.306ZM718.704 179.986C718.704 168.966 716.384 159.493 711.744 151.566C707.297 143.446 701.304 137.356 693.764 133.296C686.417 129.043 678.491 126.916 669.984 126.916C661.671 126.916 653.744 129.043 646.204 133.296C638.857 137.549 632.864 143.736 628.224 151.856C623.777 159.976 621.554 169.546 621.554 180.566C621.554 191.586 623.777 201.253 628.224 209.566C632.864 217.686 638.857 223.873 646.204 228.126C653.744 232.379 661.671 234.506 669.984 234.506C678.491 234.506 686.417 232.379 693.764 228.126C701.304 223.679 707.297 217.299 711.744 208.986C716.384 200.673 718.704 191.006 718.704 179.986Z" fill="#1F267B"/>
<path d="M386.73 179.986C386.73 163.939 390.017 149.729 396.59 137.356C403.357 124.983 412.444 115.413 423.85 108.646C435.45 101.686 448.21 98.2061 462.13 98.2061C474.697 98.2061 485.62 100.719 494.9 105.746C504.374 110.579 511.914 116.669 517.52 124.016V100.816H550.87V260.606H517.52V236.826C511.914 244.366 504.277 250.649 494.61 255.676C484.944 260.703 473.924 263.216 461.55 263.216C447.824 263.216 435.257 259.736 423.85 252.776C412.444 245.623 403.357 235.763 396.59 223.196C390.017 210.436 386.73 196.033 386.73 179.986ZM517.52 180.566C517.52 169.546 515.2 159.976 510.56 151.856C506.114 143.736 500.217 137.549 492.87 133.296C485.524 129.043 477.597 126.916 469.09 126.916C460.584 126.916 452.657 129.043 445.31 133.296C437.964 137.356 431.97 143.446 427.33 151.566C422.884 159.493 420.66 168.966 420.66 179.986C420.66 191.006 422.884 200.673 427.33 208.986C431.97 217.299 437.964 223.679 445.31 228.126C452.85 232.379 460.777 234.506 469.09 234.506C477.597 234.506 485.524 232.379 492.87 228.126C500.217 223.873 506.114 217.686 510.56 209.566C515.2 201.253 517.52 191.586 517.52 180.566Z" fill="#1F267B"/>
<path d="M851.9 101.396C853.06 83.4156 859.923 69.399 872.49 59.3456C885.25 49.2923 901.49 44.2656 921.21 44.2656C934.743 44.2656 946.44 46.6823 956.3 51.5156C966.16 56.349 973.603 62.9223 978.63 71.2356C983.657 79.549 986.17 88.9256 986.17 99.3656C986.17 111.352 982.98 121.599 976.6 130.106C970.22 138.612 962.583 144.316 953.69 147.216V148.376C965.097 151.856 973.99 158.236 980.37 167.516C986.75 176.602 989.94 188.299 989.94 202.606C989.94 214.012 987.33 224.162 982.11 233.056C976.89 241.949 969.157 249.006 958.91 254.226C948.663 259.252 936.387 261.766 922.08 261.766C901.2 261.766 883.993 256.449 870.46 245.816C857.12 234.989 849.967 219.522 849 199.416H880.9C881.673 209.662 885.637 218.072 892.79 224.646C899.943 231.026 909.61 234.216 921.79 234.216C933.583 234.216 942.67 231.026 949.05 224.646C955.43 218.072 958.62 209.662 958.62 199.416C958.62 185.882 954.27 176.312 945.57 170.706C937.063 164.906 923.917 162.006 906.13 162.006H898.59V134.746H906.42C922.08 134.552 933.97 131.942 942.09 126.916C950.403 121.889 954.56 113.962 954.56 103.136C954.56 93.8556 951.563 86.509 945.57 81.0956C939.577 75.489 931.07 72.6856 920.05 72.6856C909.223 72.6856 900.813 75.489 894.82 81.0956C888.827 86.509 885.25 93.2756 884.09 101.396H851.9Z" fill="#1F267B"/>
</svg>
