<svg width="1284" height="452" viewBox="0 0 1284 452" fill="none" xmlns="http://www.w3.org/2000/svg">
<g filter="url(#filter0_d_567_248)">
<g clip-path="url(#clip0_567_248)">
<g style="mix-blend-mode:overlay">
<rect x="20" y="13" width="1244" height="412" fill="#1C1A1A"/>
<rect x="20" y="13" width="1244" height="412" fill="url(#paint0_linear_567_248)" fill-opacity="0.2"/>
</g>
<path d="M1069.55 96.7276C1069.55 109.546 1062.14 120.633 1051.37 125.94C1049.07 127.073 1047.63 129.42 1047.63 131.982V137.235H1026.37V131.981C1026.37 129.412 1024.91 127.068 1022.61 125.93C1011.85 120.619 1004.45 109.535 1004.45 96.7259C1004.45 78.7399 1019.04 64.1607 1037.03 64.1743C1055.06 64.1879 1069.55 78.6974 1069.55 96.7259V96.7276Z" fill="#FFEA20" stroke="#231F20" stroke-width="3.4" stroke-miterlimit="10" stroke-linecap="round"/>
<path d="M1034.84 134.673C1034.84 134.673 1026.17 109.716 1032.12 112.137C1035.11 113.352 1036.44 116.106 1036.9 118.549C1037.09 119.549 1038.12 119.583 1038.42 118.597C1040.28 112.596 1042.45 103.648 1043.79 108.497C1046 116.531 1040.77 133.897 1040.77 133.897" stroke="#231F20" stroke-width="1.87" stroke-miterlimit="10" stroke-linecap="round"/>
<path d="M1046.76 142.899H1027.24C1025.14 142.899 1023.43 144.609 1023.43 146.717C1023.43 148.825 1025.14 150.534 1027.24 150.534H1046.76C1048.86 150.534 1050.57 148.825 1050.57 146.717C1050.57 144.609 1048.86 142.899 1046.76 142.899Z" fill="#55476B" stroke="#231F20" stroke-width="3.4" stroke-miterlimit="10" stroke-linecap="round"/>
<path d="M1046.76 150.94H1027.24C1025.14 150.94 1023.43 152.65 1023.43 154.758C1023.43 156.866 1025.14 158.575 1027.24 158.575H1046.76C1048.86 158.575 1050.57 156.866 1050.57 154.758C1050.57 152.65 1048.86 150.94 1046.76 150.94Z" fill="#55476B" stroke="#231F20" stroke-width="3.4" stroke-miterlimit="10" stroke-linecap="round"/>
<path d="M1046.76 134.857H1027.24C1025.14 134.857 1023.43 136.566 1023.43 138.674C1023.43 140.783 1025.14 142.492 1027.24 142.492H1046.76C1048.86 142.492 1050.57 140.783 1050.57 138.674C1050.57 136.566 1048.86 134.857 1046.76 134.857Z" fill="#55476B" stroke="#231F20" stroke-width="3.4" stroke-miterlimit="10" stroke-linecap="round"/>
<path d="M1061.17 98.5397C1061.06 98.5482 1061.13 98.5329 1061.02 98.521C1060.08 98.4224 1059.41 97.5843 1059.5 96.651C1060.32 88.9619 1052.29 83.1496 1045.66 78.5341C1040.55 74.9726 1039.57 73.9169 1039.53 73.8795C1038.69 73.1298 1038.6 72.1965 1038.79 71.2802C1038.99 70.3639 1040.31 69.7927 1041.23 69.9916C1041.47 70.046 1046.93 71.338 1052.6 75.2531C1060.28 80.5605 1063.83 88.083 1062.88 97.0097C1062.8 97.8342 1061.96 98.4717 1061.17 98.538L1061.17 98.5397Z" fill="white"/>
<path d="M1110.34 287.939V185.814H1112.06C1122.13 185.814 1131.87 189.442 1139.47 196.028C1147.09 202.622 1152.06 211.736 1153.47 221.695C1154.2 226.849 1154.56 231.738 1154.57 236.639C1154.57 241.666 1154.21 246.68 1153.47 251.967C1152.06 261.946 1147.09 271.081 1139.48 277.691C1131.87 284.299 1122.12 287.937 1112.04 287.937H1110.34V287.939Z" fill="#8DF2FF"/>
<path d="M1112.06 187.514C1132.02 187.514 1148.99 202.172 1151.79 221.932C1152.45 226.604 1152.86 231.514 1152.87 236.643C1152.87 241.907 1152.46 246.945 1151.78 251.73C1148.99 271.527 1132.04 286.238 1112.04 286.238V187.514H1112.06ZM1112.06 184.114H1108.64V289.638H1112.04C1122.53 289.638 1132.67 285.851 1140.59 278.976C1148.51 272.098 1153.68 262.591 1155.15 252.206C1155.91 246.839 1156.27 241.748 1156.27 236.639C1156.26 231.726 1155.89 226.618 1155.16 221.458C1153.69 211.093 1148.52 201.607 1140.59 194.744C1132.67 187.89 1122.54 184.116 1112.06 184.116L1112.06 184.114Z" fill="#231F20"/>
<path d="M1132.14 200.779C1132.14 200.779 1142.56 205.308 1143.01 213.762Z" fill="#8DF2FF"/>
<path d="M1132.14 200.779C1132.14 200.779 1142.56 205.308 1143.01 213.762" stroke="white" stroke-width="4.25" stroke-miterlimit="10" stroke-linecap="round"/>
<path d="M1146.31 221.265L1146.59 222.113" stroke="white" stroke-width="4.25" stroke-miterlimit="10" stroke-linecap="round"/>
<path d="M960.575 287.938C950.496 287.938 940.753 284.299 933.143 277.692C925.53 271.083 920.561 261.947 919.153 251.968C918.407 246.681 918.047 241.668 918.053 236.641C918.06 231.738 918.417 226.851 919.146 221.696C920.556 211.738 925.528 202.624 933.146 196.03C940.755 189.444 950.489 185.816 960.557 185.816H962.275V287.94H960.575V287.938Z" fill="#8DF2FF"/>
<path d="M960.575 187.514V286.238C940.583 286.238 923.629 271.526 920.836 251.73C920.161 246.944 919.746 241.907 919.753 236.642C919.76 231.515 920.168 226.604 920.829 221.932C923.626 202.171 940.599 187.514 960.557 187.514H960.575ZM963.975 184.114H960.557C950.081 184.114 939.951 187.888 932.032 194.742C924.103 201.605 918.93 211.091 917.463 221.456C916.732 226.617 916.36 231.724 916.353 236.637C916.346 241.746 916.712 246.837 917.47 252.204C918.935 262.589 924.107 272.096 932.029 278.974C939.949 285.851 950.088 289.636 960.577 289.636H963.977V187.512V184.112L963.975 184.114Z" fill="#231F20"/>
<path d="M940.196 201.99C940.196 201.99 929.683 206.289 929.045 214.731Z" fill="#8DF2FF"/>
<path d="M940.196 201.99C940.196 201.99 929.683 206.289 929.045 214.731" stroke="white" stroke-width="4.25" stroke-miterlimit="10" stroke-linecap="round"/>
<path d="M926.487 221.625L926.142 222.451" stroke="white" stroke-width="4.25" stroke-miterlimit="10" stroke-linecap="round"/>
<path d="M1110.67 157.474H963.273C957.115 157.474 952.123 162.466 952.123 168.624V316.022C952.123 322.181 957.115 327.173 963.273 327.173H1110.67C1116.83 327.173 1121.82 322.181 1121.82 316.022V168.624C1121.82 162.466 1116.83 157.474 1110.67 157.474Z" fill="#EEF6FF" stroke="#231F20" stroke-width="3.4" stroke-miterlimit="10"/>
<path d="M1103.39 224.517V264.907C1103.39 269.427 1099.73 273.092 1095.21 273.092H1057.55L1052.41 266.53H1021.53L1016.4 273.092H978.603C974.083 273.092 970.418 269.427 970.418 264.907V224.517C970.418 219.995 974.083 216.331 978.603 216.331H1023.64L1025.92 219.77H1048.02L1050.3 216.331H1095.21C1099.73 216.331 1103.39 219.995 1103.39 224.517H1103.39Z" fill="black" stroke="#8DF2FF" stroke-width="3.4" stroke-miterlimit="10"/>
<path d="M1005.74 258.511C1013.72 258.511 1020.18 252.047 1020.18 244.072C1020.18 236.097 1013.72 229.632 1005.74 229.632C997.766 229.632 991.301 236.097 991.301 244.072C991.301 252.047 997.766 258.511 1005.74 258.511Z" fill="#E51C42" stroke="black" stroke-width="3.4" stroke-miterlimit="10" stroke-linecap="round"/>
<path d="M998.837 237.299C997.069 237.537 996.095 235.308 997.482 234.188C1001.25 231.148 1006.57 230.351 1011.23 232.581C1015.88 234.808 1018.59 239.444 1018.59 244.276C1018.59 246.052 1016.25 246.703 1015.33 245.183C1014.01 242.996 1011.88 240.527 1008.54 238.856C1004.97 237.073 1001.5 236.94 998.837 237.299Z" fill="#F2EBEB"/>
<path d="M1068.16 258.511C1076.13 258.511 1082.6 252.047 1082.6 244.072C1082.6 236.097 1076.13 229.632 1068.16 229.632C1060.18 229.632 1053.72 236.097 1053.72 244.072C1053.72 252.047 1060.18 258.511 1068.16 258.511Z" fill="#E51C42" stroke="black" stroke-width="3.4" stroke-miterlimit="10" stroke-linecap="round"/>
<path d="M1061.26 237.299C1059.49 237.537 1058.51 235.308 1059.9 234.188C1063.67 231.148 1068.99 230.351 1073.65 232.581C1078.3 234.808 1081.01 239.444 1081.01 244.276C1081.01 246.052 1078.67 246.703 1077.75 245.183C1076.42 242.996 1074.3 240.527 1070.96 238.856C1067.39 237.073 1063.92 236.94 1061.26 237.299Z" fill="#F2EBEB"/>
<path d="M1121.84 285.142V326.597C1121.84 331.969 1117.49 336.324 1112.11 336.324H961.831C956.457 336.324 952.104 331.969 952.104 326.597V285.142H986.081C986.389 285.142 986.634 285.392 986.634 285.7C986.634 285.701 986.634 285.703 986.634 285.705C986.634 302.344 1009.09 315.832 1036.78 315.832C1064.48 315.832 1086.93 302.344 1086.93 285.705C1086.93 285.703 1086.93 285.701 1086.93 285.7C1086.93 285.392 1087.18 285.142 1087.48 285.142H1121.84H1121.84Z" fill="#EEF6FF" stroke="#231F20" stroke-width="3.4" stroke-miterlimit="10"/>
<g style="mix-blend-mode:screen">
<rect x="20" y="397.138" width="34.9875" height="34.9875" fill="#E5BD19"/>
<rect x="282.406" y="377.052" width="17.4937" height="17.4936" fill="#E5BD19"/>
<rect x="124.962" y="362.149" width="34.9875" height="34.9875" fill="#E5BD19"/>
<rect width="17.4937" height="17.4937" transform="matrix(-4.37114e-08 -1 -1 4.37114e-08 491.683 362.798)" fill="#E5BD19"/>
<rect width="17.4936" height="17.4937" transform="matrix(-4.37117e-08 -1 -1 4.37111e-08 602.477 389.362)" fill="#E5BD19"/>
<rect x="856" y="220.987" width="34.9875" height="34.9875" transform="rotate(-90 856 220.987)" fill="#E5BD19"/>
<rect x="1155" y="220.987" width="34.9875" height="34.9875" transform="rotate(-90 1155 220.987)" fill="#E5BD19"/>
<rect width="34.9875" height="34.9875" transform="matrix(-4.37114e-08 -1 -1 4.37114e-08 414.581 432.125)" fill="#E5BD19"/>
<rect x="352.381" y="394.546" width="17.4937" height="17.4936" fill="#E5BD19"/>
<rect width="27.8604" height="27.8604" transform="matrix(-4.37114e-08 -1 -1 4.37114e-08 507.291 398.757)" fill="#E5BD19"/>
<rect x="20" y="288.287" width="16.8458" height="16.8458" fill="#E5BD19"/>
<rect x="31.0146" y="318.092" width="16.794" height="16.794" fill="#E5BD19"/>
<rect width="16.8458" height="16.8458" transform="matrix(-4.37114e-08 -1 -1 4.37114e-08 561.982 398.757)" fill="#E5BD19"/>
<rect width="16.8458" height="16.8458" transform="matrix(-4.37114e-08 -1 -1 4.37114e-08 572.673 360.854)" fill="#E5BD19"/>
<rect width="16.8458" height="16.8458" transform="matrix(-4.37114e-08 -1 -1 4.37114e-08 415.877 313.556)" fill="#E5BD19"/>
<rect width="16.8458" height="16.8458" transform="matrix(-4.37114e-08 -1 -1 4.37114e-08 732.385 376.08)" fill="#E5BD19"/>
<rect width="16.8458" height="16.8458" transform="matrix(-4.37114e-08 -1 -1 4.37114e-08 575.588 328.782)" fill="#E5BD19"/>
<rect x="919.309" y="360.854" width="16.8458" height="16.8458" transform="rotate(-90 919.309 360.854)" fill="#E5BD19"/>
<rect x="762.513" y="313.556" width="16.8458" height="16.8458" transform="rotate(-90 762.513 313.556)" fill="#E5BD19"/>
<rect x="114.596" y="317.443" width="16.8458" height="16.8458" fill="#E5BD19"/>
<rect width="16.8458" height="16.8458" transform="matrix(-4.37114e-08 -1 -1 4.37114e-08 545.136 381.911)" fill="#E5BD19"/>
<rect width="16.8458" height="16.8458" transform="matrix(-4.37114e-08 -1 -1 4.37114e-08 388.341 334.613)" fill="#E5BD19"/>
<rect width="16.8458" height="16.8458" transform="matrix(-4.37114e-08 -1 -1 4.37114e-08 704.848 397.138)" fill="#E5BD19"/>
<rect x="282.406" y="310.316" width="16.8458" height="16.8458" fill="#E5BD19"/>
<rect x="130.146" y="268.85" width="16.8458" height="16.8458" fill="#E5BD19"/>
<rect width="16.8458" height="16.8458" transform="matrix(-1 0 0 1 1209.57 310.316)" fill="#E5BD19"/>
<rect x="334.888" y="382.235" width="16.8458" height="16.8458" fill="#E5BD19"/>
<rect width="16.8458" height="16.8458" transform="matrix(-1 0 0 1 859.7 310.316)" fill="#E5BD19"/>
<rect width="16.8458" height="16.8458" transform="matrix(-1 0 0 1 702.904 263.019)" fill="#E5BD19"/>
<rect width="16.8458" height="16.8458" transform="matrix(-1 0 0 1 961.423 380.939)" fill="#E5BD19"/>
<rect x="299.252" y="293.471" width="16.8458" height="16.8458" fill="#E5BD19"/>
<rect width="16.8458" height="16.8458" transform="matrix(-1 0 0 1 1192.73 293.471)" fill="#E5BD19"/>
<rect x="351.733" y="365.39" width="16.8458" height="16.8458" fill="#E5BD19"/>
<rect x="194.938" y="318.092" width="16.8458" height="16.8458" fill="#E5BD19"/>
<rect width="16.8458" height="16.8458" transform="matrix(-1 0 0 1 842.854 293.471)" fill="#E5BD19"/>
<rect width="16.8458" height="16.8458" transform="matrix(-1 0 0 1 686.059 246.173)" fill="#E5BD19"/>
<rect x="299.252" y="327.162" width="16.8458" height="16.8458" fill="#E5BD19"/>
<rect x="146.992" y="285.695" width="16.8458" height="16.8458" fill="#E5BD19"/>
<rect width="16.8458" height="16.8458" transform="matrix(-1 0 0 1 1192.73 327.162)" fill="#E5BD19"/>
<rect width="16.8458" height="16.8458" transform="matrix(-1 0 0 1 1145.85 110)" fill="#E5BD19"/>
<rect width="16.8458" height="16.8458" transform="matrix(-1 0 0 1 1164.22 360.854)" fill="#E5BD19"/>
<rect width="16.8458" height="16.8458" transform="matrix(-1 0 0 1 1007.85 368)" fill="#E5BD19"/>
<rect width="16.8458" height="16.8458" transform="matrix(-1 0 0 1 1089.06 335.585)" fill="#E5BD19"/>
<rect width="16.8458" height="16.8458" transform="matrix(-1 0 0 1 932.267 288.287)" fill="#E5BD19"/>
<rect x="351.733" y="399.081" width="16.8458" height="16.8458" fill="#E5BD19"/>
<rect width="16.8458" height="16.8458" transform="matrix(-1 0 0 1 842.854 327.162)" fill="#E5BD19"/>
<rect width="16.8458" height="16.8458" transform="matrix(-1 0 0 1 686.059 279.864)" fill="#E5BD19"/>
<rect x="89.9751" y="397.138" width="34.9875" height="34.9875" fill="#E5BD19"/>
<rect x="229.925" y="397.138" width="34.9875" height="34.9875" fill="#E5BD19"/>
<rect x="177" y="391" width="34.9875" height="34.9875" fill="#E5BD19"/>
<rect width="34.9875" height="34.9875" transform="matrix(-1 0 0 1 1209.57 362.149)" fill="#E5BD19"/>
<rect width="34.9875" height="34.9875" transform="matrix(-1 0 0 1 859.7 362.149)" fill="#E5BD19"/>
<rect width="34.9875" height="34.9875" transform="matrix(-1 0 0 1 1244.56 327.162)" fill="#E5BD19"/>
<rect width="34.9875" height="34.9875" transform="matrix(-1 0 0 1 894.688 327.162)" fill="#E5BD19"/>
<rect x="299.9" y="397.138" width="34.9875" height="34.9875" fill="#E5BD19"/>
<rect x="439.85" y="397.138" width="34.9875" height="34.9875" fill="#E5BD19"/>
<rect x="509.825" y="394.546" width="17.4937" height="17.4936" fill="#E5BD19"/>
<rect x="579.8" y="397.138" width="34.9875" height="34.9875" fill="#E5BD19"/>
<rect x="649.775" y="397.138" width="34.9875" height="34.9875" fill="#E5BD19"/>
<rect x="684.763" y="397.138" width="34.9875" height="34.9875" fill="#E5BD19"/>
<rect x="719.75" y="397.138" width="34.9875" height="34.9875" fill="#E5BD19"/>
<rect x="789.725" y="397.138" width="34.9875" height="34.9875" fill="#E5BD19"/>
<rect x="859.7" y="397.138" width="34.9875" height="34.9875" fill="#E5BD19"/>
<rect x="894.688" y="397.138" width="34.9875" height="34.9875" fill="#E5BD19"/>
<rect x="929.675" y="397.138" width="34.9875" height="34.9875" fill="#E5BD19"/>
<rect x="964.662" y="397.138" width="34.9875" height="34.9875" fill="#E5BD19"/>
<rect x="999.65" y="397.138" width="34.9875" height="34.9875" fill="#E5BD19"/>
<rect x="763" y="377" width="17.4937" height="17.4936" fill="#E5BD19"/>
<rect x="1069.62" y="397.138" width="34.9875" height="34.9875" fill="#E5BD19"/>
<rect x="1117.73" y="410.258" width="8.74687" height="8.74687" fill="#E5BD19"/>
<rect x="1139.6" y="397.138" width="34.9875" height="34.9875" fill="#E5BD19"/>
<rect x="1229.01" y="397.138" width="34.9875" height="34.9875" fill="#E5BD19"/>
</g>
</g>
<rect x="20.5" y="13.5" width="1243" height="411" rx="19.5" stroke="#E5BD19" shape-rendering="crispEdges"/>
</g>
<defs>
<filter id="filter0_d_567_248" x="0" y="0" width="1284" height="452" filterUnits="userSpaceOnUse" color-interpolation-filters="sRGB">
<feFlood flood-opacity="0" result="BackgroundImageFix"/>
<feColorMatrix in="SourceAlpha" type="matrix" values="0 0 0 0 0 0 0 0 0 0 0 0 0 0 0 0 0 0 127 0" result="hardAlpha"/>
<feMorphology radius="5" operator="dilate" in="SourceAlpha" result="effect1_dropShadow_567_248"/>
<feOffset dy="7"/>
<feGaussianBlur stdDeviation="7.5"/>
<feComposite in2="hardAlpha" operator="out"/>
<feColorMatrix type="matrix" values="0 0 0 0 0.898039 0 0 0 0 0.741176 0 0 0 0 0.0980392 0 0 0 0.4 0"/>
<feBlend mode="normal" in2="BackgroundImageFix" result="effect1_dropShadow_567_248"/>
<feBlend mode="normal" in="SourceGraphic" in2="effect1_dropShadow_567_248" result="shape"/>
</filter>
<linearGradient id="paint0_linear_567_248" x1="642" y1="425" x2="642" y2="13" gradientUnits="userSpaceOnUse">
<stop stop-color="#C7A725" stop-opacity="0.5"/>
<stop offset="1" stop-opacity="0.5"/>
</linearGradient>
<clipPath id="clip0_567_248">
<rect x="20" y="13" width="1244" height="412" rx="20" fill="white"/>
</clipPath>
</defs>
</svg>
