<svg width="1284" height="452" viewBox="0 0 1284 452" fill="none" xmlns="http://www.w3.org/2000/svg">
<g filter="url(#filter0_d_567_570)">
<g clip-path="url(#clip0_567_570)">
<g style="mix-blend-mode:overlay">
<rect x="20" y="13" width="1244" height="412" fill="#1C1A1A"/>
<rect x="20" y="13" width="1244" height="412" fill="url(#paint0_linear_567_570)" fill-opacity="0.2"/>
</g>
<path d="M1069.55 96.7276C1069.55 109.546 1062.14 120.633 1051.37 125.94C1049.07 127.073 1047.63 129.42 1047.63 131.982V137.235H1026.37V131.981C1026.37 129.412 1024.91 127.068 1022.61 125.93C1011.85 120.619 1004.45 109.535 1004.45 96.7259C1004.45 78.7399 1019.04 64.1607 1037.03 64.1743C1055.06 64.1879 1069.55 78.6974 1069.55 96.7259V96.7276Z" fill="#FFEA20" stroke="#231F20" stroke-width="3.4" stroke-miterlimit="10" stroke-linecap="round"/>
<path d="M1034.84 134.673C1034.84 134.673 1026.17 109.716 1032.12 112.137C1035.11 113.352 1036.44 116.106 1036.9 118.549C1037.09 119.549 1038.12 119.583 1038.42 118.597C1040.28 112.596 1042.45 103.648 1043.79 108.497C1046 116.531 1040.77 133.897 1040.77 133.897" stroke="#231F20" stroke-width="1.87" stroke-miterlimit="10" stroke-linecap="round"/>
<path d="M1046.76 142.899H1027.24C1025.14 142.899 1023.43 144.609 1023.43 146.717C1023.43 148.825 1025.14 150.534 1027.24 150.534H1046.76C1048.86 150.534 1050.57 148.825 1050.57 146.717C1050.57 144.609 1048.86 142.899 1046.76 142.899Z" fill="#55476B" stroke="#231F20" stroke-width="3.4" stroke-miterlimit="10" stroke-linecap="round"/>
<path d="M1046.76 150.94H1027.24C1025.14 150.94 1023.43 152.65 1023.43 154.758C1023.43 156.866 1025.14 158.575 1027.24 158.575H1046.76C1048.86 158.575 1050.57 156.866 1050.57 154.758C1050.57 152.65 1048.86 150.94 1046.76 150.94Z" fill="#55476B" stroke="#231F20" stroke-width="3.4" stroke-miterlimit="10" stroke-linecap="round"/>
<path d="M1046.76 134.857H1027.24C1025.14 134.857 1023.43 136.566 1023.43 138.674C1023.43 140.783 1025.14 142.492 1027.24 142.492H1046.76C1048.86 142.492 1050.57 140.783 1050.57 138.674C1050.57 136.566 1048.86 134.857 1046.76 134.857Z" fill="#55476B" stroke="#231F20" stroke-width="3.4" stroke-miterlimit="10" stroke-linecap="round"/>
<path d="M1061.17 98.5397C1061.06 98.5482 1061.13 98.5329 1061.02 98.521C1060.08 98.4224 1059.41 97.5843 1059.5 96.651C1060.32 88.9619 1052.29 83.1496 1045.66 78.5341C1040.55 74.9726 1039.57 73.9169 1039.53 73.8795C1038.69 73.1298 1038.6 72.1965 1038.79 71.2802C1038.99 70.3639 1040.31 69.7927 1041.23 69.9916C1041.47 70.046 1046.93 71.338 1052.6 75.2531C1060.28 80.5605 1063.83 88.083 1062.88 97.0097C1062.8 97.8342 1061.96 98.4717 1061.17 98.538L1061.17 98.5397Z" fill="white"/>
<path d="M1110.34 287.939V185.814H1112.06C1122.13 185.814 1131.87 189.442 1139.47 196.028C1147.09 202.622 1152.06 211.736 1153.47 221.695C1154.2 226.849 1154.56 231.738 1154.57 236.639C1154.57 241.666 1154.21 246.68 1153.47 251.967C1152.06 261.946 1147.09 271.081 1139.48 277.691C1131.87 284.299 1122.12 287.937 1112.04 287.937H1110.34V287.939Z" fill="#8DF2FF"/>
<path d="M1112.06 187.514C1132.02 187.514 1148.99 202.172 1151.79 221.932C1152.45 226.604 1152.86 231.514 1152.87 236.643C1152.87 241.907 1152.46 246.945 1151.78 251.73C1148.99 271.527 1132.04 286.238 1112.04 286.238V187.514H1112.06ZM1112.06 184.114H1108.64V289.638H1112.04C1122.53 289.638 1132.67 285.851 1140.59 278.976C1148.51 272.098 1153.68 262.591 1155.15 252.206C1155.91 246.839 1156.27 241.748 1156.27 236.639C1156.26 231.726 1155.89 226.618 1155.16 221.458C1153.69 211.093 1148.52 201.607 1140.59 194.744C1132.67 187.89 1122.54 184.116 1112.06 184.116L1112.06 184.114Z" fill="#231F20"/>
<path d="M1132.14 200.779C1132.14 200.779 1142.56 205.308 1143.01 213.762Z" fill="#8DF2FF"/>
<path d="M1132.14 200.779C1132.14 200.779 1142.56 205.308 1143.01 213.762" stroke="white" stroke-width="4.25" stroke-miterlimit="10" stroke-linecap="round"/>
<path d="M1146.31 221.265L1146.59 222.113" stroke="white" stroke-width="4.25" stroke-miterlimit="10" stroke-linecap="round"/>
<path d="M960.575 287.938C950.496 287.938 940.753 284.299 933.143 277.692C925.53 271.083 920.561 261.947 919.153 251.968C918.407 246.681 918.047 241.668 918.053 236.641C918.06 231.738 918.417 226.851 919.146 221.696C920.556 211.738 925.528 202.624 933.146 196.03C940.755 189.444 950.489 185.816 960.557 185.816H962.275V287.94H960.575V287.938Z" fill="#8DF2FF"/>
<path d="M960.575 187.514V286.238C940.583 286.238 923.629 271.526 920.836 251.73C920.161 246.944 919.746 241.907 919.753 236.642C919.76 231.515 920.168 226.604 920.829 221.932C923.626 202.171 940.599 187.514 960.557 187.514H960.575ZM963.975 184.114H960.557C950.081 184.114 939.951 187.888 932.032 194.742C924.103 201.605 918.93 211.091 917.463 221.456C916.732 226.617 916.36 231.724 916.353 236.637C916.346 241.746 916.712 246.837 917.47 252.204C918.935 262.589 924.107 272.096 932.029 278.974C939.949 285.851 950.088 289.636 960.577 289.636H963.977V187.512V184.112L963.975 184.114Z" fill="#231F20"/>
<path d="M940.196 201.99C940.196 201.99 929.683 206.289 929.045 214.731Z" fill="#8DF2FF"/>
<path d="M940.196 201.99C940.196 201.99 929.683 206.289 929.045 214.731" stroke="white" stroke-width="4.25" stroke-miterlimit="10" stroke-linecap="round"/>
<path d="M926.487 221.625L926.142 222.451" stroke="white" stroke-width="4.25" stroke-miterlimit="10" stroke-linecap="round"/>
<path d="M1110.67 157.474H963.273C957.115 157.474 952.123 162.466 952.123 168.624V316.022C952.123 322.181 957.115 327.173 963.273 327.173H1110.67C1116.83 327.173 1121.82 322.181 1121.82 316.022V168.624C1121.82 162.466 1116.83 157.474 1110.67 157.474Z" fill="#EEF6FF" stroke="#231F20" stroke-width="3.4" stroke-miterlimit="10"/>
<path d="M1103.39 224.517V264.907C1103.39 269.427 1099.73 273.092 1095.21 273.092H1057.55L1052.41 266.53H1021.53L1016.4 273.092H978.603C974.083 273.092 970.418 269.427 970.418 264.907V224.517C970.418 219.995 974.083 216.331 978.603 216.331H1023.64L1025.92 219.77H1048.02L1050.3 216.331H1095.21C1099.73 216.331 1103.39 219.995 1103.39 224.517H1103.39Z" fill="black" stroke="#8DF2FF" stroke-width="3.4" stroke-miterlimit="10"/>
<path d="M1005.74 258.511C1013.72 258.511 1020.18 252.047 1020.18 244.072C1020.18 236.097 1013.72 229.632 1005.74 229.632C997.766 229.632 991.301 236.097 991.301 244.072C991.301 252.047 997.766 258.511 1005.74 258.511Z" fill="#E51C42" stroke="black" stroke-width="3.4" stroke-miterlimit="10" stroke-linecap="round"/>
<path d="M998.837 237.299C997.069 237.537 996.095 235.308 997.482 234.188C1001.25 231.148 1006.57 230.351 1011.23 232.581C1015.88 234.808 1018.59 239.444 1018.59 244.276C1018.59 246.052 1016.25 246.703 1015.33 245.183C1014.01 242.996 1011.88 240.527 1008.54 238.856C1004.97 237.073 1001.5 236.94 998.837 237.299Z" fill="#F2EBEB"/>
<path d="M1068.16 258.511C1076.13 258.511 1082.6 252.047 1082.6 244.072C1082.6 236.097 1076.13 229.632 1068.16 229.632C1060.18 229.632 1053.72 236.097 1053.72 244.072C1053.72 252.047 1060.18 258.511 1068.16 258.511Z" fill="#E51C42" stroke="black" stroke-width="3.4" stroke-miterlimit="10" stroke-linecap="round"/>
<path d="M1061.26 237.299C1059.49 237.537 1058.51 235.308 1059.9 234.188C1063.67 231.148 1068.99 230.351 1073.65 232.581C1078.3 234.808 1081.01 239.444 1081.01 244.276C1081.01 246.052 1078.67 246.703 1077.75 245.183C1076.42 242.996 1074.3 240.527 1070.96 238.856C1067.39 237.073 1063.92 236.94 1061.26 237.299Z" fill="#F2EBEB"/>
<path d="M1121.84 285.142V326.597C1121.84 331.969 1117.49 336.324 1112.11 336.324H961.831C956.457 336.324 952.104 331.969 952.104 326.597V285.142H986.081C986.389 285.142 986.634 285.392 986.634 285.7C986.634 285.701 986.634 285.703 986.634 285.705C986.634 302.344 1009.09 315.832 1036.78 315.832C1064.48 315.832 1086.93 302.344 1086.93 285.705C1086.93 285.703 1086.93 285.701 1086.93 285.7C1086.93 285.392 1087.18 285.142 1087.48 285.142H1121.84H1121.84Z" fill="#EEF6FF" stroke="#231F20" stroke-width="3.4" stroke-miterlimit="10"/>
<g style="mix-blend-mode:screen">
<rect x="20" y="397.138" width="34.9875" height="34.9875" fill="#E5BD19"/>
<rect x="282.406" y="377.052" width="17.4937" height="17.4936" fill="#E5BD19"/>
<rect x="124.962" y="362.149" width="34.9875" height="34.9875" fill="#E5BD19"/>
<rect width="17.4937" height="17.4937" transform="matrix(-4.37114e-08 -1 -1 4.37114e-08 491.683 362.798)" fill="#E5BD19"/>
<rect width="17.4936" height="17.4937" transform="matrix(-4.37117e-08 -1 -1 4.37111e-08 602.477 389.362)" fill="#E5BD19"/>
<rect x="856" y="220.987" width="34.9875" height="34.9875" transform="rotate(-90 856 220.987)" fill="#E5BD19"/>
<rect x="1155" y="220.987" width="34.9875" height="34.9875" transform="rotate(-90 1155 220.987)" fill="#E5BD19"/>
<rect width="34.9875" height="34.9875" transform="matrix(-4.37114e-08 -1 -1 4.37114e-08 414.581 432.125)" fill="#E5BD19"/>
<rect x="352.381" y="394.546" width="17.4937" height="17.4936" fill="#E5BD19"/>
<rect width="27.8604" height="27.8604" transform="matrix(-4.37114e-08 -1 -1 4.37114e-08 507.291 398.757)" fill="#E5BD19"/>
<rect x="20" y="288.287" width="16.8458" height="16.8458" fill="#E5BD19"/>
<rect x="31.0146" y="318.092" width="16.794" height="16.794" fill="#E5BD19"/>
<rect width="16.8458" height="16.8458" transform="matrix(-4.37114e-08 -1 -1 4.37114e-08 561.982 398.757)" fill="#E5BD19"/>
<rect width="16.8458" height="16.8458" transform="matrix(-4.37114e-08 -1 -1 4.37114e-08 572.673 360.854)" fill="#E5BD19"/>
<rect width="16.8458" height="16.8458" transform="matrix(-4.37114e-08 -1 -1 4.37114e-08 415.877 313.556)" fill="#E5BD19"/>
<rect width="16.8458" height="16.8458" transform="matrix(-4.37114e-08 -1 -1 4.37114e-08 732.385 376.08)" fill="#E5BD19"/>
<rect width="16.8458" height="16.8458" transform="matrix(-4.37114e-08 -1 -1 4.37114e-08 575.588 328.782)" fill="#E5BD19"/>
<rect x="919.309" y="360.854" width="16.8458" height="16.8458" transform="rotate(-90 919.309 360.854)" fill="#E5BD19"/>
<rect x="762.513" y="313.556" width="16.8458" height="16.8458" transform="rotate(-90 762.513 313.556)" fill="#E5BD19"/>
<rect x="114.596" y="317.443" width="16.8458" height="16.8458" fill="#E5BD19"/>
<rect width="16.8458" height="16.8458" transform="matrix(-4.37114e-08 -1 -1 4.37114e-08 545.136 381.911)" fill="#E5BD19"/>
<rect width="16.8458" height="16.8458" transform="matrix(-4.37114e-08 -1 -1 4.37114e-08 388.341 334.613)" fill="#E5BD19"/>
<rect width="16.8458" height="16.8458" transform="matrix(-4.37114e-08 -1 -1 4.37114e-08 704.848 397.138)" fill="#E5BD19"/>
<rect x="282.406" y="310.316" width="16.8458" height="16.8458" fill="#E5BD19"/>
<rect x="130.146" y="268.85" width="16.8458" height="16.8458" fill="#E5BD19"/>
<rect width="16.8458" height="16.8458" transform="matrix(-1 0 0 1 1209.57 310.316)" fill="#E5BD19"/>
<rect x="334.888" y="382.235" width="16.8458" height="16.8458" fill="#E5BD19"/>
<rect width="16.8458" height="16.8458" transform="matrix(-1 0 0 1 859.7 310.316)" fill="#E5BD19"/>
<rect width="16.8458" height="16.8458" transform="matrix(-1 0 0 1 702.904 263.019)" fill="#E5BD19"/>
<rect width="16.8458" height="16.8458" transform="matrix(-1 0 0 1 961.423 380.939)" fill="#E5BD19"/>
<rect x="299.252" y="293.471" width="16.8458" height="16.8458" fill="#E5BD19"/>
<rect width="16.8458" height="16.8458" transform="matrix(-1 0 0 1 1192.73 293.471)" fill="#E5BD19"/>
<rect x="351.733" y="365.39" width="16.8458" height="16.8458" fill="#E5BD19"/>
<rect x="194.938" y="318.092" width="16.8458" height="16.8458" fill="#E5BD19"/>
<rect width="16.8458" height="16.8458" transform="matrix(-1 0 0 1 842.854 293.471)" fill="#E5BD19"/>
<rect width="16.8458" height="16.8458" transform="matrix(-1 0 0 1 686.059 246.173)" fill="#E5BD19"/>
<rect x="299.252" y="327.162" width="16.8458" height="16.8458" fill="#E5BD19"/>
<rect x="146.992" y="285.695" width="16.8458" height="16.8458" fill="#E5BD19"/>
<rect width="16.8458" height="16.8458" transform="matrix(-1 0 0 1 1192.73 327.162)" fill="#E5BD19"/>
<rect width="16.8458" height="16.8458" transform="matrix(-1 0 0 1 1145.85 110)" fill="#E5BD19"/>
<rect width="16.8458" height="16.8458" transform="matrix(-1 0 0 1 1164.22 360.854)" fill="#E5BD19"/>
<rect width="16.8458" height="16.8458" transform="matrix(-1 0 0 1 1007.85 368)" fill="#E5BD19"/>
<rect width="16.8458" height="16.8458" transform="matrix(-1 0 0 1 1089.06 335.585)" fill="#E5BD19"/>
<rect width="16.8458" height="16.8458" transform="matrix(-1 0 0 1 932.267 288.287)" fill="#E5BD19"/>
<rect x="351.733" y="399.081" width="16.8458" height="16.8458" fill="#E5BD19"/>
<rect width="16.8458" height="16.8458" transform="matrix(-1 0 0 1 842.854 327.162)" fill="#E5BD19"/>
<rect width="16.8458" height="16.8458" transform="matrix(-1 0 0 1 686.059 279.864)" fill="#E5BD19"/>
<rect x="89.9751" y="397.138" width="34.9875" height="34.9875" fill="#E5BD19"/>
<rect x="229.925" y="397.138" width="34.9875" height="34.9875" fill="#E5BD19"/>
<rect x="177" y="391" width="34.9875" height="34.9875" fill="#E5BD19"/>
<rect width="34.9875" height="34.9875" transform="matrix(-1 0 0 1 1209.57 362.149)" fill="#E5BD19"/>
<rect width="34.9875" height="34.9875" transform="matrix(-1 0 0 1 859.7 362.149)" fill="#E5BD19"/>
<rect width="34.9875" height="34.9875" transform="matrix(-1 0 0 1 1244.56 327.162)" fill="#E5BD19"/>
<rect width="34.9875" height="34.9875" transform="matrix(-1 0 0 1 894.688 327.162)" fill="#E5BD19"/>
<rect x="299.9" y="397.138" width="34.9875" height="34.9875" fill="#E5BD19"/>
<rect x="439.85" y="397.138" width="34.9875" height="34.9875" fill="#E5BD19"/>
<rect x="509.825" y="394.546" width="17.4937" height="17.4936" fill="#E5BD19"/>
<rect x="579.8" y="397.138" width="34.9875" height="34.9875" fill="#E5BD19"/>
<rect x="649.775" y="397.138" width="34.9875" height="34.9875" fill="#E5BD19"/>
<rect x="684.763" y="397.138" width="34.9875" height="34.9875" fill="#E5BD19"/>
<rect x="719.75" y="397.138" width="34.9875" height="34.9875" fill="#E5BD19"/>
<rect x="789.725" y="397.138" width="34.9875" height="34.9875" fill="#E5BD19"/>
<rect x="859.7" y="397.138" width="34.9875" height="34.9875" fill="#E5BD19"/>
<rect x="894.688" y="397.138" width="34.9875" height="34.9875" fill="#E5BD19"/>
<rect x="929.675" y="397.138" width="34.9875" height="34.9875" fill="#E5BD19"/>
<rect x="964.662" y="397.138" width="34.9875" height="34.9875" fill="#E5BD19"/>
<rect x="999.65" y="397.138" width="34.9875" height="34.9875" fill="#E5BD19"/>
<rect x="763" y="377" width="17.4937" height="17.4936" fill="#E5BD19"/>
<rect x="1069.62" y="397.138" width="34.9875" height="34.9875" fill="#E5BD19"/>
<rect x="1117.73" y="410.258" width="8.74687" height="8.74687" fill="#E5BD19"/>
<rect x="1139.6" y="397.138" width="34.9875" height="34.9875" fill="#E5BD19"/>
<rect x="1229.01" y="397.138" width="34.9875" height="34.9875" fill="#E5BD19"/>
</g>
<path d="M81.1396 167.356V136.933H91.7082L97.7663 154.975H98.0759L104.134 136.933H114.658V167.356H107.274V147.59H106.964L100.375 167.356H95.2016L88.657 147.59H88.3033V167.356H81.1396ZM120.513 167.356V136.933H128.207V167.356H120.513ZM134.105 167.356V136.933H142.021L151.926 153.25H152.147V136.933H159.532V167.356H152.324L141.711 149.536H141.49V167.356H134.105ZM171.329 167.356V143.124H163.016V136.933H187.381V143.124H179.024V167.356H171.329ZM200.965 167.356V136.933H216.31C218.255 136.933 219.862 137.213 221.13 137.773C222.427 138.333 223.385 139.188 224.004 140.338C224.653 141.458 224.977 142.873 224.977 144.583C224.977 145.998 224.785 147.192 224.402 148.165C224.019 149.138 223.429 149.919 222.633 150.509C221.867 151.069 220.879 151.481 219.671 151.747V151.924C220.968 152.189 222.014 152.602 222.81 153.162C223.636 153.722 224.24 154.503 224.623 155.505C225.006 156.478 225.198 157.731 225.198 159.264C225.198 160.532 225.036 161.667 224.712 162.669C224.417 163.671 223.916 164.526 223.208 165.234C222.53 165.912 221.616 166.443 220.466 166.826C219.346 167.18 217.961 167.356 216.31 167.356H200.965ZM208.616 161.608H213.612C214.674 161.608 215.484 161.519 216.044 161.343C216.605 161.136 216.988 160.782 217.194 160.281C217.401 159.78 217.504 159.073 217.504 158.159C217.504 157.215 217.401 156.493 217.194 155.992C216.988 155.491 216.59 155.152 216 154.975C215.44 154.768 214.644 154.665 213.612 154.665H208.616V161.608ZM208.616 149.315H213.48C214.482 149.315 215.263 149.226 215.823 149.049C216.383 148.843 216.767 148.504 216.973 148.032C217.209 147.561 217.327 146.897 217.327 146.042C217.327 145.129 217.224 144.436 217.017 143.964C216.84 143.492 216.472 143.168 215.912 142.991C215.381 142.814 214.57 142.726 213.48 142.726H208.616V149.315ZM242.529 167.71C239.964 167.71 237.856 167.563 236.205 167.268C234.584 166.944 233.316 166.443 232.402 165.765C231.489 165.057 230.811 164.114 230.368 162.934C229.956 161.726 229.69 160.237 229.572 158.468C229.484 156.699 229.44 154.592 229.44 152.145C229.44 149.698 229.484 147.59 229.572 145.821C229.69 144.053 229.956 142.579 230.368 141.399C230.811 140.191 231.489 139.247 232.402 138.569C233.316 137.862 234.584 137.361 236.205 137.066C237.856 136.741 239.964 136.579 242.529 136.579C245.064 136.579 247.142 136.741 248.764 137.066C250.415 137.361 251.712 137.862 252.655 138.569C253.599 139.247 254.277 140.191 254.689 141.399C255.102 142.579 255.367 144.053 255.485 145.821C255.603 147.59 255.662 149.698 255.662 152.145C255.662 154.592 255.603 156.699 255.485 158.468C255.367 160.237 255.102 161.726 254.689 162.934C254.277 164.114 253.599 165.057 252.655 165.765C251.712 166.443 250.415 166.944 248.764 167.268C247.142 167.563 245.064 167.71 242.529 167.71ZM242.529 161.785C243.59 161.785 244.445 161.755 245.094 161.696C245.772 161.608 246.302 161.416 246.685 161.121C247.069 160.797 247.349 160.296 247.526 159.618C247.703 158.94 247.806 157.997 247.835 156.788C247.894 155.579 247.924 154.031 247.924 152.145C247.924 150.258 247.894 148.71 247.835 147.502C247.806 146.293 247.703 145.35 247.526 144.672C247.349 143.994 247.069 143.507 246.685 143.212C246.302 142.888 245.772 142.696 245.094 142.637C244.445 142.549 243.59 142.505 242.529 142.505C241.497 142.505 240.642 142.549 239.964 142.637C239.286 142.696 238.755 142.888 238.372 143.212C237.989 143.507 237.709 143.994 237.532 144.672C237.355 145.35 237.237 146.293 237.178 147.502C237.149 148.71 237.134 150.258 237.134 152.145C237.134 154.031 237.149 155.579 237.178 156.788C237.237 157.997 237.355 158.94 237.532 159.618C237.709 160.296 237.989 160.797 238.372 161.121C238.755 161.416 239.286 161.608 239.964 161.696C240.642 161.755 241.497 161.785 242.529 161.785ZM260.797 167.356V136.933H276.142C278.087 136.933 279.694 137.213 280.962 137.773C282.259 138.333 283.217 139.188 283.836 140.338C284.484 141.458 284.809 142.873 284.809 144.583C284.809 145.998 284.617 147.192 284.234 148.165C283.851 149.138 283.261 149.919 282.465 150.509C281.699 151.069 280.711 151.481 279.502 151.747V151.924C280.799 152.189 281.846 152.602 282.642 153.162C283.467 153.722 284.072 154.503 284.455 155.505C284.838 156.478 285.03 157.731 285.03 159.264C285.03 160.532 284.868 161.667 284.543 162.669C284.249 163.671 283.747 164.526 283.04 165.234C282.362 165.912 281.448 166.443 280.298 166.826C279.178 167.18 277.792 167.356 276.142 167.356H260.797ZM268.447 161.608H273.444C274.505 161.608 275.316 161.519 275.876 161.343C276.436 161.136 276.82 160.782 277.026 160.281C277.232 159.78 277.335 159.073 277.335 158.159C277.335 157.215 277.232 156.493 277.026 155.992C276.82 155.491 276.422 155.152 275.832 154.975C275.272 154.768 274.476 154.665 273.444 154.665H268.447V161.608ZM268.447 149.315H273.311C274.314 149.315 275.095 149.226 275.655 149.049C276.215 148.843 276.598 148.504 276.805 148.032C277.041 147.561 277.159 146.897 277.159 146.042C277.159 145.129 277.055 144.436 276.849 143.964C276.672 143.492 276.304 143.168 275.744 142.991C275.213 142.814 274.402 142.726 273.311 142.726H268.447V149.315ZM313.545 167.71C311.128 167.71 309.094 167.578 307.443 167.312C305.792 167.017 304.451 166.619 303.419 166.118C302.387 165.588 301.591 164.969 301.031 164.261C300.5 163.554 300.132 162.772 299.925 161.917C299.748 161.062 299.66 160.163 299.66 159.22C299.66 157.569 299.866 156.272 300.279 155.329C300.721 154.356 301.355 153.619 302.181 153.118C303.006 152.587 304.008 152.189 305.188 151.924V151.747C303.419 151.334 302.092 150.597 301.208 149.536C300.353 148.445 299.925 146.794 299.925 144.583C299.925 143.463 300.117 142.416 300.5 141.444C300.883 140.471 301.561 139.631 302.534 138.923C303.537 138.186 304.922 137.611 306.691 137.198C308.46 136.786 310.73 136.579 313.501 136.579C314.562 136.579 315.741 136.624 317.038 136.712C318.336 136.8 319.618 136.918 320.886 137.066C322.153 137.213 323.288 137.39 324.291 137.596V142.726C323.347 142.608 322.301 142.505 321.151 142.416C320.031 142.328 318.91 142.254 317.79 142.195C316.699 142.136 315.697 142.107 314.783 142.107C313.132 142.107 311.806 142.166 310.803 142.284C309.801 142.372 309.035 142.549 308.504 142.814C308.003 143.08 307.664 143.463 307.487 143.964C307.34 144.436 307.266 145.04 307.266 145.777C307.266 146.396 307.31 146.942 307.399 147.413C307.487 147.855 307.664 148.224 307.929 148.519C308.224 148.784 308.637 148.99 309.167 149.138C309.727 149.256 310.479 149.315 311.423 149.315H313.943V154.71H311.423C310.479 154.71 309.713 154.768 309.123 154.886C308.563 154.975 308.121 155.166 307.796 155.461C307.502 155.727 307.295 156.11 307.177 156.611C307.059 157.083 307.001 157.702 307.001 158.468C307.001 159.559 307.192 160.37 307.575 160.9C307.988 161.431 308.666 161.785 309.61 161.962C310.582 162.138 311.894 162.227 313.545 162.227C314.164 162.227 314.754 162.227 315.314 162.227C315.903 162.197 316.493 162.168 317.083 162.138C317.672 162.08 318.262 162.021 318.851 161.962L317.304 164.305V149.315H329.155V154.71H324.467V166.737C323.436 166.914 322.271 167.076 320.974 167.224C319.677 167.371 318.38 167.489 317.083 167.578C315.815 167.666 314.636 167.71 313.545 167.71ZM355.787 167.71C353.487 167.71 351.571 167.563 350.038 167.268C348.505 166.944 347.252 166.428 346.279 165.72C345.336 165.013 344.614 164.069 344.113 162.89C343.641 161.711 343.317 160.237 343.14 158.468C342.963 156.699 342.874 154.592 342.874 152.145C342.874 149.698 342.963 147.59 343.14 145.821C343.317 144.053 343.641 142.579 344.113 141.399C344.614 140.22 345.336 139.277 346.279 138.569C347.252 137.862 348.505 137.361 350.038 137.066C351.571 136.741 353.487 136.579 355.787 136.579C356.671 136.579 357.585 136.609 358.528 136.668C359.472 136.727 360.385 136.815 361.27 136.933C362.154 137.051 362.906 137.198 363.525 137.375V142.903C362.611 142.814 361.771 142.741 361.005 142.682C360.268 142.593 359.619 142.549 359.059 142.549C358.499 142.52 358.027 142.505 357.644 142.505C356.288 142.505 355.168 142.564 354.283 142.682C353.428 142.77 352.75 142.991 352.249 143.345C351.748 143.699 351.379 144.229 351.144 144.937C350.908 145.615 350.746 146.544 350.657 147.723C350.598 148.872 350.569 150.346 350.569 152.145C350.569 153.914 350.598 155.388 350.657 156.567C350.746 157.746 350.908 158.689 351.144 159.397C351.379 160.104 351.748 160.635 352.249 160.989C352.75 161.313 353.428 161.534 354.283 161.652C355.168 161.741 356.288 161.785 357.644 161.785C358.558 161.785 359.59 161.755 360.739 161.696C361.889 161.608 362.877 161.505 363.702 161.387V167.047C363.053 167.165 362.272 167.268 361.358 167.356C360.444 167.474 359.501 167.563 358.528 167.622C357.585 167.681 356.671 167.71 355.787 167.71ZM368.359 167.356V136.933H376.053V161.166H387.904V167.356H368.359ZM388.839 167.356L398.479 136.933H408.959L418.643 167.356H410.86L409.047 161.387H398.213L396.444 167.356H388.839ZM399.849 155.594H407.367L403.741 143.566H403.431L399.849 155.594ZM421.713 167.356V136.933H429.407V167.356H421.713ZM435.306 167.356V136.933H445.874L451.932 154.975H452.242L458.3 136.933H468.824V167.356H461.44V147.59H461.13L454.541 167.356H449.368L442.823 147.59H442.469V167.356H435.306ZM485.421 167.356V136.933H496.078C498.79 136.933 501.001 137.08 502.711 137.375C504.421 137.641 505.762 138.112 506.735 138.79C507.708 139.439 508.401 140.353 508.813 141.532C509.256 142.682 509.536 144.126 509.654 145.866C509.771 147.605 509.83 149.698 509.83 152.145C509.83 154.592 509.771 156.685 509.654 158.424C509.536 160.163 509.256 161.623 508.813 162.802C508.401 163.952 507.708 164.865 506.735 165.543C505.762 166.192 504.421 166.664 502.711 166.958C501.001 167.224 498.79 167.356 496.078 167.356H485.421ZM493.115 161.431H495.901C497.11 161.431 498.097 161.401 498.864 161.343C499.63 161.254 500.235 161.077 500.677 160.812C501.149 160.517 501.473 160.045 501.65 159.397C501.856 158.719 501.974 157.805 502.003 156.655C502.062 155.476 502.092 153.973 502.092 152.145C502.092 150.317 502.062 148.828 502.003 147.679C501.974 146.499 501.856 145.585 501.65 144.937C501.443 144.259 501.119 143.772 500.677 143.478C500.235 143.183 499.63 143.006 498.864 142.947C498.097 142.888 497.11 142.859 495.901 142.859H493.115V161.431ZM512.162 167.356L521.802 136.933H532.282L541.967 167.356H534.184L532.371 161.387H521.537L519.768 167.356H512.162ZM523.173 155.594H530.691L527.064 143.566H526.755L523.173 155.594ZM545.037 167.356V136.933H552.731V167.356H545.037ZM558.629 167.356V136.933H566.324V161.166H578.175V167.356H558.629ZM585.429 167.356V156.921L575.303 136.933H583.218L589.276 149.713H589.586L595.555 136.933H603.294L593.123 156.921V167.356H585.429ZM627.305 167.71C626.126 167.71 624.844 167.681 623.458 167.622C622.102 167.563 620.761 167.474 619.434 167.356C618.137 167.239 616.973 167.121 615.941 167.003V161.298C617.032 161.387 618.122 161.475 619.213 161.564C620.333 161.652 621.395 161.711 622.397 161.741C623.399 161.77 624.239 161.785 624.917 161.785C626.332 161.785 627.409 161.741 628.146 161.652C628.883 161.534 629.428 161.372 629.782 161.166C630.017 160.959 630.18 160.738 630.268 160.502C630.386 160.267 630.46 159.986 630.489 159.662C630.519 159.338 630.533 158.969 630.533 158.557C630.533 157.938 630.489 157.451 630.401 157.097C630.342 156.714 630.194 156.419 629.959 156.213C629.752 156.007 629.428 155.859 628.986 155.771C628.543 155.653 627.969 155.55 627.261 155.461L621.026 154.665C619.817 154.518 618.83 154.223 618.063 153.781C617.297 153.309 616.693 152.69 616.25 151.924C615.808 151.157 615.499 150.258 615.322 149.226C615.145 148.165 615.056 146.986 615.056 145.689C615.056 143.684 615.351 142.092 615.941 140.913C616.53 139.704 617.341 138.79 618.373 138.171C619.434 137.523 620.658 137.095 622.043 136.889C623.458 136.683 624.991 136.579 626.642 136.579C627.821 136.579 629.045 136.624 630.312 136.712C631.58 136.771 632.774 136.874 633.894 137.022C635.014 137.139 635.943 137.287 636.68 137.464V143.035C635.943 142.918 635.073 142.829 634.071 142.77C633.098 142.682 632.081 142.623 631.02 142.593C629.959 142.534 628.956 142.505 628.013 142.505C626.863 142.505 625.949 142.549 625.271 142.637C624.593 142.696 624.063 142.829 623.679 143.035C623.267 143.271 623.001 143.581 622.883 143.964C622.795 144.347 622.751 144.834 622.751 145.423C622.751 146.16 622.81 146.735 622.928 147.148C623.045 147.531 623.311 147.796 623.724 147.944C624.136 148.091 624.77 148.224 625.625 148.342L631.683 149.049C632.509 149.138 633.26 149.285 633.938 149.492C634.646 149.698 635.28 150.022 635.84 150.464C636.429 150.907 636.916 151.54 637.299 152.366C637.505 152.749 637.668 153.221 637.785 153.781C637.903 154.312 638.007 154.931 638.095 155.638C638.183 156.346 638.228 157.142 638.228 158.026C638.228 159.765 638.051 161.239 637.697 162.448C637.343 163.627 636.842 164.571 636.194 165.278C635.545 165.956 634.764 166.487 633.85 166.87C632.936 167.224 631.919 167.445 630.799 167.533C629.708 167.651 628.543 167.71 627.305 167.71ZM642.969 167.356V136.933H657.605C659.551 136.933 661.128 137.169 662.337 137.641C663.546 138.083 664.474 138.746 665.123 139.631C665.771 140.485 666.214 141.547 666.449 142.814C666.685 144.082 666.803 145.541 666.803 147.192C666.803 148.696 666.685 150.081 666.449 151.349C666.243 152.587 665.816 153.663 665.167 154.577C664.548 155.491 663.619 156.198 662.381 156.699C661.143 157.201 659.507 157.451 657.473 157.451H650.663V167.356H642.969ZM650.663 151.614H654.51C655.571 151.614 656.397 151.555 656.986 151.437C657.605 151.319 658.062 151.113 658.357 150.818C658.652 150.494 658.844 150.052 658.932 149.492C659.02 148.902 659.065 148.135 659.065 147.192C659.065 146.249 659.02 145.482 658.932 144.893C658.873 144.303 658.696 143.861 658.401 143.566C658.107 143.242 657.664 143.035 657.075 142.947C656.485 142.829 655.674 142.77 654.643 142.77H650.663V151.614ZM670.941 167.356V136.933H678.635V167.356H670.941ZM696.738 167.71C694.439 167.71 692.523 167.563 690.99 167.268C689.457 166.944 688.204 166.428 687.231 165.72C686.288 165.013 685.565 164.069 685.064 162.89C684.593 161.711 684.268 160.237 684.091 158.468C683.915 156.699 683.826 154.592 683.826 152.145C683.826 149.698 683.915 147.59 684.091 145.821C684.268 144.053 684.593 142.579 685.064 141.399C685.565 140.22 686.288 139.277 687.231 138.569C688.204 137.862 689.457 137.361 690.99 137.066C692.523 136.741 694.439 136.579 696.738 136.579C697.623 136.579 698.537 136.609 699.48 136.668C700.423 136.727 701.337 136.815 702.222 136.933C703.106 137.051 703.858 137.198 704.477 137.375V142.903C703.563 142.814 702.723 142.741 701.956 142.682C701.219 142.593 700.571 142.549 700.011 142.549C699.45 142.52 698.979 142.505 698.596 142.505C697.239 142.505 696.119 142.564 695.235 142.682C694.38 142.77 693.702 142.991 693.201 143.345C692.7 143.699 692.331 144.229 692.095 144.937C691.859 145.615 691.697 146.544 691.609 147.723C691.55 148.872 691.52 150.346 691.52 152.145C691.52 153.914 691.55 155.388 691.609 156.567C691.697 157.746 691.859 158.689 692.095 159.397C692.331 160.104 692.7 160.635 693.201 160.989C693.702 161.313 694.38 161.534 695.235 161.652C696.119 161.741 697.239 161.785 698.596 161.785C699.509 161.785 700.541 161.755 701.691 161.696C702.841 161.608 703.828 161.505 704.654 161.387V167.047C704.005 167.165 703.224 167.268 702.31 167.356C701.396 167.474 700.453 167.563 699.48 167.622C698.537 167.681 697.623 167.71 696.738 167.71ZM709.311 167.356V136.933H730.625V142.859H717.005V149.094H728.546V154.931H717.005V161.431H730.625V167.356H709.311Z" fill="#E5BD19"/>
<path fill-rule="evenodd" clip-rule="evenodd" d="M792.722 160.065C792.29 170.381 783.794 178.613 773.372 178.613C762.673 178.613 754 169.648 754 159.241C754 157.85 753.975 155.07 756.061 150.38C757.309 147.573 758.092 145.809 758.534 144.197C758.777 143.311 759.249 141.904 760.595 144.197C761.388 145.55 761.419 147.495 761.419 147.495C761.419 147.495 764.372 145.229 766.365 140.9C769.287 134.554 766.955 130.761 766.159 128.123C765.883 127.211 765.71 125.571 767.601 126.268C769.529 126.98 774.624 130.546 777.287 134.306C781.088 139.671 782.439 144.816 782.439 144.816C782.439 144.816 783.656 143.305 784.088 141.724C784.575 139.94 784.582 138.172 786.148 140.076C787.638 141.887 789.85 145.29 791.094 148.525C793.355 154.4 792.722 160.065 792.722 160.065Z" fill="url(#paint1_linear_567_570)"/>
<path fill-rule="evenodd" clip-rule="evenodd" d="M773.372 178.612C765.974 178.612 759.977 172.615 759.977 165.217C759.977 160.753 761.776 158.043 765.52 154.368C767.917 152.014 770.161 149.124 771.114 147.156C771.302 146.769 771.729 144.75 773.376 147.114C774.24 148.353 775.595 150.558 776.463 152.44C777.961 155.684 778.318 158.828 778.318 158.828C778.318 158.828 779.786 157.964 780.791 155.737C781.115 155.02 781.771 152.303 783.603 155.019C784.947 157.012 786.794 160.596 786.767 165.217C786.767 172.615 780.77 178.612 773.372 178.612Z" fill="#FC9502"/>
<path fill-rule="evenodd" clip-rule="evenodd" d="M773.578 163.981C775.485 163.981 775.485 167.511 777.906 172.224C779.518 175.363 777.107 178.613 773.578 178.613C770.05 178.613 768.22 175.752 768.22 172.224C768.22 168.696 771.672 163.981 773.578 163.981Z" fill="#FCE202"/>
<g style="mix-blend-mode:overlay">
<rect x="78.4141" y="84" width="200.475" height="27" rx="13.5" fill="black" fill-opacity="0.5"/>
</g>
<path d="M99.1625 101.375V92.5978H103.334C103.912 92.5978 104.376 92.6871 104.725 92.8658C105.073 93.0359 105.329 93.2867 105.49 93.6184C105.652 93.9416 105.733 94.3371 105.733 94.8049C105.733 95.1961 105.677 95.5321 105.567 95.8127C105.465 96.0934 105.303 96.323 105.082 96.5016C104.861 96.6717 104.576 96.7951 104.227 96.8716V96.9226C104.635 96.9992 104.954 97.131 105.184 97.3181C105.422 97.5052 105.588 97.7434 105.682 98.0325C105.775 98.3217 105.822 98.6619 105.822 99.0531C105.822 99.3848 105.784 99.6953 105.707 99.9844C105.631 100.265 105.499 100.507 105.312 100.712C105.133 100.916 104.882 101.077 104.559 101.196C104.236 101.315 103.823 101.375 103.321 101.375H99.1625ZM100.604 100.163H102.888C103.279 100.163 103.581 100.125 103.793 100.048C104.006 99.9632 104.155 99.8271 104.24 99.64C104.333 99.4444 104.38 99.185 104.38 98.8618C104.38 98.5301 104.333 98.2707 104.24 98.0836C104.146 97.888 103.989 97.7519 103.768 97.6753C103.555 97.5903 103.262 97.5478 102.888 97.5478H100.604V100.163ZM100.604 96.323H102.837C103.185 96.323 103.462 96.2805 103.666 96.1955C103.878 96.1104 104.036 95.9786 104.138 95.8C104.24 95.6129 104.291 95.3747 104.291 95.0856C104.291 94.7624 104.248 94.5115 104.163 94.3329C104.078 94.1458 103.934 94.0139 103.73 93.9374C103.526 93.8608 103.228 93.8226 102.837 93.8226H100.604V96.323ZM111.176 101.477C110.479 101.477 109.905 101.439 109.454 101.362C109.003 101.277 108.646 101.137 108.382 100.941C108.119 100.746 107.927 100.478 107.808 100.138C107.689 99.7973 107.613 99.3721 107.579 98.8618C107.545 98.343 107.528 97.7179 107.528 96.9864C107.528 96.255 107.545 95.6341 107.579 95.1238C107.613 94.605 107.689 94.1755 107.808 93.8353C107.927 93.4951 108.119 93.2272 108.382 93.0316C108.646 92.836 109.003 92.6999 109.454 92.6234C109.905 92.5383 110.479 92.4958 111.176 92.4958C111.874 92.4958 112.448 92.5383 112.899 92.6234C113.358 92.6999 113.719 92.836 113.983 93.0316C114.247 93.2272 114.438 93.4951 114.557 93.8353C114.685 94.1755 114.765 94.605 114.799 95.1238C114.833 95.6341 114.85 96.255 114.85 96.9864C114.85 97.7179 114.833 98.343 114.799 98.8618C114.765 99.3721 114.685 99.7973 114.557 100.138C114.438 100.478 114.247 100.746 113.983 100.941C113.719 101.137 113.358 101.277 112.899 101.362C112.448 101.439 111.874 101.477 111.176 101.477ZM111.176 100.252C111.602 100.252 111.95 100.24 112.222 100.214C112.503 100.189 112.72 100.125 112.873 100.023C113.035 99.9206 113.154 99.7548 113.23 99.5252C113.307 99.287 113.354 98.9681 113.371 98.5684C113.396 98.1601 113.409 97.6328 113.409 96.9864C113.409 96.34 113.396 95.817 113.371 95.4172C113.354 95.009 113.307 94.6901 113.23 94.4604C113.154 94.2223 113.035 94.0522 112.873 93.9501C112.72 93.8481 112.503 93.7843 112.222 93.7588C111.95 93.7333 111.602 93.7205 111.176 93.7205C110.76 93.7205 110.415 93.7333 110.143 93.7588C109.871 93.7843 109.654 93.8481 109.492 93.9501C109.331 94.0522 109.212 94.2223 109.135 94.4604C109.067 94.6901 109.02 95.009 108.995 95.4172C108.978 95.817 108.969 96.34 108.969 96.9864C108.969 97.6328 108.978 98.1601 108.995 98.5684C109.02 98.9681 109.067 99.287 109.135 99.5252C109.212 99.7548 109.331 99.9206 109.492 100.023C109.654 100.125 109.871 100.189 110.143 100.214C110.415 100.24 110.76 100.252 111.176 100.252ZM116.903 101.375V92.5978H121.075C121.653 92.5978 122.117 92.6871 122.466 92.8658C122.814 93.0359 123.069 93.2867 123.231 93.6184C123.393 93.9416 123.473 94.3371 123.473 94.8049C123.473 95.1961 123.418 95.5321 123.308 95.8127C123.206 96.0934 123.044 96.323 122.823 96.5016C122.602 96.6717 122.317 96.7951 121.968 96.8716V96.9226C122.376 96.9992 122.695 97.131 122.925 97.3181C123.163 97.5052 123.329 97.7434 123.422 98.0325C123.516 98.3217 123.563 98.6619 123.563 99.0531C123.563 99.3848 123.524 99.6953 123.448 99.9844C123.371 100.265 123.24 100.507 123.052 100.712C122.874 100.916 122.623 101.077 122.3 101.196C121.977 101.315 121.564 101.375 121.062 101.375H116.903ZM118.345 100.163H120.629C121.02 100.163 121.322 100.125 121.534 100.048C121.747 99.9632 121.896 99.8271 121.981 99.64C122.074 99.4444 122.121 99.185 122.121 98.8618C122.121 98.5301 122.074 98.2707 121.981 98.0836C121.887 97.888 121.73 97.7519 121.509 97.6753C121.296 97.5903 121.003 97.5478 120.629 97.5478H118.345V100.163ZM118.345 96.323H120.578C120.926 96.323 121.203 96.2805 121.407 96.1955C121.619 96.1104 121.777 95.9786 121.879 95.8C121.981 95.6129 122.032 95.3747 122.032 95.0856C122.032 94.7624 121.989 94.5115 121.904 94.3329C121.819 94.1458 121.675 94.0139 121.471 93.9374C121.266 93.8608 120.969 93.8226 120.578 93.8226H118.345V96.323ZM128.639 101.375V92.5978H134.227V93.8226H130.081V96.5399H133.755V97.7646H130.081V101.375H128.639ZM139.207 101.477C138.603 101.477 138.097 101.443 137.689 101.375C137.281 101.298 136.949 101.175 136.694 101.005C136.447 100.835 136.256 100.601 136.12 100.303C135.992 99.9972 135.903 99.6145 135.852 99.1552C135.809 98.6959 135.788 98.1431 135.788 97.4967V92.5978H137.23V97.9432C137.23 98.4365 137.247 98.8363 137.281 99.1424C137.315 99.4486 137.391 99.6825 137.51 99.8441C137.629 100.006 137.825 100.116 138.097 100.176C138.369 100.227 138.739 100.252 139.207 100.252C139.683 100.252 140.053 100.227 140.317 100.176C140.581 100.116 140.772 100.006 140.891 99.8441C141.019 99.6825 141.095 99.4486 141.121 99.1424C141.155 98.8363 141.172 98.4365 141.172 97.9432V92.5978H142.613V97.4967C142.613 98.1431 142.588 98.6959 142.537 99.1552C142.494 99.6145 142.409 99.9972 142.282 100.303C142.154 100.601 141.963 100.835 141.708 101.005C141.461 101.175 141.133 101.298 140.725 101.375C140.317 101.443 139.811 101.477 139.207 101.477ZM147.858 101.477C147.543 101.477 147.195 101.469 146.812 101.452C146.438 101.435 146.068 101.409 145.702 101.375C145.345 101.349 145.017 101.32 144.72 101.286V100.099C145.026 100.125 145.345 100.15 145.676 100.176C146.017 100.201 146.34 100.223 146.646 100.24C146.952 100.248 147.216 100.252 147.437 100.252C147.888 100.252 148.241 100.231 148.496 100.189C148.751 100.146 148.955 100.078 149.108 99.9844C149.21 99.9164 149.283 99.8313 149.325 99.7293C149.376 99.6272 149.406 99.5082 149.414 99.3721C149.431 99.2275 149.44 99.0701 149.44 98.9C149.44 98.6704 149.431 98.479 149.414 98.326C149.397 98.1729 149.359 98.0538 149.3 97.9687C149.24 97.8837 149.146 97.8242 149.019 97.7901C148.891 97.7476 148.725 97.7136 148.521 97.6881L146.429 97.4457C146.021 97.3947 145.685 97.3096 145.421 97.1905C145.166 97.063 144.966 96.8971 144.822 96.693C144.686 96.4889 144.592 96.2465 144.541 95.9658C144.49 95.6852 144.464 95.3747 144.464 95.0345C144.464 94.4647 144.541 94.0139 144.694 93.6822C144.847 93.3505 145.064 93.0996 145.345 92.9295C145.634 92.7509 145.974 92.6361 146.365 92.5851C146.757 92.5256 147.19 92.4958 147.667 92.4958C147.998 92.4958 148.338 92.5085 148.687 92.5341C149.036 92.5511 149.363 92.5766 149.669 92.6106C149.984 92.6361 150.244 92.6744 150.448 92.7254V93.8864C150.235 93.8523 149.984 93.8226 149.695 93.797C149.414 93.7715 149.121 93.7545 148.815 93.746C148.509 93.729 148.224 93.7205 147.96 93.7205C147.518 93.7205 147.161 93.7418 146.888 93.7843C146.625 93.8183 146.421 93.8778 146.276 93.9629C146.106 94.0564 146.004 94.1883 145.97 94.3584C145.936 94.52 145.919 94.7241 145.919 94.9707C145.919 95.2599 145.936 95.4853 145.97 95.6469C146.012 95.8 146.102 95.9063 146.238 95.9658C146.382 96.0254 146.599 96.0721 146.888 96.1062L148.981 96.3485C149.244 96.3741 149.482 96.4166 149.695 96.4761C149.908 96.5272 150.095 96.6165 150.256 96.744C150.426 96.8716 150.558 97.0545 150.652 97.2926C150.711 97.4117 150.754 97.5478 150.779 97.7008C150.813 97.8539 150.839 98.024 150.856 98.2111C150.881 98.3897 150.894 98.5939 150.894 98.8235C150.894 99.3083 150.843 99.7123 150.741 100.035C150.648 100.359 150.511 100.618 150.333 100.814C150.163 101.001 149.95 101.145 149.695 101.247C149.44 101.341 149.159 101.401 148.853 101.426C148.547 101.46 148.215 101.477 147.858 101.477ZM152.834 101.375V92.5978H154.275V101.375H152.834ZM159.964 101.477C159.266 101.477 158.692 101.439 158.242 101.362C157.791 101.277 157.434 101.137 157.17 100.941C156.906 100.746 156.715 100.478 156.596 100.138C156.477 99.7973 156.4 99.3721 156.366 98.8618C156.332 98.343 156.315 97.7179 156.315 96.9864C156.315 96.255 156.332 95.6341 156.366 95.1238C156.4 94.605 156.477 94.1755 156.596 93.8353C156.715 93.4951 156.906 93.2272 157.17 93.0316C157.434 92.836 157.791 92.6999 158.242 92.6234C158.692 92.5383 159.266 92.4958 159.964 92.4958C160.661 92.4958 161.235 92.5383 161.686 92.6234C162.145 92.6999 162.507 92.836 162.77 93.0316C163.034 93.2272 163.225 93.4951 163.345 93.8353C163.472 94.1755 163.553 94.605 163.587 95.1238C163.621 95.6341 163.638 96.255 163.638 96.9864C163.638 97.7179 163.621 98.343 163.587 98.8618C163.553 99.3721 163.472 99.7973 163.345 100.138C163.225 100.478 163.034 100.746 162.77 100.941C162.507 101.137 162.145 101.277 161.686 101.362C161.235 101.439 160.661 101.477 159.964 101.477ZM159.964 100.252C160.389 100.252 160.738 100.24 161.01 100.214C161.291 100.189 161.507 100.125 161.661 100.023C161.822 99.9206 161.941 99.7548 162.018 99.5252C162.094 99.287 162.141 98.9681 162.158 98.5684C162.184 98.1601 162.196 97.6328 162.196 96.9864C162.196 96.34 162.184 95.817 162.158 95.4172C162.141 95.009 162.094 94.6901 162.018 94.4604C161.941 94.2223 161.822 94.0522 161.661 93.9501C161.507 93.8481 161.291 93.7843 161.01 93.7588C160.738 93.7333 160.389 93.7205 159.964 93.7205C159.547 93.7205 159.203 93.7333 158.93 93.7588C158.658 93.7843 158.441 93.8481 158.28 93.9501C158.118 94.0522 157.999 94.2223 157.923 94.4604C157.855 94.6901 157.808 95.009 157.782 95.4172C157.765 95.817 157.757 96.34 157.757 96.9864C157.757 97.6328 157.765 98.1601 157.782 98.5684C157.808 98.9681 157.855 99.287 157.923 99.5252C157.999 99.7548 158.118 99.9206 158.28 100.023C158.441 100.125 158.658 100.189 158.93 100.214C159.203 100.24 159.547 100.252 159.964 100.252ZM165.691 101.375V92.5978H167.183L171.202 98.6704H171.253V92.5978H172.631V101.375H171.253L167.12 95.1111H167.069V101.375H165.691ZM181.035 101.477C180.72 101.477 180.371 101.469 179.989 101.452C179.615 101.435 179.245 101.409 178.879 101.375C178.522 101.349 178.194 101.32 177.897 101.286V100.099C178.203 100.125 178.522 100.15 178.853 100.176C179.194 100.201 179.517 100.223 179.823 100.24C180.129 100.248 180.393 100.252 180.614 100.252C181.065 100.252 181.418 100.231 181.673 100.189C181.928 100.146 182.132 100.078 182.285 99.9844C182.387 99.9164 182.459 99.8313 182.502 99.7293C182.553 99.6272 182.583 99.5082 182.591 99.3721C182.608 99.2275 182.617 99.0701 182.617 98.9C182.617 98.6704 182.608 98.479 182.591 98.326C182.574 98.1729 182.536 98.0538 182.476 97.9687C182.417 97.8837 182.323 97.8242 182.196 97.7901C182.068 97.7476 181.902 97.7136 181.698 97.6881L179.606 97.4457C179.198 97.3947 178.862 97.3096 178.598 97.1905C178.343 97.063 178.143 96.8971 177.999 96.693C177.863 96.4889 177.769 96.2465 177.718 95.9658C177.667 95.6852 177.641 95.3747 177.641 95.0345C177.641 94.4647 177.718 94.0139 177.871 93.6822C178.024 93.3505 178.241 93.0996 178.522 92.9295C178.811 92.7509 179.151 92.6361 179.542 92.5851C179.933 92.5256 180.367 92.4958 180.844 92.4958C181.175 92.4958 181.515 92.5085 181.864 92.5341C182.213 92.5511 182.54 92.5766 182.846 92.6106C183.161 92.6361 183.421 92.6744 183.625 92.7254V93.8864C183.412 93.8523 183.161 93.8226 182.872 93.797C182.591 93.7715 182.298 93.7545 181.992 93.746C181.686 93.729 181.401 93.7205 181.137 93.7205C180.695 93.7205 180.337 93.7418 180.065 93.7843C179.802 93.8183 179.598 93.8778 179.453 93.9629C179.283 94.0564 179.181 94.1883 179.147 94.3584C179.113 94.52 179.096 94.7241 179.096 94.9707C179.096 95.2599 179.113 95.4853 179.147 95.6469C179.189 95.8 179.279 95.9063 179.415 95.9658C179.559 96.0254 179.776 96.0721 180.065 96.1062L182.158 96.3485C182.421 96.3741 182.659 96.4166 182.872 96.4761C183.085 96.5272 183.272 96.6165 183.433 96.744C183.603 96.8716 183.735 97.0545 183.829 97.2926C183.888 97.4117 183.931 97.5478 183.956 97.7008C183.99 97.8539 184.016 98.024 184.033 98.2111C184.058 98.3897 184.071 98.5939 184.071 98.8235C184.071 99.3083 184.02 99.7123 183.918 100.035C183.825 100.359 183.688 100.618 183.51 100.814C183.34 101.001 183.127 101.145 182.872 101.247C182.617 101.341 182.336 101.401 182.03 101.426C181.724 101.46 181.392 101.477 181.035 101.477ZM186.011 101.375V92.5978H191.854V93.8226H187.452V96.3358H191.254V97.5605H187.452V100.15H191.854V101.375H186.011ZM192.854 101.375L195.993 92.5978H197.881L201.019 101.375H199.526L198.761 99.2062H195.061L194.309 101.375H192.854ZM195.47 97.9815H198.34L196.937 93.9884H196.873L195.47 97.9815ZM205.429 101.477C205.114 101.477 204.765 101.469 204.382 101.452C204.008 101.435 203.638 101.409 203.273 101.375C202.915 101.349 202.588 101.32 202.29 101.286V100.099C202.596 100.125 202.915 100.15 203.247 100.176C203.587 100.201 203.91 100.223 204.217 100.24C204.523 100.248 204.786 100.252 205.008 100.252C205.458 100.252 205.811 100.231 206.066 100.189C206.322 100.146 206.526 100.078 206.679 99.9844C206.781 99.9164 206.853 99.8313 206.896 99.7293C206.947 99.6272 206.977 99.5082 206.985 99.3721C207.002 99.2275 207.011 99.0701 207.011 98.9C207.011 98.6704 207.002 98.479 206.985 98.326C206.968 98.1729 206.93 98.0538 206.87 97.9687C206.811 97.8837 206.717 97.8242 206.59 97.7901C206.462 97.7476 206.296 97.7136 206.092 97.6881L204 97.4457C203.592 97.3947 203.256 97.3096 202.992 97.1905C202.737 97.063 202.537 96.8971 202.392 96.693C202.256 96.4889 202.163 96.2465 202.112 95.9658C202.061 95.6852 202.035 95.3747 202.035 95.0345C202.035 94.4647 202.112 94.0139 202.265 93.6822C202.418 93.3505 202.635 93.0996 202.915 92.9295C203.205 92.7509 203.545 92.6361 203.936 92.5851C204.327 92.5256 204.761 92.4958 205.237 92.4958C205.569 92.4958 205.909 92.5085 206.258 92.5341C206.607 92.5511 206.934 92.5766 207.24 92.6106C207.555 92.6361 207.814 92.6744 208.018 92.7254V93.8864C207.806 93.8523 207.555 93.8226 207.266 93.797C206.985 93.7715 206.692 93.7545 206.385 93.746C206.079 93.729 205.794 93.7205 205.531 93.7205C205.088 93.7205 204.731 93.7418 204.459 93.7843C204.195 93.8183 203.991 93.8778 203.847 93.9629C203.677 94.0564 203.575 94.1883 203.54 94.3584C203.506 94.52 203.489 94.7241 203.489 94.9707C203.489 95.2599 203.506 95.4853 203.54 95.6469C203.583 95.8 203.672 95.9063 203.808 95.9658C203.953 96.0254 204.17 96.0721 204.459 96.1062L206.551 96.3485C206.815 96.3741 207.053 96.4166 207.266 96.4761C207.478 96.5272 207.665 96.6165 207.827 96.744C207.997 96.8716 208.129 97.0545 208.222 97.2926C208.282 97.4117 208.325 97.5478 208.35 97.7008C208.384 97.8539 208.41 98.024 208.427 98.2111C208.452 98.3897 208.465 98.5939 208.465 98.8235C208.465 99.3083 208.414 99.7123 208.312 100.035C208.218 100.359 208.082 100.618 207.904 100.814C207.733 101.001 207.521 101.145 207.266 101.247C207.011 101.341 206.73 101.401 206.424 101.426C206.118 101.46 205.786 101.477 205.429 101.477ZM213.76 101.477C213.062 101.477 212.488 101.439 212.037 101.362C211.587 101.277 211.229 101.137 210.966 100.941C210.702 100.746 210.511 100.478 210.392 100.138C210.272 99.7973 210.196 99.3721 210.162 98.8618C210.128 98.343 210.111 97.7179 210.111 96.9864C210.111 96.255 210.128 95.6341 210.162 95.1238C210.196 94.605 210.272 94.1755 210.392 93.8353C210.511 93.4951 210.702 93.2272 210.966 93.0316C211.229 92.836 211.587 92.6999 212.037 92.6234C212.488 92.5383 213.062 92.4958 213.76 92.4958C214.457 92.4958 215.031 92.5383 215.482 92.6234C215.941 92.6999 216.303 92.836 216.566 93.0316C216.83 93.2272 217.021 93.4951 217.14 93.8353C217.268 94.1755 217.349 94.605 217.383 95.1238C217.417 95.6341 217.434 96.255 217.434 96.9864C217.434 97.7179 217.417 98.343 217.383 98.8618C217.349 99.3721 217.268 99.7973 217.14 100.138C217.021 100.478 216.83 100.746 216.566 100.941C216.303 101.137 215.941 101.277 215.482 101.362C215.031 101.439 214.457 101.477 213.76 101.477ZM213.76 100.252C214.185 100.252 214.534 100.24 214.806 100.214C215.086 100.189 215.303 100.125 215.456 100.023C215.618 99.9206 215.737 99.7548 215.814 99.5252C215.89 99.287 215.937 98.9681 215.954 98.5684C215.979 98.1601 215.992 97.6328 215.992 96.9864C215.992 96.34 215.979 95.817 215.954 95.4172C215.937 95.009 215.89 94.6901 215.814 94.4604C215.737 94.2223 215.618 94.0522 215.456 93.9501C215.303 93.8481 215.086 93.7843 214.806 93.7588C214.534 93.7333 214.185 93.7205 213.76 93.7205C213.343 93.7205 212.998 93.7333 212.726 93.7588C212.454 93.7843 212.237 93.8481 212.076 93.9501C211.914 94.0522 211.795 94.2223 211.718 94.4604C211.65 94.6901 211.604 95.009 211.578 95.4172C211.561 95.817 211.553 96.34 211.553 96.9864C211.553 97.6328 211.561 98.1601 211.578 98.5684C211.604 98.9681 211.65 99.287 211.718 99.5252C211.795 99.7548 211.914 99.9206 212.076 100.023C212.237 100.125 212.454 100.189 212.726 100.214C212.998 100.24 213.343 100.252 213.76 100.252ZM219.487 101.375V92.5978H220.979L224.998 98.6704H225.049V92.5978H226.427V101.375H225.049L220.915 95.1111H220.864V101.375H219.487ZM234.078 101.477C233.797 101.477 233.491 101.464 233.159 101.439C232.836 101.422 232.517 101.396 232.203 101.362C231.896 101.32 231.629 101.277 231.399 101.235V100.099C231.688 100.125 231.99 100.15 232.305 100.176C232.628 100.201 232.93 100.223 233.21 100.24C233.5 100.248 233.746 100.252 233.95 100.252C234.427 100.252 234.818 100.227 235.124 100.176C235.43 100.125 235.66 100.006 235.813 99.8186C235.966 99.6315 236.043 99.3338 236.043 98.9256C236.043 98.5684 235.992 98.2919 235.89 98.0963C235.796 97.8922 235.634 97.7519 235.405 97.6753C235.184 97.5903 234.882 97.5478 234.499 97.5478H232.917V96.323H234.499C234.788 96.323 235.039 96.289 235.252 96.221C235.473 96.1529 235.643 96.0296 235.762 95.851C235.881 95.6639 235.941 95.3917 235.941 95.0345C235.941 94.6263 235.873 94.3329 235.736 94.1543C235.609 93.9671 235.392 93.8481 235.086 93.797C234.78 93.746 234.359 93.7205 233.823 93.7205C233.585 93.7205 233.321 93.729 233.032 93.746C232.751 93.763 232.471 93.7843 232.19 93.8098C231.909 93.8268 231.663 93.8523 231.45 93.8864V92.7382C231.68 92.6871 231.947 92.6446 232.254 92.6106C232.56 92.5766 232.875 92.5511 233.198 92.5341C233.521 92.5085 233.819 92.4958 234.091 92.4958C234.729 92.4958 235.26 92.5468 235.685 92.6489C236.111 92.7424 236.447 92.887 236.693 93.0826C236.948 93.2782 237.131 93.5206 237.242 93.8098C237.352 94.0905 237.408 94.4222 237.408 94.8049C237.408 95.4428 237.28 95.919 237.025 96.2337C236.77 96.5484 236.396 96.761 235.902 96.8716V96.9226C236.234 96.9907 236.519 97.097 236.757 97.2416C236.995 97.3862 237.178 97.603 237.306 97.8922C237.433 98.1729 237.497 98.5513 237.497 99.0276C237.497 99.3933 237.45 99.725 237.357 100.023C237.272 100.32 237.106 100.58 236.859 100.801C236.621 101.014 236.277 101.179 235.826 101.298C235.375 101.418 234.792 101.477 234.078 101.477Z" fill="#EAF5FF"/>
<path d="M257.201 95.2326V99.74C257.201 100.739 256.39 101.55 255.391 101.55H250.323C249.324 101.55 248.514 100.739 248.514 99.74V94.6726C248.514 93.6731 249.324 92.8628 250.323 92.8628H254.831" stroke="#EAF5FF" stroke-width="1.0125" stroke-linecap="round"/>
<path d="M254.025 95.3225C253.828 95.5202 253.828 95.8407 254.025 96.0384C254.223 96.2361 254.544 96.2361 254.741 96.0384L254.025 95.3225ZM259.82 90.75C259.82 90.4704 259.593 90.2437 259.314 90.2437H254.757C254.478 90.2437 254.251 90.4704 254.251 90.75C254.251 91.0296 254.478 91.2563 254.757 91.2563H258.807V95.3063C258.807 95.5858 259.034 95.8125 259.314 95.8125C259.593 95.8125 259.82 95.5858 259.82 95.3063V90.75ZM254.741 96.0384L259.672 91.108L258.956 90.392L254.025 95.3225L254.741 96.0384Z" fill="#EAF5FF"/>
</g>
<rect x="20.5" y="13.5" width="1243" height="411" rx="19.5" stroke="#E5BD19" shape-rendering="crispEdges"/>
</g>
<defs>
<filter id="filter0_d_567_570" x="0" y="0" width="1284" height="452" filterUnits="userSpaceOnUse" color-interpolation-filters="sRGB">
<feFlood flood-opacity="0" result="BackgroundImageFix"/>
<feColorMatrix in="SourceAlpha" type="matrix" values="0 0 0 0 0 0 0 0 0 0 0 0 0 0 0 0 0 0 127 0" result="hardAlpha"/>
<feMorphology radius="5" operator="dilate" in="SourceAlpha" result="effect1_dropShadow_567_570"/>
<feOffset dy="7"/>
<feGaussianBlur stdDeviation="7.5"/>
<feComposite in2="hardAlpha" operator="out"/>
<feColorMatrix type="matrix" values="0 0 0 0 0.898039 0 0 0 0 0.741176 0 0 0 0 0.0980392 0 0 0 0.4 0"/>
<feBlend mode="normal" in2="BackgroundImageFix" result="effect1_dropShadow_567_570"/>
<feBlend mode="normal" in="SourceGraphic" in2="effect1_dropShadow_567_570" result="shape"/>
</filter>
<linearGradient id="paint0_linear_567_570" x1="642" y1="425" x2="642" y2="13" gradientUnits="userSpaceOnUse">
<stop stop-color="#C7A725" stop-opacity="0.5"/>
<stop offset="1" stop-opacity="0.5"/>
</linearGradient>
<linearGradient id="paint1_linear_567_570" x1="773.401" y1="178.651" x2="773.401" y2="126.14" gradientUnits="userSpaceOnUse">
<stop stop-color="#FF4C0D"/>
<stop offset="1" stop-color="#FC9502"/>
</linearGradient>
<clipPath id="clip0_567_570">
<rect x="20" y="13" width="1244" height="412" rx="20" fill="white"/>
</clipPath>
</defs>
</svg>
