<svg width="13" height="13" viewBox="0 0 13 13" fill="none" xmlns="http://www.w3.org/2000/svg">
<path d="M9.78657 5.23263V9.73997C9.78657 10.7395 8.9763 11.5497 7.97678 11.5497H2.90939C1.90988 11.5497 1.09961 10.7395 1.09961 9.73997V4.67258C1.09961 3.67306 1.90988 2.86279 2.90939 2.86279H7.41673" stroke="#EAF5FF" stroke-width="1.0125" stroke-linecap="round"/>
<path d="M6.61175 5.32246C6.41405 5.52016 6.41405 5.8407 6.61175 6.03841C6.80946 6.23611 7.13 6.23611 7.3277 6.03841L6.61175 5.32246ZM12.4064 0.75C12.4064 0.470406 12.1798 0.24375 11.9002 0.24375H7.34391C7.06432 0.24375 6.83766 0.470406 6.83766 0.75C6.83766 1.02959 7.06432 1.25625 7.34391 1.25625H11.3939V5.30625C11.3939 5.58584 11.6206 5.8125 11.9002 5.8125C12.1798 5.8125 12.4064 5.58584 12.4064 5.30625V0.75ZM7.3277 6.03841L12.2581 1.10797L11.5422 0.392027L6.61175 5.32246L7.3277 6.03841Z" fill="#EAF5FF"/>
</svg>
