<svg width="377" height="57" viewBox="0 0 377 57" fill="none" xmlns="http://www.w3.org/2000/svg">
<path d="M13.7971 0.487305H0.617781C0.27659 0.487305 0 0.763894 0 1.10508V14.2844C0 14.6256 0.27659 14.9022 0.617781 14.9022H13.7971C14.1383 14.9022 14.4149 14.6256 14.4149 14.2844V1.10508C14.4149 0.763894 14.1383 0.487305 13.7971 0.487305Z" fill="white"/>
<path d="M13.7971 33.8477H0.617781C0.27659 33.8477 0 34.1242 0 34.4654V47.6447C0 47.9859 0.27659 48.2625 0.617781 48.2625H13.7971C14.1383 48.2625 14.4149 47.9859 14.4149 47.6447V34.4654C14.4149 34.1242 14.1383 33.8477 13.7971 33.8477Z" fill="white"/>
<path d="M13.7971 17.1675H0.617781C0.27659 17.1675 0 17.4441 0 17.7853V30.9646C0 31.3058 0.27659 31.5824 0.617781 31.5824H13.7971C14.1383 31.5824 14.4149 31.3058 14.4149 30.9646V17.7853C14.4149 17.4441 14.1383 17.1675 13.7971 17.1675Z" fill="white"/>
<path d="M30.4772 33.8477H17.2978C16.9566 33.8477 16.6801 34.1242 16.6801 34.4654V47.6447C16.6801 47.9859 16.9566 48.2625 17.2978 48.2625H30.4772C30.8184 48.2625 31.0949 47.9859 31.0949 47.6447V34.4654C31.0949 34.1242 30.8184 33.8477 30.4772 33.8477Z" fill="#FF6400"/>
<path d="M30.4772 17.1675H17.2978C16.9566 17.1675 16.6801 17.4441 16.6801 17.7853V30.9646C16.6801 31.3058 16.9566 31.5824 17.2978 31.5824H30.4772C30.8184 31.5824 31.0949 31.3058 31.0949 30.9646V17.7853C31.0949 17.4441 30.8184 17.1675 30.4772 17.1675Z" fill="#FF6400"/>
<rect x="172.413" y="14.6621" width="203.7" height="38.85" fill="#FF6400"/>
<path d="M50.2052 47.5122V22.3183H72.9812C75.6636 22.3183 77.5954 22.6198 78.7767 23.2227C80.7085 24.2071 81.6744 26.1205 81.6744 28.9629C81.6744 31.1777 81.133 32.722 80.0502 33.5956C79.4104 34.1124 78.303 34.4938 76.728 34.7399C78.7213 34.9368 80.1056 35.3121 80.8808 35.8658C82.0743 36.7148 82.6711 38.296 82.6711 40.6093C82.6711 43.587 81.7052 45.5927 79.7734 46.6263C78.6783 47.2169 76.7587 47.5122 74.0148 47.5122H50.2052ZM57.6987 32.359H70.5818C71.8245 32.359 72.6551 32.2544 73.0735 32.0452C73.7379 31.713 74.0701 31.0916 74.0701 30.181C74.0701 29.0982 73.621 28.4092 72.7228 28.1139C72.3413 27.9908 71.56 27.9293 70.3787 27.9293H57.6987V32.359ZM57.6987 41.9013H71.4308C72.5997 41.9013 73.3749 41.8336 73.7564 41.6982C74.5685 41.4152 74.9745 40.7323 74.9745 39.6495C74.9745 38.5298 74.5439 37.8161 73.6825 37.5085C73.338 37.3854 72.5198 37.3239 71.2278 37.3239H57.6987V41.9013ZM104.174 22.0599C110.584 22.0599 114.503 22.1891 115.931 22.4475C119.142 23.0259 121.136 24.6808 121.911 27.4125C122.194 28.4092 122.366 29.7565 122.428 31.4546C122.465 32.439 122.483 33.651 122.483 35.0906C122.483 38.2652 122.286 40.597 121.892 42.0858C121.019 45.3958 118.472 47.2169 114.251 47.5491C112.381 47.6968 109.329 47.7706 105.096 47.7706C101.442 47.7706 99.2209 47.7521 98.4334 47.7152C95.4434 47.5799 93.2778 47.1923 91.9366 46.5524C90.0539 45.6665 88.8665 43.8885 88.3743 41.2184C88.1652 40.0863 88.0606 37.9576 88.0606 34.8322C88.0606 32.7158 88.079 31.3684 88.1159 30.7901C88.2144 29.2643 88.4666 27.9539 88.8727 26.8588C89.8448 24.2379 92.2749 22.7306 96.1632 22.3368C97.9966 22.1522 100.667 22.0599 104.174 22.0599ZM105.244 28.2061C101.171 28.2061 98.6611 28.403 97.7136 28.7968C96.8277 29.1659 96.2555 30.0395 95.9971 31.4177C95.8864 32.0083 95.831 33.1157 95.831 34.7399C95.831 36.8686 95.9602 38.3821 96.2186 39.2804C96.6 40.6093 97.8182 41.3476 99.8731 41.4952C101.067 41.5813 102.512 41.6244 104.21 41.6244C108.788 41.6244 111.575 41.4645 112.572 41.1445C113.691 40.7877 114.399 39.8587 114.694 38.3575C114.805 37.7915 114.86 36.5303 114.86 34.5738C114.86 33.0726 114.823 32.0637 114.749 31.5469C114.54 30.0949 113.95 29.1536 112.978 28.7229C112.412 28.4645 111.224 28.2984 109.415 28.2246C109.12 28.2123 107.73 28.2061 105.244 28.2061ZM128.537 47.5122V22.3183H151.313C153.995 22.3183 155.927 22.6198 157.108 23.2227C159.04 24.2071 160.006 26.1205 160.006 28.9629C160.006 31.1777 159.465 32.722 158.382 33.5956C157.742 34.1124 156.635 34.4938 155.06 34.7399C157.053 34.9368 158.437 35.3121 159.212 35.8658C160.406 36.7148 161.003 38.296 161.003 40.6093C161.003 43.587 160.037 45.5927 158.105 46.6263C157.01 47.2169 155.09 47.5122 152.346 47.5122H128.537ZM136.03 32.359H148.913C150.156 32.359 150.987 32.2544 151.405 32.0452C152.07 31.713 152.402 31.0916 152.402 30.181C152.402 29.0982 151.953 28.4092 151.054 28.1139C150.673 27.9908 149.892 27.9293 148.71 27.9293H136.03V32.359ZM136.03 41.9013H149.762C150.931 41.9013 151.707 41.8336 152.088 41.6982C152.9 41.4152 153.306 40.7323 153.306 39.6495C153.306 38.5298 152.876 37.8161 152.014 37.5085C151.67 37.3854 150.851 37.3239 149.559 37.3239H136.03V41.9013Z" fill="white"/>
<path d="M176.525 47.5122V22.3183H203.288V28.04H184.166V33.0234H202.31V38.7451H184.166V47.5122H176.525ZM208.364 22.3183H216.042V34.7399C216.042 34.9491 216.036 35.1644 216.023 35.3859C216.023 35.5705 216.023 35.6689 216.023 35.6812C216.023 37.1701 216.079 38.2099 216.189 38.8005C216.485 40.3755 217.617 41.286 219.585 41.5321C220.459 41.6429 221.825 41.6982 223.683 41.6982C226.439 41.6982 228.371 41.6552 229.478 41.569C231.213 41.4337 232.278 40.7815 232.671 39.6126C232.93 38.8497 233.053 37.6623 233.041 36.0504L233.022 33.8725V22.3183H240.7V35.5151C240.7 38.6282 240.559 40.7877 240.276 41.9936C239.697 44.4545 238.036 46.1341 235.292 47.0323C233.976 47.463 232.136 47.7091 229.774 47.7706C230.795 47.746 228.937 47.7337 224.2 47.7337C220.311 47.7337 217.598 47.6599 216.06 47.5122C211.95 47.1185 209.533 45.2912 208.807 42.0305C208.511 40.7016 208.364 38.6467 208.364 35.8658V22.3183ZM246.699 39.4834H254.229C254.254 40.2094 254.315 40.7139 254.414 40.9969C254.586 41.4891 254.937 41.8213 255.466 41.9936C255.897 42.1412 256.586 42.2273 257.533 42.252L260.505 42.3442C260.948 42.3565 262.83 42.3319 266.153 42.2704C267.494 42.2458 268.435 42.1412 268.976 41.9566C269.985 41.6121 270.49 40.9292 270.49 39.9079C270.49 38.6405 269.752 37.9084 268.275 37.7115C267.906 37.6623 266.614 37.6377 264.399 37.6377H257.459C254.039 37.6377 251.725 37.4531 250.519 37.084C248.994 36.6164 247.923 35.7305 247.308 34.4262C246.84 33.4295 246.607 32.0144 246.607 30.181C246.607 27.2525 247.289 25.2346 248.655 24.1271C249.787 23.192 251.91 22.5829 255.023 22.2999C256.253 22.1891 258.702 22.1338 262.369 22.1338C267.611 22.1338 270.902 22.2814 272.243 22.5767C274.028 22.9705 275.289 23.7149 276.027 24.81C276.704 25.8067 277.042 27.2464 277.042 29.129V29.9965H269.567C269.555 28.6922 268.866 27.8985 267.5 27.6155C267.205 27.554 265.98 27.5232 263.827 27.5232C260.812 27.5232 258.493 27.5786 256.869 27.6893C255.983 27.7509 255.349 27.8924 254.968 28.1139C254.426 28.4338 254.155 28.9875 254.155 29.775C254.155 30.8332 254.697 31.5038 255.78 31.7868C256.247 31.9099 257.281 31.9714 258.88 31.9714H266.023C266.503 31.9714 267.758 32.0083 269.789 32.0821C272.151 32.1683 273.818 32.4143 274.79 32.8204C276.993 33.7433 278.094 36.0319 278.094 39.6864C278.094 43.0702 277.171 45.2666 275.326 46.2756C273.591 47.223 269.118 47.6968 261.907 47.6968C256.407 47.6968 252.802 47.5184 251.092 47.1615C249.43 46.817 248.255 46.0849 247.566 44.9651C246.976 44.0054 246.68 42.6211 246.68 40.8123C246.68 40.6154 246.687 40.1725 246.699 39.4834ZM284.019 47.5122V22.3183H291.697V47.5122H284.019ZM313.882 22.0599C320.293 22.0599 324.212 22.1891 325.64 22.4475C328.851 23.0259 330.844 24.6808 331.62 27.4125C331.903 28.4092 332.075 29.7565 332.136 31.4546C332.173 32.439 332.192 33.651 332.192 35.0906C332.192 38.2652 331.995 40.597 331.601 42.0858C330.728 45.3958 328.181 47.2169 323.96 47.5491C322.09 47.6968 319.038 47.7706 314.805 47.7706C311.151 47.7706 308.93 47.7521 308.142 47.7152C305.152 47.5799 302.987 47.1923 301.645 46.5524C299.763 45.6665 298.575 43.8885 298.083 41.2184C297.874 40.0863 297.769 37.9576 297.769 34.8322C297.769 32.7158 297.788 31.3684 297.825 30.7901C297.923 29.2643 298.176 27.9539 298.582 26.8588C299.554 24.2379 301.984 22.7306 305.872 22.3368C307.706 22.1522 310.376 22.0599 313.882 22.0599ZM314.953 28.2061C310.88 28.2061 308.37 28.403 307.423 28.7968C306.537 29.1659 305.964 30.0395 305.706 31.4177C305.595 32.0083 305.54 33.1157 305.54 34.7399C305.54 36.8686 305.669 38.3821 305.927 39.2804C306.309 40.6093 307.527 41.3476 309.582 41.4952C310.776 41.5813 312.221 41.6244 313.919 41.6244C318.497 41.6244 321.284 41.4645 322.28 41.1445C323.4 40.7877 324.108 39.8587 324.403 38.3575C324.514 37.7915 324.569 36.5303 324.569 34.5738C324.569 33.0726 324.532 32.0637 324.458 31.5469C324.249 30.0949 323.659 29.1536 322.686 28.7229C322.12 28.4645 320.933 28.2984 319.124 28.2246C318.829 28.2123 317.439 28.2061 314.953 28.2061ZM338.246 47.5122V22.3183H350.446L365.728 41.4952L365.525 22.3183H372.779V47.5122H360.468L345.407 28.5384L345.629 47.5122H338.246Z" fill="#11141C"/>
</svg>
