<svg width="1600" height="1600" viewBox="0 0 1600 1600" fill="none" xmlns="http://www.w3.org/2000/svg">
<g clip-path="url(#clip0_488_19)">
<path d="M1600 800C1600 358.172 1241.83 0 800 0C358.172 0 0 358.172 0 800C0 1241.83 358.172 1600 800 1600C1241.83 1600 1600 1241.83 1600 800Z" fill="url(#paint0_linear_488_19)"/>
<path d="M719.99 702.325C698.19 705.875 683.395 726.43 686.945 748.235C690.5 770.04 711.055 784.835 732.86 781.28L719.99 702.325ZM1163.29 870.375C1163.29 892.465 1181.2 910.375 1203.29 910.375C1225.38 910.375 1243.29 892.465 1243.29 870.375H1163.29ZM411.138 793.27C397.705 775.735 372.598 772.405 355.06 785.84C337.522 799.27 334.195 824.38 347.628 841.915L411.138 793.27ZM775.845 924.335L792.855 960.54C804.89 954.885 813.33 943.615 815.37 930.47C817.41 917.33 812.785 904.035 803.03 894.995L775.845 924.335ZM759.25 752.515C764.055 730.95 750.47 709.575 728.905 704.775C707.345 699.97 685.97 713.555 681.165 735.115L759.25 752.515ZM1169.5 800C1169.5 1001.29 1002.35 1166 794.25 1166V1246C1044.83 1246 1249.5 1047.16 1249.5 800H1169.5ZM794.25 1166C586.15 1166 419 1001.29 419 800H339C339 1047.16 543.675 1246 794.25 1246V1166ZM419 800C419 598.71 586.15 434 794.25 434V354C543.675 354 339 552.835 339 800H419ZM794.25 434C1002.35 434 1169.5 598.71 1169.5 800H1249.5C1249.5 552.835 1044.83 354 794.25 354V434ZM732.86 781.28C787.29 772.41 899.325 745 1000.85 748.5C1051.35 750.24 1092.73 759.685 1120.52 778.315C1145.45 795.035 1163.29 821.595 1163.29 870.375H1243.29C1243.29 797.185 1213.97 744.66 1165.07 711.87C1119 680.98 1059.86 670.485 1003.6 668.545C891.615 664.685 765.225 694.95 719.99 702.325L732.86 781.28ZM347.628 841.915C434.45 955.27 535.98 991.35 621.975 994.74C705.95 998.055 772.25 970.22 792.855 960.54L758.835 888.135C743.64 895.27 690.855 917.4 625.13 914.805C561.415 912.29 482.611 886.585 411.138 793.27L347.628 841.915ZM803.03 894.995C780.955 874.54 763.94 854.01 759.075 835.105L681.6 855.04C692.75 898.38 725.895 932.59 748.66 953.675L803.03 894.995ZM759.075 835.105C752.84 810.865 752.515 782.745 759.25 752.515L681.165 735.115C672.055 776.005 671.82 817.03 681.6 855.04L759.075 835.105Z" fill="#F5F6FC"/>
</g>
<defs>
<linearGradient id="paint0_linear_488_19" x1="-84.5815" y1="50.4505" x2="829.71" y2="1582.26" gradientUnits="userSpaceOnUse">
<stop stop-color="#332F2F"/>
<stop offset="1" stop-color="#1B1919"/>
</linearGradient>
<clipPath id="clip0_488_19">
<rect width="1600" height="1600" fill="white"/>
</clipPath>
</defs>
</svg>
