<svg width="3234" height="1148" viewBox="0 0 3234 1148" fill="none" xmlns="http://www.w3.org/2000/svg">
<rect width="3234" height="1148" fill="black"/>
<path d="M1106.2 555.188C1097.2 556.656 1091.1 565.156 1092.56 574.172C1094.03 583.189 1102.51 589.307 1111.51 587.837L1106.2 555.188ZM1289.11 624.678C1289.11 633.812 1296.5 641.218 1305.61 641.218C1314.73 641.218 1322.12 633.812 1322.12 624.678H1289.11ZM978.765 592.795C973.222 585.544 962.863 584.167 955.626 589.722C948.39 595.276 947.017 605.659 952.56 612.909L978.765 592.795ZM1129.25 646.99L1136.26 661.961C1141.23 659.623 1144.71 654.963 1145.55 649.527C1146.4 644.094 1144.49 638.596 1140.46 634.858L1129.25 646.99ZM1122.4 575.942C1124.38 567.025 1118.78 558.186 1109.88 556.202C1100.98 554.215 1092.16 559.832 1090.18 568.747L1122.4 575.942ZM1291.67 595.577C1291.67 678.812 1222.7 746.92 1136.84 746.92V780C1240.23 780 1324.68 697.781 1324.68 595.577H1291.67ZM1136.84 746.92C1050.98 746.92 982.009 678.812 982.009 595.577H949C949 697.781 1033.45 780 1136.84 780V746.92ZM982.009 595.577C982.009 512.343 1050.98 444.235 1136.84 444.235V411.155C1033.45 411.155 949 493.374 949 595.577H982.009ZM1136.84 444.235C1222.7 444.235 1291.67 512.343 1291.67 595.577H1324.68C1324.68 493.374 1240.23 411.155 1136.84 411.155V444.235ZM1111.51 587.837C1133.97 584.169 1180.19 572.835 1222.08 574.282C1242.92 575.001 1260 578.907 1271.46 586.611C1281.75 593.524 1289.11 604.507 1289.11 624.678H1322.12C1322.12 594.413 1310.02 572.694 1289.84 559.135C1270.84 546.362 1246.43 542.023 1223.22 541.22C1177.01 539.624 1124.86 552.139 1106.2 555.188L1111.51 587.837ZM952.56 612.909C988.383 659.782 1030.28 674.701 1065.76 676.103C1100.41 677.474 1127.76 665.964 1136.26 661.961L1122.23 632.022C1115.96 634.972 1094.18 644.123 1067.06 643.05C1040.77 642.01 1008.26 631.381 978.765 592.795L952.56 612.909ZM1140.46 634.858C1131.35 626.4 1124.33 617.911 1122.33 610.093L1090.36 618.337C1094.96 636.258 1108.64 650.404 1118.03 659.123L1140.46 634.858ZM1122.33 610.093C1119.75 600.07 1119.62 588.442 1122.4 575.942L1090.18 568.747C1086.42 585.655 1086.32 602.619 1090.36 618.337L1122.33 610.093Z" fill="#F5F6FC"/>
<path d="M1670.61 605.644C1670.61 624.829 1667.71 642.466 1661.92 658.557C1656.12 674.338 1647.75 687.953 1636.81 699.402C1625.87 710.541 1612.67 719.205 1597.22 725.394C1582.09 731.583 1565.03 734.677 1546.04 734.677C1527.37 734.677 1510.31 731.583 1494.86 725.394C1479.74 719.205 1466.7 710.541 1455.76 699.402C1444.81 687.953 1436.28 674.338 1430.17 658.557C1424.05 642.466 1420.99 624.829 1420.99 605.644C1420.99 586.459 1424.05 568.976 1430.17 553.195C1436.6 537.414 1445.29 523.954 1456.24 512.814C1467.5 501.675 1480.7 493.011 1495.83 486.822C1511.28 480.633 1528.02 477.539 1546.04 477.539C1564.39 477.539 1581.13 480.633 1596.25 486.822C1611.7 493.011 1624.9 501.675 1635.84 512.814C1646.79 523.954 1655.32 537.414 1661.43 553.195C1667.55 568.976 1670.61 586.459 1670.61 605.644ZM1597.22 605.644C1597.22 584.293 1592.71 567.584 1583.7 555.516C1575.01 543.138 1562.46 536.95 1546.04 536.95C1529.63 536.95 1516.91 543.138 1507.9 555.516C1498.89 567.584 1494.38 584.293 1494.38 605.644C1494.38 626.995 1498.89 644.013 1507.9 656.7C1516.91 669.077 1529.63 675.266 1546.04 675.266C1562.46 675.266 1575.01 669.077 1583.7 656.7C1592.71 644.013 1597.22 626.995 1597.22 605.644Z" fill="#F5F6FC"/>
<path d="M1798.27 572.225C1805.35 564.799 1812.6 557.063 1820 549.018C1827.73 540.972 1835.13 533.082 1842.21 525.346C1849.29 517.301 1855.89 509.72 1862 502.603C1868.44 495.486 1873.91 489.297 1878.42 484.037H1963.88C1946.82 502.912 1930.08 521.014 1913.67 538.342C1897.57 555.361 1879.87 572.999 1860.56 591.255C1870.21 599.61 1880.19 609.666 1890.49 621.425C1900.79 632.874 1910.77 644.787 1920.43 657.164C1930.08 669.541 1938.93 681.919 1946.98 694.296C1955.03 706.673 1961.79 717.968 1967.26 728.179H1884.7C1879.55 720.134 1873.59 711.315 1866.83 701.722C1860.4 691.821 1853.48 682.073 1846.07 672.481C1838.67 662.579 1830.78 653.142 1822.41 644.168C1814.37 635.195 1806.32 627.613 1798.27 621.425V728.179H1726.33V379.14L1798.27 368V572.225Z" fill="#F5F6FC"/>
<path d="M2218 719.824C2205.77 723.228 2190 726.322 2170.68 729.107C2151.37 732.201 2131.09 733.749 2109.85 733.749C2088.28 733.749 2070.26 730.964 2055.77 725.394C2041.61 719.824 2030.35 712.088 2021.98 702.187C2013.61 691.975 2007.65 679.907 2004.11 665.983C2000.57 652.059 1998.8 636.742 1998.8 620.032V484.037H2070.74V611.678C2070.74 633.957 2073.8 650.047 2079.92 659.949C2086.03 669.851 2097.46 674.802 2114.2 674.802C2119.35 674.802 2124.82 674.647 2130.61 674.338C2136.4 673.719 2141.55 673.1 2146.06 672.481V484.037H2218V719.824Z" fill="#F5F6FC"/>
</svg>
