<svg width="4000" height="1014" viewBox="0 0 4000 1014" fill="none" xmlns="http://www.w3.org/2000/svg">
<g style="mix-blend-mode:screen">
<rect y="924.17" width="112.5" height="112.5" fill="#E5BD19"/>
<rect x="843.75" y="859.585" width="56.25" height="56.2497" fill="#E5BD19"/>
<rect x="337.5" y="811.667" width="112.5" height="112.5" fill="#E5BD19"/>
<rect width="56.25" height="56.25" transform="matrix(-4.37114e-08 -1 -1 4.37114e-08 1516.67 813.752)" fill="#E5BD19"/>
<rect width="56.2497" height="56.25" transform="matrix(-4.37117e-08 -1 -1 4.37111e-08 1872.92 899.169)" fill="#E5BD19"/>
<rect x="2688.1" y="357.77" width="112.5" height="112.5" transform="rotate(-90 2688.1 357.77)" fill="#E5BD19"/>
<rect x="3649.52" y="357.77" width="112.5" height="112.5" transform="rotate(-90 3649.52 357.77)" fill="#E5BD19"/>
<rect width="112.5" height="112.5" transform="matrix(-4.37114e-08 -1 -1 4.37114e-08 1268.75 1036.67)" fill="#E5BD19"/>
<rect x="1068.75" y="915.836" width="56.25" height="56.2497" fill="#E5BD19"/>
<rect width="89.5833" height="89.5833" transform="matrix(-4.37114e-08 -1 -1 4.37114e-08 1566.85 929.376)" fill="#E5BD19"/>
<rect y="574.168" width="54.1667" height="54.1667" fill="#E5BD19"/>
<rect x="35.417" y="670.003" width="54" height="54" fill="#E5BD19"/>
<rect width="54.1667" height="54.1667" transform="matrix(-4.37114e-08 -1 -1 4.37114e-08 1742.71 929.376)" fill="#E5BD19"/>
<rect width="54.1667" height="54.1667" transform="matrix(-4.37114e-08 -1 -1 4.37114e-08 1777.08 807.5)" fill="#E5BD19"/>
<rect width="54.1667" height="54.1667" transform="matrix(-4.37114e-08 -1 -1 4.37114e-08 1272.92 655.417)" fill="#E5BD19"/>
<rect width="54.1667" height="54.1667" transform="matrix(-4.37114e-08 -1 -1 4.37114e-08 2290.63 856.461)" fill="#E5BD19"/>
<rect width="54.1667" height="54.1667" transform="matrix(-4.37114e-08 -1 -1 4.37114e-08 1786.46 704.377)" fill="#E5BD19"/>
<rect x="2891.67" y="807.5" width="54.1667" height="54.1667" transform="rotate(-90 2891.67 807.5)" fill="#E5BD19"/>
<rect x="2387.5" y="655.417" width="54.1667" height="54.1667" transform="rotate(-90 2387.5 655.417)" fill="#E5BD19"/>
<rect x="304.166" y="667.918" width="54.1667" height="54.1667" fill="#E5BD19"/>
<rect width="54.1667" height="54.1667" transform="matrix(-4.37114e-08 -1 -1 4.37114e-08 1688.54 875.21)" fill="#E5BD19"/>
<rect width="54.1667" height="54.1667" transform="matrix(-4.37114e-08 -1 -1 4.37114e-08 1184.38 723.127)" fill="#E5BD19"/>
<rect width="54.1667" height="54.1667" transform="matrix(-4.37114e-08 -1 -1 4.37114e-08 2202.08 924.17)" fill="#E5BD19"/>
<rect x="843.75" y="645.002" width="54.1667" height="54.1667" fill="#E5BD19"/>
<rect x="354.167" y="511.668" width="54.1667" height="54.1667" fill="#E5BD19"/>
<rect width="54.1667" height="54.1667" transform="matrix(-1 0 0 1 3825 645.002)" fill="#E5BD19"/>
<rect x="1012.5" y="876.252" width="54.1667" height="54.1667" fill="#E5BD19"/>
<rect width="54.1667" height="54.1667" transform="matrix(-1 0 0 1 2700 645.002)" fill="#E5BD19"/>
<rect width="54.1667" height="54.1667" transform="matrix(-1 0 0 1 2195.83 492.919)" fill="#E5BD19"/>
<rect width="54.1667" height="54.1667" transform="matrix(-1 0 0 1 3027.08 872.086)" fill="#E5BD19"/>
<rect x="897.916" y="590.836" width="54.1667" height="54.1667" fill="#E5BD19"/>
<rect width="54.1667" height="54.1667" transform="matrix(-1 0 0 1 3770.83 590.836)" fill="#E5BD19"/>
<rect x="1066.67" y="822.086" width="54.1667" height="54.1667" fill="#E5BD19"/>
<rect x="562.5" y="670.003" width="54.1667" height="54.1667" fill="#E5BD19"/>
<rect width="54.1667" height="54.1667" transform="matrix(-1 0 0 1 2645.83 590.836)" fill="#E5BD19"/>
<rect width="54.1667" height="54.1667" transform="matrix(-1 0 0 1 2141.67 438.752)" fill="#E5BD19"/>
<rect x="897.916" y="699.168" width="54.1667" height="54.1667" fill="#E5BD19"/>
<rect x="408.333" y="565.834" width="54.1667" height="54.1667" fill="#E5BD19"/>
<rect width="54.1667" height="54.1667" transform="matrix(-1 0 0 1 3770.83 699.168)" fill="#E5BD19"/>
<rect width="54.1667" height="54.1667" transform="matrix(-1 0 0 1 3620.08 0.897461)" fill="#E5BD19"/>
<rect width="54.1667" height="54.1667" transform="matrix(-1 0 0 1 3679.17 807.5)" fill="#E5BD19"/>
<rect width="54.1667" height="54.1667" transform="matrix(-1 0 0 1 3176.35 830.479)" fill="#E5BD19"/>
<rect width="54.1667" height="54.1667" transform="matrix(-1 0 0 1 3437.5 726.251)" fill="#E5BD19"/>
<rect width="54.1667" height="54.1667" transform="matrix(-1 0 0 1 2933.33 574.168)" fill="#E5BD19"/>
<rect x="1066.67" y="930.419" width="54.1667" height="54.1667" fill="#E5BD19"/>
<rect width="54.1667" height="54.1667" transform="matrix(-1 0 0 1 2645.83 699.168)" fill="#E5BD19"/>
<rect width="54.1667" height="54.1667" transform="matrix(-1 0 0 1 2141.67 547.085)" fill="#E5BD19"/>
<rect x="225" y="924.17" width="112.5" height="112.5" fill="#E5BD19"/>
<rect x="675" y="924.17" width="112.5" height="112.5" fill="#E5BD19"/>
<rect x="504.823" y="904.435" width="112.5" height="112.5" fill="#E5BD19"/>
<rect width="112.5" height="112.5" transform="matrix(-1 0 0 1 3825 811.667)" fill="#E5BD19"/>
<rect width="112.5" height="112.5" transform="matrix(-1 0 0 1 2700 811.667)" fill="#E5BD19"/>
<rect width="112.5" height="112.5" transform="matrix(-1 0 0 1 3937.5 699.168)" fill="#E5BD19"/>
<rect width="112.5" height="112.5" transform="matrix(-1 0 0 1 2812.5 699.168)" fill="#E5BD19"/>
<rect x="900" y="924.17" width="112.5" height="112.5" fill="#E5BD19"/>
<rect x="1350" y="924.17" width="112.5" height="112.5" fill="#E5BD19"/>
<rect x="1575" y="915.836" width="56.25" height="56.2497" fill="#E5BD19"/>
<rect x="1800" y="924.17" width="112.5" height="112.5" fill="#E5BD19"/>
<rect x="2025" y="924.17" width="112.5" height="112.5" fill="#E5BD19"/>
<rect x="2137.5" y="924.17" width="112.5" height="112.5" fill="#E5BD19"/>
<rect x="2250" y="924.17" width="112.5" height="112.5" fill="#E5BD19"/>
<rect x="2475" y="924.17" width="112.5" height="112.5" fill="#E5BD19"/>
<rect x="2700" y="924.17" width="112.5" height="112.5" fill="#E5BD19"/>
<rect x="2812.5" y="924.17" width="112.5" height="112.5" fill="#E5BD19"/>
<rect x="2925" y="924.17" width="112.5" height="112.5" fill="#E5BD19"/>
<rect x="3037.5" y="924.17" width="112.5" height="112.5" fill="#E5BD19"/>
<rect x="3150" y="924.17" width="112.5" height="112.5" fill="#E5BD19"/>
<rect x="2389.07" y="859.418" width="56.25" height="56.2497" fill="#E5BD19"/>
<rect x="3375" y="924.17" width="112.5" height="112.5" fill="#E5BD19"/>
<rect x="3529.69" y="966.356" width="28.125" height="28.125" fill="#E5BD19"/>
<rect x="3600" y="924.17" width="112.5" height="112.5" fill="#E5BD19"/>
<rect x="3887.5" y="924.17" width="112.5" height="112.5" fill="#E5BD19"/>
</g>
</svg>
