<svg width="60" height="60" viewBox="0 0 60 60" fill="none" xmlns="http://www.w3.org/2000/svg">
<circle cx="29.6743" cy="29.6743" r="29.2056" fill="#231F20" stroke="#E5BD19" stroke-width="0.9375"/>
<path d="M24.2749 21.722L17.8489 28.148C16.8236 29.1733 15.0706 28.4471 15.0706 26.9972C15.0706 26.5606 15.246 26.1423 15.5574 25.8363L26.1217 15.4563C27.0116 14.5819 28.5147 15.2123 28.5147 16.4598V44.8395C28.5147 45.7892 27.7448 46.5591 26.7951 46.5591C25.8454 46.5591 25.0755 45.7892 25.0755 44.8395V22.0536C25.0755 21.6358 24.5704 21.4265 24.2749 21.722Z" fill="#E5BD19" stroke="#E5BD19" stroke-width="0.9375"/>
<path d="M36.5054 44.8205L42.9314 38.3945C43.9567 37.3692 45.7097 38.0953 45.7097 39.5453C45.7097 39.9819 45.5343 40.4002 45.2229 40.7062L34.6586 51.0862C33.7687 51.9605 32.2655 51.3301 32.2655 50.0826L32.2655 21.703C32.2655 20.7533 33.0354 19.9834 33.9851 19.9834C34.9349 19.9834 35.7047 20.7533 35.7047 21.703L35.7047 44.4889C35.7047 44.9067 36.2099 45.116 36.5054 44.8205Z" fill="#E5BD19" stroke="#E5BD19" stroke-width="0.9375"/>
</svg>
